<mxfile host="app.diagrams.net" agent="Mozilla/5.0 (Windows NT 10.0; Win64; x64) AppleWebKit/537.36 (KHTML, like Gecko) Chrome/131.0.0.0 Safari/537.36" version="24.8.6" pages="4">
  <diagram name="mlworkflow" id="gs34qH4t4-lqs79EAob1">
    <mxGraphModel dx="1434" dy="1921" grid="1" gridSize="10" guides="1" tooltips="1" connect="1" arrows="1" fold="1" page="1" pageScale="1" pageWidth="827" pageHeight="1169" math="0" shadow="0">
      <root>
        <mxCell id="0" />
        <mxCell id="1" parent="0" />
        <mxCell id="b7R_la5aQF6c0IGN4E0D-30" style="edgeStyle=orthogonalEdgeStyle;rounded=0;orthogonalLoop=1;jettySize=auto;html=1;entryX=0;entryY=0.5;entryDx=0;entryDy=0;" parent="1" source="b7R_la5aQF6c0IGN4E0D-1" target="b7R_la5aQF6c0IGN4E0D-13" edge="1">
          <mxGeometry relative="1" as="geometry">
            <Array as="points">
              <mxPoint x="320" y="-50" />
              <mxPoint x="320" y="320" />
            </Array>
          </mxGeometry>
        </mxCell>
        <mxCell id="b7R_la5aQF6c0IGN4E0D-1" value="Consumos de&amp;nbsp;&lt;div&gt;prácticas médicas&lt;/div&gt;" style="rounded=1;whiteSpace=wrap;html=1;" parent="1" vertex="1">
          <mxGeometry x="366" y="-80" width="120" height="60" as="geometry" />
        </mxCell>
        <mxCell id="b7R_la5aQF6c0IGN4E0D-29" style="edgeStyle=orthogonalEdgeStyle;rounded=0;orthogonalLoop=1;jettySize=auto;html=1;entryX=0;entryY=0.5;entryDx=0;entryDy=0;" parent="1" source="b7R_la5aQF6c0IGN4E0D-2" target="b7R_la5aQF6c0IGN4E0D-13" edge="1">
          <mxGeometry relative="1" as="geometry">
            <Array as="points">
              <mxPoint x="320" y="20" />
              <mxPoint x="320" y="320" />
            </Array>
          </mxGeometry>
        </mxCell>
        <mxCell id="b7R_la5aQF6c0IGN4E0D-2" value="Consumos de&amp;nbsp;&lt;div&gt;monodrogas&lt;/div&gt;" style="rounded=1;whiteSpace=wrap;html=1;" parent="1" vertex="1">
          <mxGeometry x="366" y="-10" width="120" height="60" as="geometry" />
        </mxCell>
        <mxCell id="b7R_la5aQF6c0IGN4E0D-27" style="edgeStyle=orthogonalEdgeStyle;rounded=0;orthogonalLoop=1;jettySize=auto;html=1;entryX=0;entryY=0.5;entryDx=0;entryDy=0;" parent="1" source="b7R_la5aQF6c0IGN4E0D-3" target="b7R_la5aQF6c0IGN4E0D-13" edge="1">
          <mxGeometry relative="1" as="geometry">
            <Array as="points">
              <mxPoint x="320" y="160" />
              <mxPoint x="320" y="320" />
            </Array>
          </mxGeometry>
        </mxCell>
        <mxCell id="b7R_la5aQF6c0IGN4E0D-3" value="monodrogas de interes" style="rounded=1;whiteSpace=wrap;html=1;" parent="1" vertex="1">
          <mxGeometry x="366" y="130" width="120" height="60" as="geometry" />
        </mxCell>
        <mxCell id="b7R_la5aQF6c0IGN4E0D-28" style="edgeStyle=orthogonalEdgeStyle;rounded=0;orthogonalLoop=1;jettySize=auto;html=1;entryX=0;entryY=0.5;entryDx=0;entryDy=0;" parent="1" source="b7R_la5aQF6c0IGN4E0D-4" target="b7R_la5aQF6c0IGN4E0D-13" edge="1">
          <mxGeometry relative="1" as="geometry">
            <Array as="points">
              <mxPoint x="320" y="90" />
              <mxPoint x="320" y="320" />
            </Array>
          </mxGeometry>
        </mxCell>
        <mxCell id="b7R_la5aQF6c0IGN4E0D-4" value="prácticas médicas de interes" style="rounded=1;whiteSpace=wrap;html=1;" parent="1" vertex="1">
          <mxGeometry x="366" y="60" width="120" height="60" as="geometry" />
        </mxCell>
        <mxCell id="b7R_la5aQF6c0IGN4E0D-16" style="edgeStyle=orthogonalEdgeStyle;rounded=0;orthogonalLoop=1;jettySize=auto;html=1;" parent="1" source="b7R_la5aQF6c0IGN4E0D-13" target="b7R_la5aQF6c0IGN4E0D-14" edge="1">
          <mxGeometry relative="1" as="geometry" />
        </mxCell>
        <mxCell id="b7R_la5aQF6c0IGN4E0D-13" value="Preprocesamiento" style="rounded=0;whiteSpace=wrap;html=1;" parent="1" vertex="1">
          <mxGeometry x="370" y="270" width="110" height="100" as="geometry" />
        </mxCell>
        <mxCell id="b7R_la5aQF6c0IGN4E0D-18" style="edgeStyle=orthogonalEdgeStyle;rounded=0;orthogonalLoop=1;jettySize=auto;html=1;" parent="1" source="b7R_la5aQF6c0IGN4E0D-14" target="b7R_la5aQF6c0IGN4E0D-15" edge="1">
          <mxGeometry relative="1" as="geometry" />
        </mxCell>
        <mxCell id="b7R_la5aQF6c0IGN4E0D-14" value="Generar matriz de dismilitud" style="rounded=0;whiteSpace=wrap;html=1;" parent="1" vertex="1">
          <mxGeometry x="578" y="270" width="110" height="100" as="geometry" />
        </mxCell>
        <mxCell id="b7R_la5aQF6c0IGN4E0D-37" style="edgeStyle=orthogonalEdgeStyle;rounded=0;orthogonalLoop=1;jettySize=auto;html=1;" parent="1" source="b7R_la5aQF6c0IGN4E0D-15" target="b7R_la5aQF6c0IGN4E0D-31" edge="1">
          <mxGeometry relative="1" as="geometry" />
        </mxCell>
        <mxCell id="b7R_la5aQF6c0IGN4E0D-39" style="edgeStyle=orthogonalEdgeStyle;rounded=0;orthogonalLoop=1;jettySize=auto;html=1;entryX=0.5;entryY=0;entryDx=0;entryDy=0;" parent="1" source="b7R_la5aQF6c0IGN4E0D-15" target="b7R_la5aQF6c0IGN4E0D-21" edge="1">
          <mxGeometry relative="1" as="geometry">
            <Array as="points">
              <mxPoint x="970" y="320" />
              <mxPoint x="970" y="450" />
              <mxPoint x="421" y="450" />
            </Array>
          </mxGeometry>
        </mxCell>
        <mxCell id="b7R_la5aQF6c0IGN4E0D-15" value="&lt;div&gt;Aplicar&lt;/div&gt;K-medoides" style="rounded=0;whiteSpace=wrap;html=1;" parent="1" vertex="1">
          <mxGeometry x="784" y="270" width="110" height="100" as="geometry" />
        </mxCell>
        <mxCell id="b7R_la5aQF6c0IGN4E0D-17" value="historiales&lt;div&gt;médicos&lt;/div&gt;" style="text;html=1;align=center;verticalAlign=middle;resizable=0;points=[];autosize=1;strokeColor=none;fillColor=none;" parent="1" vertex="1">
          <mxGeometry x="490" y="276" width="80" height="40" as="geometry" />
        </mxCell>
        <mxCell id="b7R_la5aQF6c0IGN4E0D-19" value="matriz de&lt;div&gt;disimilitud&lt;/div&gt;" style="text;html=1;align=center;verticalAlign=middle;resizable=0;points=[];autosize=1;strokeColor=none;fillColor=none;" parent="1" vertex="1">
          <mxGeometry x="695" y="275" width="80" height="40" as="geometry" />
        </mxCell>
        <mxCell id="b7R_la5aQF6c0IGN4E0D-42" style="edgeStyle=orthogonalEdgeStyle;rounded=0;orthogonalLoop=1;jettySize=auto;html=1;" parent="1" source="b7R_la5aQF6c0IGN4E0D-21" target="b7R_la5aQF6c0IGN4E0D-41" edge="1">
          <mxGeometry relative="1" as="geometry" />
        </mxCell>
        <mxCell id="b7R_la5aQF6c0IGN4E0D-21" value="&lt;div&gt;Etiquetar&lt;/div&gt;&lt;div&gt;historiales médicos&lt;/div&gt;" style="rounded=0;whiteSpace=wrap;html=1;" parent="1" vertex="1">
          <mxGeometry x="366" y="490" width="110" height="100" as="geometry" />
        </mxCell>
        <mxCell id="b7R_la5aQF6c0IGN4E0D-22" value="clusters y&lt;div&gt;métricas de&lt;/div&gt;&lt;div&gt;rendimiento&lt;/div&gt;" style="text;html=1;align=center;verticalAlign=middle;resizable=0;points=[];autosize=1;strokeColor=none;fillColor=none;" parent="1" vertex="1">
          <mxGeometry x="920" y="265" width="90" height="60" as="geometry" />
        </mxCell>
        <mxCell id="b7R_la5aQF6c0IGN4E0D-31" value="Analizar resultados" style="rounded=0;whiteSpace=wrap;html=1;" parent="1" vertex="1">
          <mxGeometry x="1050" y="270" width="110" height="100" as="geometry" />
        </mxCell>
        <mxCell id="b7R_la5aQF6c0IGN4E0D-40" value="" style="endArrow=classic;html=1;rounded=0;exitX=1;exitY=0.5;exitDx=0;exitDy=0;entryX=0.5;entryY=0;entryDx=0;entryDy=0;" parent="1" source="b7R_la5aQF6c0IGN4E0D-13" target="b7R_la5aQF6c0IGN4E0D-21" edge="1">
          <mxGeometry width="50" height="50" relative="1" as="geometry">
            <mxPoint x="370" y="450" as="sourcePoint" />
            <mxPoint x="420" y="400" as="targetPoint" />
            <Array as="points">
              <mxPoint x="520" y="320" />
              <mxPoint x="530" y="330" />
              <mxPoint x="530" y="440" />
              <mxPoint x="520" y="450" />
              <mxPoint x="421" y="450" />
            </Array>
          </mxGeometry>
        </mxCell>
        <mxCell id="b7R_la5aQF6c0IGN4E0D-45" style="edgeStyle=orthogonalEdgeStyle;rounded=0;orthogonalLoop=1;jettySize=auto;html=1;" parent="1" source="b7R_la5aQF6c0IGN4E0D-41" target="b7R_la5aQF6c0IGN4E0D-44" edge="1">
          <mxGeometry relative="1" as="geometry" />
        </mxCell>
        <mxCell id="b7R_la5aQF6c0IGN4E0D-41" value="&lt;div&gt;Entrenar arbol de decisión&lt;/div&gt;" style="rounded=0;whiteSpace=wrap;html=1;" parent="1" vertex="1">
          <mxGeometry x="578" y="490" width="110" height="100" as="geometry" />
        </mxCell>
        <mxCell id="b7R_la5aQF6c0IGN4E0D-43" value="historiales&lt;div&gt;médicos&lt;/div&gt;&lt;div&gt;etiquetados&lt;/div&gt;" style="text;html=1;align=center;verticalAlign=middle;resizable=0;points=[];autosize=1;strokeColor=none;fillColor=none;" parent="1" vertex="1">
          <mxGeometry x="480" y="480" width="90" height="60" as="geometry" />
        </mxCell>
        <mxCell id="b7R_la5aQF6c0IGN4E0D-47" style="edgeStyle=orthogonalEdgeStyle;rounded=0;orthogonalLoop=1;jettySize=auto;html=1;entryX=0;entryY=0.75;entryDx=0;entryDy=0;" parent="1" source="b7R_la5aQF6c0IGN4E0D-44" target="b7R_la5aQF6c0IGN4E0D-31" edge="1">
          <mxGeometry relative="1" as="geometry">
            <Array as="points">
              <mxPoint x="1000" y="540" />
              <mxPoint x="1000" y="345" />
            </Array>
          </mxGeometry>
        </mxCell>
        <mxCell id="b7R_la5aQF6c0IGN4E0D-44" value="&lt;div&gt;Generar valores&lt;/div&gt;&lt;div&gt;de SHAP&lt;/div&gt;" style="rounded=0;whiteSpace=wrap;html=1;" parent="1" vertex="1">
          <mxGeometry x="784" y="490" width="110" height="100" as="geometry" />
        </mxCell>
        <mxCell id="b7R_la5aQF6c0IGN4E0D-46" value="modelo&lt;div&gt;predictivo&lt;/div&gt;" style="text;html=1;align=center;verticalAlign=middle;resizable=0;points=[];autosize=1;strokeColor=none;fillColor=none;" parent="1" vertex="1">
          <mxGeometry x="705" y="500" width="70" height="40" as="geometry" />
        </mxCell>
        <mxCell id="b7R_la5aQF6c0IGN4E0D-48" value="modelo&lt;div&gt;explicativo&lt;/div&gt;" style="text;html=1;align=center;verticalAlign=middle;resizable=0;points=[];autosize=1;strokeColor=none;fillColor=none;" parent="1" vertex="1">
          <mxGeometry x="905" y="500" width="80" height="40" as="geometry" />
        </mxCell>
      </root>
    </mxGraphModel>
  </diagram>
  <diagram id="qv3UGGVrjR5PXEtc_gB5" name="Página-2">
    <mxGraphModel dx="3033" dy="2326" grid="1" gridSize="10" guides="1" tooltips="1" connect="1" arrows="1" fold="1" page="1" pageScale="1" pageWidth="827" pageHeight="1169" math="0" shadow="0">
      <root>
        <mxCell id="0" />
        <mxCell id="1" parent="0" />
        <mxCell id="u8S5JqaeLCGqhp013BoR-43" value="" style="rounded=1;whiteSpace=wrap;html=1;fillColor=none;dashed=1;strokeWidth=3;strokeColor=#6c8ebf;fillStyle=solid;perimeterSpacing=0;" vertex="1" parent="1">
          <mxGeometry x="-740" y="-10" width="882" height="160" as="geometry" />
        </mxCell>
        <mxCell id="u8S5JqaeLCGqhp013BoR-25" value="" style="rounded=1;whiteSpace=wrap;html=1;fillColor=#dae8fc;dashed=1;strokeWidth=3;strokeColor=#6c8ebf;fillStyle=solid;perimeterSpacing=0;opacity=20;" vertex="1" parent="1">
          <mxGeometry x="-738" y="-10" width="880" height="160" as="geometry" />
        </mxCell>
        <mxCell id="u8S5JqaeLCGqhp013BoR-49" value="" style="whiteSpace=wrap;html=1;align=center;strokeColor=#9999FF;strokeWidth=2;fillColor=#EDF5FF;" vertex="1" parent="1">
          <mxGeometry x="-65" y="40.5" width="166" height="70" as="geometry" />
        </mxCell>
        <mxCell id="u8S5JqaeLCGqhp013BoR-42" value="" style="rounded=1;whiteSpace=wrap;html=1;fillColor=none;dashed=1;strokeWidth=3;strokeColor=#CC0000;fillStyle=solid;perimeterSpacing=0;" vertex="1" parent="1">
          <mxGeometry x="-810" y="240" width="1010" height="750" as="geometry" />
        </mxCell>
        <mxCell id="u8S5JqaeLCGqhp013BoR-21" value="" style="rounded=1;whiteSpace=wrap;html=1;fillColor=#f8cecc;dashed=1;strokeWidth=3;strokeColor=#CC0000;fillStyle=solid;opacity=10;perimeterSpacing=0;" vertex="1" parent="1">
          <mxGeometry x="-810" y="240" width="1010" height="740" as="geometry" />
        </mxCell>
        <mxCell id="u8S5JqaeLCGqhp013BoR-23" value="" style="rounded=1;whiteSpace=wrap;html=1;fillColor=#f8cecc;dashed=1;strokeWidth=3;strokeColor=#CC0000;opacity=70;" vertex="1" parent="1">
          <mxGeometry x="-780" y="320" width="740" height="620" as="geometry" />
        </mxCell>
        <mxCell id="u8S5JqaeLCGqhp013BoR-24" value="" style="rounded=1;whiteSpace=wrap;html=1;fillColor=#f8cecc;dashed=1;strokeWidth=3;strokeColor=#CC0000;opacity=70;" vertex="1" parent="1">
          <mxGeometry x="-13" y="320" width="180" height="620" as="geometry" />
        </mxCell>
        <mxCell id="u8S5JqaeLCGqhp013BoR-5" value="&lt;b style=&quot;font-size: 14px;&quot;&gt;&amp;lt;Constructor de&amp;nbsp;&lt;span style=&quot;background-color: initial;&quot;&gt;Dominio&amp;gt;&lt;/span&gt;&lt;/b&gt;" style="whiteSpace=wrap;html=1;align=center;fillColor=#FFEDE8;strokeWidth=2;strokeColor=#F19C99;" vertex="1" parent="1">
          <mxGeometry x="-631" y="414" width="188.5" height="60" as="geometry" />
        </mxCell>
        <mxCell id="u8S5JqaeLCGqhp013BoR-36" style="edgeStyle=orthogonalEdgeStyle;rounded=0;orthogonalLoop=1;jettySize=auto;html=1;strokeColor=#BD7A78;strokeWidth=2;" edge="1" parent="1" source="u8S5JqaeLCGqhp013BoR-6" target="u8S5JqaeLCGqhp013BoR-10">
          <mxGeometry relative="1" as="geometry" />
        </mxCell>
        <mxCell id="u8S5JqaeLCGqhp013BoR-6" value="&lt;b style=&quot;font-size: 14px;&quot;&gt;&lt;font style=&quot;font-size: 14px;&quot;&gt;&amp;lt;Constructor de Dominio&amp;gt;&lt;/font&gt;&lt;/b&gt;&lt;div style=&quot;font-size: 14px;&quot;&gt;&lt;div style=&quot;&quot;&gt;&lt;b style=&quot;&quot;&gt;&lt;font style=&quot;font-size: 14px;&quot;&gt;Historiales Médicos&amp;nbsp;&lt;/font&gt;&lt;/b&gt;&lt;/div&gt;&lt;/div&gt;" style="whiteSpace=wrap;html=1;align=center;strokeColor=#F19C99;strokeWidth=2;fillColor=#FFEDE8;" vertex="1" parent="1">
          <mxGeometry x="-767" y="570" width="195" height="60" as="geometry" />
        </mxCell>
        <mxCell id="u8S5JqaeLCGqhp013BoR-7" value="" style="triangle;whiteSpace=wrap;html=1;rotation=-90;fillColor=#FFEDE8;strokeColor=#BD7A78;strokeWidth=2;" vertex="1" parent="1">
          <mxGeometry x="-545" y="470" width="20" height="30" as="geometry" />
        </mxCell>
        <mxCell id="u8S5JqaeLCGqhp013BoR-8" value="&lt;font style=&quot;font-size: 18px;&quot;&gt;&lt;b&gt;. . .&lt;/b&gt;&lt;/font&gt;" style="whiteSpace=wrap;html=1;align=center;strokeColor=#F19C99;strokeWidth=2;fillColor=#FFEDE8;" vertex="1" parent="1">
          <mxGeometry x="-560" y="570" width="50" height="35" as="geometry" />
        </mxCell>
        <mxCell id="u8S5JqaeLCGqhp013BoR-9" value="&lt;b&gt;&lt;font style=&quot;font-size: 14px;&quot;&gt;&amp;lt;Dominio&amp;gt;&lt;/font&gt;&lt;/b&gt;" style="whiteSpace=wrap;html=1;align=center;strokeColor=#990000;strokeWidth=2;fillColor=#FFEDE8;" vertex="1" parent="1">
          <mxGeometry x="-618" y="856" width="150" height="60" as="geometry" />
        </mxCell>
        <mxCell id="u8S5JqaeLCGqhp013BoR-10" value="&lt;b style=&quot;font-size: 14px;&quot;&gt;&lt;font style=&quot;font-size: 14px;&quot;&gt;&amp;lt;Dominio&amp;gt;&lt;/font&gt;&lt;/b&gt;&lt;div style=&quot;font-size: 14px;&quot;&gt;&lt;b style=&quot;&quot;&gt;&lt;font style=&quot;font-size: 14px;&quot;&gt;Historiales Médicos&lt;/font&gt;&lt;/b&gt;&lt;/div&gt;" style="whiteSpace=wrap;html=1;align=center;strokeColor=#F19C99;strokeWidth=2;fillColor=#FFEDE8;" vertex="1" parent="1">
          <mxGeometry x="-745" y="710" width="150" height="60" as="geometry" />
        </mxCell>
        <mxCell id="u8S5JqaeLCGqhp013BoR-11" value="&lt;b&gt;&lt;font style=&quot;font-size: 18px;&quot;&gt;. . .&lt;/font&gt;&lt;/b&gt;" style="whiteSpace=wrap;html=1;align=center;strokeColor=#F19C99;strokeWidth=2;fillColor=#FFEDE8;" vertex="1" parent="1">
          <mxGeometry x="-565" y="732.5" width="50" height="35" as="geometry" />
        </mxCell>
        <mxCell id="u8S5JqaeLCGqhp013BoR-12" value="" style="triangle;whiteSpace=wrap;html=1;rotation=90;fillColor=#FFEDE8;strokeColor=#BD7A78;strokeWidth=2;" vertex="1" parent="1">
          <mxGeometry x="-550" y="830" width="20" height="30" as="geometry" />
        </mxCell>
        <mxCell id="u8S5JqaeLCGqhp013BoR-13" value="&lt;b&gt;&lt;font style=&quot;font-size: 14px;&quot;&gt;&amp;lt;Algoritmo&amp;gt;&lt;/font&gt;&lt;/b&gt;" style="whiteSpace=wrap;html=1;align=center;strokeColor=#F19C99;strokeWidth=2;fillColor=#FFEDE8;" vertex="1" parent="1">
          <mxGeometry x="-254" y="414" width="150" height="60" as="geometry" />
        </mxCell>
        <mxCell id="u8S5JqaeLCGqhp013BoR-14" value="&lt;b&gt;&lt;font style=&quot;font-size: 18px;&quot;&gt;. . .&lt;/font&gt;&lt;/b&gt;" style="whiteSpace=wrap;html=1;align=center;strokeColor=#F19C99;strokeWidth=2;fillColor=#FFEDE8;" vertex="1" parent="1">
          <mxGeometry x="-468" y="732.5" width="50" height="35" as="geometry" />
        </mxCell>
        <mxCell id="u8S5JqaeLCGqhp013BoR-15" value="&lt;b&gt;&lt;font style=&quot;font-size: 18px;&quot;&gt;. . .&lt;/font&gt;&lt;/b&gt;" style="whiteSpace=wrap;html=1;align=center;strokeColor=#F19C99;strokeWidth=2;fillColor=#FFEDE8;" vertex="1" parent="1">
          <mxGeometry x="-462" y="570" width="50" height="35" as="geometry" />
        </mxCell>
        <mxCell id="u8S5JqaeLCGqhp013BoR-16" value="&lt;b style=&quot;font-size: 14px;&quot;&gt;&lt;font style=&quot;font-size: 14px;&quot;&gt;&amp;lt;Algoritmo&amp;gt;&lt;/font&gt;&lt;/b&gt;&lt;div style=&quot;font-size: 14px;&quot;&gt;&lt;b style=&quot;&quot;&gt;&lt;font style=&quot;font-size: 14px;&quot;&gt;Clustering de secuencias&lt;/font&gt;&lt;/b&gt;&lt;/div&gt;" style="whiteSpace=wrap;html=1;align=center;strokeColor=#F19C99;fillColor=#FFEDE8;strokeWidth=2;" vertex="1" parent="1">
          <mxGeometry x="-389" y="570" width="150" height="60" as="geometry" />
        </mxCell>
        <mxCell id="u8S5JqaeLCGqhp013BoR-17" value="" style="triangle;whiteSpace=wrap;html=1;rotation=-90;fillColor=#FFEDE8;strokeColor=#BD7A78;strokeWidth=2;" vertex="1" parent="1">
          <mxGeometry x="-189" y="470" width="20" height="30" as="geometry" />
        </mxCell>
        <mxCell id="u8S5JqaeLCGqhp013BoR-18" value="&lt;b&gt;&lt;font style=&quot;font-size: 18px;&quot;&gt;. . .&lt;/font&gt;&lt;/b&gt;" style="whiteSpace=wrap;html=1;align=center;strokeColor=#F19C99;strokeWidth=2;fillColor=#FFEDE8;" vertex="1" parent="1">
          <mxGeometry x="-204" y="570" width="50" height="35" as="geometry" />
        </mxCell>
        <mxCell id="u8S5JqaeLCGqhp013BoR-19" value="&lt;b&gt;&lt;font style=&quot;font-size: 18px;&quot;&gt;. . .&lt;/font&gt;&lt;/b&gt;" style="whiteSpace=wrap;html=1;align=center;strokeColor=#F19C99;strokeWidth=2;fillColor=#FFEDE8;" vertex="1" parent="1">
          <mxGeometry x="-104" y="570" width="50" height="35" as="geometry" />
        </mxCell>
        <mxCell id="u8S5JqaeLCGqhp013BoR-37" style="edgeStyle=orthogonalEdgeStyle;rounded=0;orthogonalLoop=1;jettySize=auto;html=1;entryX=1;entryY=0.5;entryDx=0;entryDy=0;strokeColor=#BD7A78;strokeWidth=2;" edge="1" parent="1" source="u8S5JqaeLCGqhp013BoR-20" target="u8S5JqaeLCGqhp013BoR-13">
          <mxGeometry relative="1" as="geometry">
            <Array as="points">
              <mxPoint x="77" y="444" />
            </Array>
          </mxGeometry>
        </mxCell>
        <mxCell id="u8S5JqaeLCGqhp013BoR-38" style="edgeStyle=orthogonalEdgeStyle;rounded=0;orthogonalLoop=1;jettySize=auto;html=1;entryX=0.5;entryY=0;entryDx=0;entryDy=0;strokeColor=#BD7A78;strokeWidth=2;" edge="1" parent="1" source="u8S5JqaeLCGqhp013BoR-20" target="u8S5JqaeLCGqhp013BoR-5">
          <mxGeometry relative="1" as="geometry">
            <Array as="points">
              <mxPoint x="77" y="380" />
              <mxPoint x="-537" y="380" />
            </Array>
          </mxGeometry>
        </mxCell>
        <mxCell id="u8S5JqaeLCGqhp013BoR-20" value="&lt;b&gt;&lt;font style=&quot;font-size: 14px;&quot;&gt;Aplicación&lt;/font&gt;&lt;/b&gt;" style="whiteSpace=wrap;html=1;align=center;strokeColor=#F19C99;strokeWidth=2;fillColor=#FFEDE8;" vertex="1" parent="1">
          <mxGeometry x="2" y="600" width="150" height="60" as="geometry" />
        </mxCell>
        <mxCell id="u8S5JqaeLCGqhp013BoR-26" value="" style="endArrow=none;html=1;rounded=0;entryX=0;entryY=0.5;entryDx=0;entryDy=0;exitX=0.5;exitY=0;exitDx=0;exitDy=0;strokeColor=#BD7A78;strokeWidth=2;" edge="1" parent="1" source="u8S5JqaeLCGqhp013BoR-6" target="u8S5JqaeLCGqhp013BoR-7">
          <mxGeometry width="50" height="50" relative="1" as="geometry">
            <mxPoint x="-470" y="640" as="sourcePoint" />
            <mxPoint x="-420" y="590" as="targetPoint" />
            <Array as="points">
              <mxPoint x="-669" y="520" />
              <mxPoint x="-535" y="520" />
            </Array>
          </mxGeometry>
        </mxCell>
        <mxCell id="u8S5JqaeLCGqhp013BoR-27" value="" style="endArrow=none;html=1;rounded=0;exitX=0.5;exitY=0;exitDx=0;exitDy=0;entryX=0;entryY=0.5;entryDx=0;entryDy=0;strokeColor=#BD7A78;strokeWidth=2;" edge="1" parent="1" source="u8S5JqaeLCGqhp013BoR-8" target="u8S5JqaeLCGqhp013BoR-7">
          <mxGeometry width="50" height="50" relative="1" as="geometry">
            <mxPoint x="-470" y="640" as="sourcePoint" />
            <mxPoint x="-420" y="590" as="targetPoint" />
          </mxGeometry>
        </mxCell>
        <mxCell id="u8S5JqaeLCGqhp013BoR-28" value="" style="endArrow=none;html=1;rounded=0;exitX=0.5;exitY=0;exitDx=0;exitDy=0;entryX=0;entryY=0.5;entryDx=0;entryDy=0;strokeColor=#BD7A78;strokeWidth=2;" edge="1" parent="1" source="u8S5JqaeLCGqhp013BoR-15" target="u8S5JqaeLCGqhp013BoR-7">
          <mxGeometry width="50" height="50" relative="1" as="geometry">
            <mxPoint x="-470" y="640" as="sourcePoint" />
            <mxPoint x="-420" y="590" as="targetPoint" />
            <Array as="points">
              <mxPoint x="-437" y="520" />
              <mxPoint x="-535" y="520" />
            </Array>
          </mxGeometry>
        </mxCell>
        <mxCell id="u8S5JqaeLCGqhp013BoR-29" value="" style="endArrow=none;html=1;rounded=0;entryX=0;entryY=0.5;entryDx=0;entryDy=0;exitX=0.5;exitY=0;exitDx=0;exitDy=0;strokeColor=#BD7A78;strokeWidth=2;" edge="1" parent="1" source="u8S5JqaeLCGqhp013BoR-16" target="u8S5JqaeLCGqhp013BoR-17">
          <mxGeometry width="50" height="50" relative="1" as="geometry">
            <mxPoint x="-379" y="730" as="sourcePoint" />
            <mxPoint x="-329" y="680" as="targetPoint" />
            <Array as="points">
              <mxPoint x="-314" y="520" />
              <mxPoint x="-179" y="520" />
            </Array>
          </mxGeometry>
        </mxCell>
        <mxCell id="u8S5JqaeLCGqhp013BoR-30" value="" style="endArrow=none;html=1;rounded=0;strokeColor=#BD7A78;strokeWidth=2;" edge="1" parent="1" source="u8S5JqaeLCGqhp013BoR-18" target="u8S5JqaeLCGqhp013BoR-17">
          <mxGeometry width="50" height="50" relative="1" as="geometry">
            <mxPoint x="-219" y="650" as="sourcePoint" />
            <mxPoint x="-169" y="600" as="targetPoint" />
          </mxGeometry>
        </mxCell>
        <mxCell id="u8S5JqaeLCGqhp013BoR-31" value="" style="endArrow=none;html=1;rounded=0;entryX=0;entryY=0.5;entryDx=0;entryDy=0;exitX=0.5;exitY=0;exitDx=0;exitDy=0;strokeColor=#BD7A78;strokeWidth=2;" edge="1" parent="1" source="u8S5JqaeLCGqhp013BoR-19" target="u8S5JqaeLCGqhp013BoR-17">
          <mxGeometry width="50" height="50" relative="1" as="geometry">
            <mxPoint x="-309" y="650" as="sourcePoint" />
            <mxPoint x="-259" y="600" as="targetPoint" />
            <Array as="points">
              <mxPoint x="-79" y="520" />
              <mxPoint x="-179" y="520" />
            </Array>
          </mxGeometry>
        </mxCell>
        <mxCell id="u8S5JqaeLCGqhp013BoR-32" value="" style="endArrow=none;html=1;rounded=0;strokeColor=#BD7A78;strokeWidth=2;" edge="1" parent="1" source="u8S5JqaeLCGqhp013BoR-12" target="u8S5JqaeLCGqhp013BoR-14">
          <mxGeometry width="50" height="50" relative="1" as="geometry">
            <mxPoint x="-535" y="835" as="sourcePoint" />
            <mxPoint x="-439" y="767.5" as="targetPoint" />
            <Array as="points">
              <mxPoint x="-540" y="810" />
              <mxPoint x="-443" y="810" />
            </Array>
          </mxGeometry>
        </mxCell>
        <mxCell id="u8S5JqaeLCGqhp013BoR-33" value="" style="endArrow=none;html=1;rounded=0;exitX=0;exitY=0.5;exitDx=0;exitDy=0;strokeColor=#BD7A78;strokeWidth=2;" edge="1" parent="1" source="u8S5JqaeLCGqhp013BoR-12" target="u8S5JqaeLCGqhp013BoR-11">
          <mxGeometry width="50" height="50" relative="1" as="geometry">
            <mxPoint x="-400" y="810" as="sourcePoint" />
            <mxPoint x="-350" y="760" as="targetPoint" />
          </mxGeometry>
        </mxCell>
        <mxCell id="u8S5JqaeLCGqhp013BoR-34" value="" style="endArrow=none;html=1;rounded=0;exitX=0;exitY=0.5;exitDx=0;exitDy=0;strokeColor=#BD7A78;strokeWidth=2;" edge="1" parent="1" source="u8S5JqaeLCGqhp013BoR-12" target="u8S5JqaeLCGqhp013BoR-10">
          <mxGeometry width="50" height="50" relative="1" as="geometry">
            <mxPoint x="-536" y="835" as="sourcePoint" />
            <mxPoint x="-666" y="770" as="targetPoint" />
            <Array as="points">
              <mxPoint x="-540" y="810" />
              <mxPoint x="-671" y="810" />
            </Array>
          </mxGeometry>
        </mxCell>
        <mxCell id="u8S5JqaeLCGqhp013BoR-39" value="&lt;b style=&quot;font-size: 22px;&quot;&gt;&lt;font style=&quot;font-size: 22px;&quot;&gt;Interfaz de&lt;/font&gt;&lt;/b&gt;&lt;div&gt;&lt;b style=&quot;font-size: 22px; background-color: initial;&quot;&gt;alto nivel&lt;/b&gt;&lt;/div&gt;" style="text;html=1;align=center;verticalAlign=middle;resizable=0;points=[];autosize=1;strokeColor=none;fillColor=none;" vertex="1" parent="1">
          <mxGeometry x="12" y="856" width="130" height="70" as="geometry" />
        </mxCell>
        <mxCell id="u8S5JqaeLCGqhp013BoR-40" value="&lt;span style=&quot;font-size: 22px;&quot;&gt;&lt;b&gt;Lógica algorítmica&lt;/b&gt;&lt;/span&gt;" style="text;html=1;align=center;verticalAlign=middle;resizable=0;points=[];autosize=1;strokeColor=none;fillColor=none;" vertex="1" parent="1">
          <mxGeometry x="-310" y="878.5" width="220" height="40" as="geometry" />
        </mxCell>
        <mxCell id="u8S5JqaeLCGqhp013BoR-41" value="&lt;span style=&quot;font-size: 22px;&quot;&gt;&lt;b&gt;SERVIDOR&lt;/b&gt;&lt;/span&gt;" style="text;html=1;align=center;verticalAlign=middle;resizable=0;points=[];autosize=1;strokeColor=none;fillColor=none;" vertex="1" parent="1">
          <mxGeometry x="-379" y="197" width="140" height="40" as="geometry" />
        </mxCell>
        <mxCell id="u8S5JqaeLCGqhp013BoR-46" value="&lt;span style=&quot;font-size: 22px;&quot;&gt;&lt;b&gt;CLIENTE&lt;/b&gt;&lt;/span&gt;" style="text;html=1;align=center;verticalAlign=middle;resizable=0;points=[];autosize=1;strokeColor=none;fillColor=none;" vertex="1" parent="1">
          <mxGeometry x="-374" y="-58" width="120" height="40" as="geometry" />
        </mxCell>
        <mxCell id="u8S5JqaeLCGqhp013BoR-48" value="&lt;font style=&quot;font-size: 14px;&quot;&gt;&lt;b&gt;Controladores&lt;/b&gt;&lt;/font&gt;" style="whiteSpace=wrap;html=1;align=center;strokeColor=#9999FF;strokeWidth=2;fillColor=#EDF5FF;" vertex="1" parent="1">
          <mxGeometry x="-73" y="31.5" width="166" height="70" as="geometry" />
        </mxCell>
        <mxCell id="u8S5JqaeLCGqhp013BoR-61" style="edgeStyle=orthogonalEdgeStyle;rounded=0;orthogonalLoop=1;jettySize=auto;html=1;entryX=0.75;entryY=0;entryDx=0;entryDy=0;strokeWidth=3;" edge="1" parent="1" source="u8S5JqaeLCGqhp013BoR-51" target="u8S5JqaeLCGqhp013BoR-20">
          <mxGeometry relative="1" as="geometry">
            <Array as="points">
              <mxPoint x="115" y="62" />
            </Array>
          </mxGeometry>
        </mxCell>
        <mxCell id="u8S5JqaeLCGqhp013BoR-51" value="&lt;font style=&quot;font-size: 14px;&quot;&gt;&lt;b&gt;Controladores&lt;/b&gt;&lt;/font&gt;" style="whiteSpace=wrap;html=1;align=center;strokeColor=#9999FF;strokeWidth=2;fillColor=#EDF5FF;" vertex="1" parent="1">
          <mxGeometry x="-80" y="23.5" width="166" height="70" as="geometry" />
        </mxCell>
        <mxCell id="u8S5JqaeLCGqhp013BoR-52" value="" style="whiteSpace=wrap;html=1;align=center;strokeColor=#9999FF;strokeWidth=2;fillColor=#EDF5FF;" vertex="1" parent="1">
          <mxGeometry x="-380.5" y="40" width="166" height="70" as="geometry" />
        </mxCell>
        <mxCell id="u8S5JqaeLCGqhp013BoR-53" value="&lt;font style=&quot;font-size: 14px;&quot;&gt;&lt;b&gt;Controladores&lt;/b&gt;&lt;/font&gt;" style="whiteSpace=wrap;html=1;align=center;strokeColor=#9999FF;strokeWidth=2;fillColor=#EDF5FF;" vertex="1" parent="1">
          <mxGeometry x="-388.5" y="31" width="166" height="70" as="geometry" />
        </mxCell>
        <mxCell id="u8S5JqaeLCGqhp013BoR-63" style="edgeStyle=orthogonalEdgeStyle;rounded=0;orthogonalLoop=1;jettySize=auto;html=1;strokeColor=#6666FF;" edge="1" parent="1" source="u8S5JqaeLCGqhp013BoR-54" target="u8S5JqaeLCGqhp013BoR-51">
          <mxGeometry relative="1" as="geometry" />
        </mxCell>
        <mxCell id="u8S5JqaeLCGqhp013BoR-54" value="&lt;span style=&quot;font-size: 14px;&quot;&gt;&lt;b&gt;Pantallas&lt;/b&gt;&lt;/span&gt;" style="whiteSpace=wrap;html=1;align=center;strokeColor=#9999FF;strokeWidth=2;fillColor=#EDF5FF;" vertex="1" parent="1">
          <mxGeometry x="-395.5" y="23" width="166" height="70" as="geometry" />
        </mxCell>
        <mxCell id="u8S5JqaeLCGqhp013BoR-55" value="" style="whiteSpace=wrap;html=1;align=center;strokeColor=#9999FF;strokeWidth=2;fillColor=#EDF5FF;" vertex="1" parent="1">
          <mxGeometry x="-691" y="30" width="166" height="70" as="geometry" />
        </mxCell>
        <mxCell id="u8S5JqaeLCGqhp013BoR-65" value="" style="whiteSpace=wrap;html=1;align=center;strokeColor=#9999FF;strokeWidth=2;fillColor=#EDF5FF;" vertex="1" parent="1">
          <mxGeometry x="-681" y="40" width="166" height="70" as="geometry" />
        </mxCell>
        <mxCell id="u8S5JqaeLCGqhp013BoR-66" value="&lt;font style=&quot;font-size: 14px;&quot;&gt;&lt;b&gt;Controladores&lt;/b&gt;&lt;/font&gt;" style="whiteSpace=wrap;html=1;align=center;strokeColor=#9999FF;strokeWidth=2;fillColor=#EDF5FF;" vertex="1" parent="1">
          <mxGeometry x="-689" y="31" width="166" height="70" as="geometry" />
        </mxCell>
        <mxCell id="u8S5JqaeLCGqhp013BoR-68" style="edgeStyle=orthogonalEdgeStyle;rounded=0;orthogonalLoop=1;jettySize=auto;html=1;strokeWidth=2;strokeColor=#6666FF;" edge="1" parent="1" source="u8S5JqaeLCGqhp013BoR-67" target="u8S5JqaeLCGqhp013BoR-54">
          <mxGeometry relative="1" as="geometry" />
        </mxCell>
        <mxCell id="u8S5JqaeLCGqhp013BoR-67" value="&lt;span style=&quot;font-size: 14px;&quot;&gt;&lt;b&gt;Componentes&lt;/b&gt;&lt;/span&gt;&lt;div&gt;&lt;span style=&quot;font-size: 14px;&quot;&gt;&lt;b&gt;lógico-gráficos&lt;/b&gt;&lt;/span&gt;&lt;/div&gt;" style="whiteSpace=wrap;html=1;align=center;strokeColor=#9999FF;strokeWidth=2;fillColor=#EDF5FF;" vertex="1" parent="1">
          <mxGeometry x="-696" y="23" width="166" height="70" as="geometry" />
        </mxCell>
      </root>
    </mxGraphModel>
  </diagram>
  <diagram id="MUaRfThFaBsTppcZr39j" name="shap inspired">
    <mxGraphModel dx="1050" dy="617" grid="1" gridSize="10" guides="1" tooltips="1" connect="1" arrows="1" fold="1" page="1" pageScale="1" pageWidth="827" pageHeight="1169" math="0" shadow="0">
      <root>
        <mxCell id="0" />
        <mxCell id="1" parent="0" />
        <mxCell id="TFJsM2XKeY5w7VVBvlkK-3" value="" style="line;strokeWidth=2;html=1;" parent="1" vertex="1">
          <mxGeometry x="70" y="420" width="710" height="10" as="geometry" />
        </mxCell>
        <mxCell id="TFJsM2XKeY5w7VVBvlkK-4" value="" style="endArrow=classic;html=1;rounded=0;strokeWidth=2;" parent="1" edge="1">
          <mxGeometry width="50" height="50" relative="1" as="geometry">
            <mxPoint x="80" y="384" as="sourcePoint" />
            <mxPoint x="80" y="424" as="targetPoint" />
          </mxGeometry>
        </mxCell>
        <mxCell id="oeOo5yVUWWmrvXHps0cV-1" value="&lt;font style=&quot;font-size: 20px;&quot;&gt;0&lt;/font&gt;" style="text;html=1;align=center;verticalAlign=middle;resizable=0;points=[];autosize=1;strokeColor=none;fillColor=none;" parent="1" vertex="1">
          <mxGeometry x="65" y="344" width="30" height="40" as="geometry" />
        </mxCell>
        <mxCell id="oeOo5yVUWWmrvXHps0cV-2" value="" style="endArrow=classic;html=1;rounded=0;strokeWidth=2;" parent="1" edge="1">
          <mxGeometry width="50" height="50" relative="1" as="geometry">
            <mxPoint x="173" y="383.75" as="sourcePoint" />
            <mxPoint x="173" y="423.75" as="targetPoint" />
          </mxGeometry>
        </mxCell>
        <mxCell id="oeOo5yVUWWmrvXHps0cV-3" value="" style="shape=image;verticalLabelPosition=bottom;labelBackgroundColor=default;verticalAlign=top;aspect=fixed;imageAspect=0;image=data:image/svg+xml,PHN2ZyB4bWxuczp4bGluaz0iaHR0cDovL3d3dy53My5vcmcvMTk5OS94bGluayIgeG1sbnM9Imh0dHA6Ly93d3cudzMub3JnLzIwMDAvc3ZnIiB2aWV3Qm94PSItLjkwNDE5NSAtLjMwMTg0OSA0My45MTM2NDcgMTMuNTIyODQ5IiBoZWlnaHQ9IjEzLjUyMjg0OXB0IiB3aWR0aD0iNDMuOTEzNjQ3cHQiIHZlcnNpb249IjEuMSI+JiN4YTs8ZGVmcz4mI3hhOzxwYXRoIGQ9Ik0zLjg4NTQzIDIuOTA1MTA2QzMuODg1NDMgMi44NjkyNCAzLjg4NTQzIDIuODQ1MzMgMy42ODIxOTIgMi42NDIwOTJDMi40ODY2NzUgMS40MzQ2MiAxLjgxNzE4Ni0uNTM3OTgzIDEuODE3MTg2LTIuOTc2ODM3QzEuODE3MTg2LTUuMjk2MTM5IDIuMzc5MDc4LTcuMjkyNjUzIDMuNzY1ODc4LTguNzAzMzYyQzMuODg1NDMtOC44MTA5NTkgMy44ODU0My04LjgzNDg2OSAzLjg4NTQzLTguODcwNzM1QzMuODg1NDMtOC45NDI0NjYgMy44MjU2NTQtOC45NjYzNzYgMy43Nzc4MzMtOC45NjYzNzZDMy42MjI0MTYtOC45NjYzNzYgMi42NDIwOTItOC4xMDU2MDQgMi4wNTYyODktNi45MzM5OThDMS40NDY1NzUtNS43MjY1MjYgMS4xNzE2MDYtNC40NDczMjMgMS4xNzE2MDYtMi45NzY4MzdDMS4xNzE2MDYtMS45MTI4MjcgMS4zMzg5NzktLjQ5MDE2MiAxLjk2MDY0OCAuNzg5MDQxQzIuNjY2MDAyIDIuMjIzNjYxIDMuNjQ2MzI2IDMuMDAwNzQ3IDMuNzc3ODMzIDMuMDAwNzQ3QzMuODI1NjU0IDMuMDAwNzQ3IDMuODg1NDMgMi45NzY4MzcgMy44ODU0MyAyLjkwNTEwNloiIGlkPSJnMS00MCIvPiYjeGE7PHBhdGggZD0iTTMuMzcxMzU3LTIuOTc2ODM3QzMuMzcxMzU3LTMuODg1NDMgMy4yNTE4MDYtNS4zNjc4NyAyLjU4MjMxNi02Ljc1NDY3QzEuODc2OTYxLTguMTg5MjkgLjg5NjYzOC04Ljk2NjM3NiAuNzY1MTMxLTguOTY2Mzc2Qy43MTczMS04Ljk2NjM3NiAuNjU3NTM0LTguOTQyNDY2IC42NTc1MzQtOC44NzA3MzVDLjY1NzUzNC04LjgzNDg2OSAuNjU3NTM0LTguODEwOTU5IC44NjA3NzItOC42MDc3MjFDMi4wNTYyODktNy40MDAyNDkgMi43MjU3NzgtNS40Mjc2NDYgMi43MjU3NzgtMi45ODg3OTJDMi43MjU3NzgtLjY2OTQ4OSAyLjE2Mzg4NSAxLjMyNzAyNCAuNzc3MDg2IDIuNzM3NzMzQy42NTc1MzQgMi44NDUzMyAuNjU3NTM0IDIuODY5MjQgLjY1NzUzNCAyLjkwNTEwNkMuNjU3NTM0IDIuOTc2ODM3IC43MTczMSAzLjAwMDc0NyAuNzY1MTMxIDMuMDAwNzQ3Qy45MjA1NDggMy4wMDA3NDcgMS45MDA4NzIgMi4xMzk5NzUgMi40ODY2NzUgLjk2ODM2OUMzLjA5NjM4OS0uMjUxMDU5IDMuMzcxMzU3LTEuNTQyMjE3IDMuMzcxMzU3LTIuOTc2ODM3WiIgaWQ9ImcxLTQxIi8+JiN4YTs8cGF0aCBkPSJNOC4zMDg4NDItMi43NzM1OTlDOC4zMjA3OTctMi44MDk0NjUgOC4zNTY2NjMtMi44OTMxNTEgOC4zNTY2NjMtMi45NDA5NzFDOC4zNTY2NjMtMy4wMDA3NDcgOC4zMDg4NDItMy4wNjA1MjMgOC4yMzcxMTEtMy4wNjA1MjNDOC4xODkyOS0zLjA2MDUyMyA4LjE2NTM4LTMuMDQ4NTY4IDguMTI5NTE0LTMuMDEyNzAyQzguMTA1NjA0LTMuMDAwNzQ3IDguMTA1NjA0LTIuOTc2ODM3IDcuOTk4MDA3LTIuNzM3NzMzQzcuMjkyNjUzLTEuMDY0MDEgNi43Nzg1OC0uMzQ2NyA0Ljg2NTc1My0uMzQ2N0gzLjEyMDI5OUMyLjk1MjkyNy0uMzQ2NyAyLjkyOTAxNi0uMzQ2NyAyLjg1NzI4NS0uMzU4NjU1QzIuNzI1Nzc4LS4zNzA2MSAyLjcxMzgyMy0uMzk0NTIxIDIuNzEzODIzLS40OTAxNjJDMi43MTM4MjMtLjU3Mzg0OCAyLjczNzczMy0uNjQ1NTc5IDIuNzYxNjQ0LS43NTMxNzZMMy41ODY1NS00LjA1MjgwMkg0Ljc3MDExMkM1LjcwMjYxNS00LjA1MjgwMiA1Ljc3NDM0Ni0zLjg0OTU2NCA1Ljc3NDM0Ni0zLjQ5MDkwOUM1Ljc3NDM0Ni0zLjM3MTM1NyA1Ljc3NDM0Ni0zLjI2Mzc2MSA1LjY5MDY2LTIuOTA1MTA2QzUuNjY2NzUtMi44NTcyODUgNS42NTQ3OTUtMi44MDk0NjUgNS42NTQ3OTUtMi43NzM1OTlDNS42NTQ3OTUtMi42ODk5MTMgNS43MTQ1Ny0yLjY1NDA0NyA1Ljc4NjMwMS0yLjY1NDA0N0M1Ljg5Mzg5OC0yLjY1NDA0NyA1LjkwNTg1My0yLjczNzczMyA1Ljk1MzY3NC0yLjkwNTEwNkw2LjYzNTExOC01LjY3ODcwNUM2LjYzNTExOC01LjczODQ4MSA2LjU4NzI5OC01Ljc5ODI1NyA2LjUxNTU2Ny01Ljc5ODI1N0M2LjQwNzk3LTUuNzk4MjU3IDYuMzk2MDE1LTUuNzUwNDM2IDYuMzQ4MTk0LTUuNTgzMDY0QzYuMTA5MDkxLTQuNjYyNTE2IDUuODY5OTg4LTQuMzk5NTAyIDQuODA1OTc4LTQuMzk5NTAySDMuNjcwMjM3TDQuNDExNDU3LTcuMzQwNDczQzQuNTE5MDU0LTcuNzU4OTA0IDQuNTQyOTY0LTcuNzk0NzcgNS4wMzMxMjYtNy43OTQ3N0g2Ljc0MjcxNUM4LjIxMzItNy43OTQ3NyA4LjUxMjA4LTcuNDAwMjQ5IDguNTEyMDgtNi40OTE2NTZDOC41MTIwOC02LjQ3OTcwMSA4LjUxMjA4LTYuMTQ0OTU2IDguNDY0MjU5LTUuNzUwNDM2QzguNDUyMzA0LTUuNzAyNjE1IDguNDQwMzQ5LTUuNjMwODg0IDguNDQwMzQ5LTUuNjA2OTc0QzguNDQwMzQ5LTUuNTExMzMzIDguNTAwMTI1LTUuNDc1NDY3IDguNTcxODU2LTUuNDc1NDY3QzguNjU1NTQyLTUuNDc1NDY3IDguNzAzMzYyLTUuNTIzMjg4IDguNzI3MjczLTUuNzM4NDgxTDguOTc4MzMxLTcuODMwNjM1QzguOTc4MzMxLTcuODY2NTAxIDkuMDAyMjQyLTcuOTg2MDUyIDkuMDAyMjQyLTguMDA5OTYzQzkuMDAyMjQyLTguMTQxNDY5IDguODk0NjQ1LTguMTQxNDY5IDguNjc5NDUyLTguMTQxNDY5SDIuODQ1MzNDMi42MTgxODItOC4xNDE0NjkgMi40OTg2My04LjE0MTQ2OSAyLjQ5ODYzLTcuOTI2Mjc2QzIuNDk4NjMtNy43OTQ3NyAyLjU4MjMxNi03Ljc5NDc3IDIuNzg1NTU0LTcuNzk0NzdDMy41MjY3NzUtNy43OTQ3NyAzLjUyNjc3NS03LjcxMTA4MyAzLjUyNjc3NS03LjU3OTU3N0MzLjUyNjc3NS03LjUxOTgwMSAzLjUxNDgxOS03LjQ3MTk4IDMuNDc4OTU0LTcuMzQwNDczTDEuODY1MDA2LS44ODQ2ODJDMS43NTc0MS0uNDY2MjUyIDEuNzMzNDk5LS4zNDY3IC44OTY2MzgtLjM0NjdDLjY2OTQ4OS0uMzQ2NyAuNTQ5OTM4LS4zNDY3IC41NDk5MzgtLjEzMTUwN0MuNTQ5OTM4IDAgLjYyMTY2OSAwIC44NjA3NzIgMEg2Ljg2MjI2N0M3LjEyNTI4IDAgNy4xMzcyMzUtLjAxMTk1NSA3LjIyMDkyMi0uMjAzMjM4TDguMzA4ODQyLTIuNzczNTk5WiIgaWQ9ImcwLTY5Ii8+JiN4YTs8cGF0aCBkPSJNNS4zMzIwMDUtNC44MDU5NzhDNS41NzExMDgtNC44MDU5NzggNS42NjY3NS00LjgwNTk3OCA1LjY2Njc1LTUuMDMzMTI2QzUuNjY2NzUtNS4xNTI2NzcgNS41NzExMDgtNS4xNTI2NzcgNS4zNTU5MTUtNS4xNTI2NzdINC4zODc1NDdDNC42MTQ2OTUtNi4zODQwNiA0Ljc4MjA2Ny03LjIzMjg3NyA0Ljg3NzcwOS03LjYxNTQ0MkM0Ljk0OTQ0LTcuOTAyMzY2IDUuMjAwNDk4LTguMTc3MzM1IDUuNTExMzMzLTguMTc3MzM1QzUuNzYyMzkxLTguMTc3MzM1IDYuMDEzNDUtOC4wNjk3MzggNi4xMzMwMDEtNy45NjIxNDJDNS42NjY3NS03LjkxNDMyMSA1LjUyMzI4OC03LjU2NzYyMSA1LjUyMzI4OC03LjM2NDM4NEM1LjUyMzI4OC03LjEyNTI4IDUuNzAyNjE1LTYuOTgxODE4IDUuOTI5NzYzLTYuOTgxODE4QzYuMTY4ODY3LTYuOTgxODE4IDYuNTI3NTIyLTcuMTg1MDU2IDYuNTI3NTIyLTcuNjM5MzUyQzYuNTI3NTIyLTguMTQxNDY5IDYuMDI1NDA1LTguNDE2NDM4IDUuNDk5Mzc3LTguNDE2NDM4QzQuOTg1MzA1LTguNDE2NDM4IDQuNDgzMTg4LTguMDMzODczIDQuMjQ0MDg1LTcuNTY3NjIxQzQuMDI4ODkyLTcuMTQ5MTkxIDMuOTA5MzQtNi43MTg4MDQgMy42MzQzNzEtNS4xNTI2NzdIMi44MzMzNzVDMi42MDYyMjctNS4xNTI2NzcgMi40ODY2NzUtNS4xNTI2NzcgMi40ODY2NzUtNC45Mzc0ODRDMi40ODY2NzUtNC44MDU5NzggMi41NTg0MDYtNC44MDU5NzggMi43OTc1MDktNC44MDU5NzhIMy41NjI2NEMzLjM0NzQ0Ny0zLjY5NDE0NyAyLjg1NzI4NS0uOTkyMjc5IDIuNTgyMzE2IC4yODY5MjRDMi4zNzkwNzggMS4zMjcwMjQgMi4xOTk3NTEgMi4xOTk3NTEgMS42MDE5OTMgMi4xOTk3NTFDMS41NjYxMjcgMi4xOTk3NTEgMS4yMTk0MjcgMi4xOTk3NTEgMS4wMDQyMzQgMS45NzI2MDNDMS42MTM5NDggMS45MjQ3ODIgMS42MTM5NDggMS4zOTg3NTUgMS42MTM5NDggMS4zODY4QzEuNjEzOTQ4IDEuMTQ3Njk2IDEuNDM0NjIgMS4wMDQyMzQgMS4yMDc0NzIgMS4wMDQyMzRDLjk2ODM2OSAxLjAwNDIzNCAuNjA5NzE0IDEuMjA3NDcyIC42MDk3MTQgMS42NjE3NjhDLjYwOTcxNCAyLjE3NTg0MSAxLjEzNTc0MSAyLjQzODg1NCAxLjYwMTk5MyAyLjQzODg1NEMyLjgyMTQyIDIuNDM4ODU0IDMuMzIzNTM3IC4yNTEwNTkgMy40NTUwNDQtLjM0NjdDMy42NzAyMzctMS4yNjcyNDggNC4yNTYwNC00LjQ0NzMyMyA0LjMxNTgxNi00LjgwNTk3OEg1LjMzMjAwNVoiIGlkPSJnMC0xMDIiLz4mI3hhOzxwYXRoIGQ9Ik0xLjUxODMwNi0uOTY4MzY5QzIuMDMyMzc5LTEuNTU0MTcyIDIuNDUwODA5LTEuOTI0NzgyIDMuMDQ4NTY4LTIuNDYyNzY1QzMuNzY1ODc4LTMuMDg0NDMzIDQuMDc2NzEyLTMuMzgzMzEzIDQuMjQ0MDg1LTMuNTYyNjRDNS4wODA5NDYtNC4zODc1NDcgNS40OTkzNzctNS4wODA5NDYgNS40OTkzNzctNS4xNzY1ODhTNS40MDM3MzYtNS4yNzIyMjkgNS4zNzk4MjYtNS4yNzIyMjlDNS4yOTYxMzktNS4yNzIyMjkgNS4yNzIyMjktNS4yMjQ0MDggNS4yMTI0NTMtNS4xNDA3MjJDNC45MTM1NzQtNC42MjY2NSA0LjYyNjY1LTQuMzc1NTkyIDQuMzE1ODE2LTQuMzc1NTkyQzQuMDY0NzU3LTQuMzc1NTkyIDMuOTMzMjUtNC40ODMxODggMy43MDYxMDItNC43NzAxMTJDMy40NTUwNDQtNS4wNjg5OTEgMy4yNTE4MDYtNS4yNzIyMjkgMi45MDUxMDYtNS4yNzIyMjlDMi4wMzIzNzktNS4yNzIyMjkgMS41MDYzNTEtNC4xODQzMDkgMS41MDYzNTEtMy45MzMyNUMxLjUwNjM1MS0zLjg5NzM4NSAxLjUxODMwNi0zLjgyNTY1NCAxLjYyNTkwMy0zLjgyNTY1NEMxLjcyMTU0NC0zLjgyNTY1NCAxLjczMzQ5OS0zLjg3MzQ3NCAxLjc2OTM2NS0zLjk1NzE2MUMxLjk3MjYwMy00LjQzNTM2NyAyLjU0NjQ1MS00LjUxOTA1NCAyLjc3MzU5OS00LjUxOTA1NEMzLjAyNDY1OC00LjUxOTA1NCAzLjI2Mzc2MS00LjQzNTM2NyAzLjUxNDgxOS00LjMyNzc3MUMzLjk2OTExNi00LjEzNjQ4OCA0LjE2MDM5OS00LjEzNjQ4OCA0LjI3OTk1LTQuMTM2NDg4QzQuMzYzNjM2LTQuMTM2NDg4IDQuNDExNDU3LTQuMTM2NDg4IDQuNDcxMjMzLTQuMTQ4NDQzQzQuMDc2NzEyLTMuNjgyMTkyIDMuNDMxMTMzLTMuMTA4MzQ0IDIuODkzMTUxLTIuNjE4MTgyTDEuNjg1Njc5LTEuNTA2MzUxQy45NTY0MTMtLjc2NTEzMSAuNTE0MDcyLS4wNTk3NzYgLjUxNDA3MiAuMDIzOTFDLjUxNDA3MiAuMDk1NjQxIC41NzM4NDggLjExOTU1MiAuNjQ1NTc5IC4xMTk1NTJTLjcyOTI2NSAuMTA3NTk3IC44MTI5NTEtLjAzNTg2NkMxLjAwNDIzNC0uMzM0NzQ1IDEuMzg2OC0uNzc3MDg2IDEuODI5MTQxLS43NzcwODZDMi4wODAxOTktLjc3NzA4NiAyLjE5OTc1MS0uNjkzNCAyLjQzODg1NC0uMzk0NTIxQzIuNjY2MDAyLS4xMzE1MDcgMi44NjkyNCAuMTE5NTUyIDMuMjUxODA2IC4xMTk1NTJDNC40MjM0MTIgLjExOTU1MiA1LjA5MjkwMi0xLjM5ODc1NSA1LjA5MjkwMi0xLjY3MzcyNEM1LjA5MjkwMi0xLjcyMTU0NCA1LjA4MDk0Ni0xLjc5MzI3NSA0Ljk2MTM5NS0xLjc5MzI3NUM0Ljg2NTc1My0xLjc5MzI3NSA0Ljg1Mzc5OC0xLjc0NTQ1NSA0LjgxNzkzMy0xLjYyNTkwM0M0LjU1NDkxOS0uOTIwNTQ4IDMuODQ5NTY0LS42MzM2MjQgMy4zODMzMTMtLjYzMzYyNEMzLjEzMjI1NC0uNjMzNjI0IDIuODkzMTUxLS43MTczMSAyLjY0MjA5Mi0uODI0OTA3QzIuMTYzODg1LTEuMDE2MTg5IDIuMDMyMzc5LTEuMDE2MTg5IDEuODc2OTYxLTEuMDE2MTg5QzEuNzU3NDEtMS4wMTYxODkgMS42MjU5MDMtMS4wMTYxODkgMS41MTgzMDYtLjk2ODM2OVoiIGlkPSJnMC0xMjIiLz4mI3hhOzwvZGVmcz4mI3hhOzxnIHRyYW5zZm9ybT0ibWF0cml4KDEuMTMgMCAwIDEuMTMgLTI0Mi4wMjI5NzYgLTgwLjc5NSkiIGlkPSJwYWdlMSI+JiN4YTs8dXNlIHhsaW5rOmhyZWY9IiNnMC02OSIgeT0iODAuMTk5MjUzIiB4PSIyMTIuODI5NTE0Ii8+JiN4YTs8dXNlIHhsaW5rOmhyZWY9IiNnMS00MCIgeT0iODAuMTk5MjUzIiB4PSIyMjIuMTk1NzA4Ii8+JiN4YTs8dXNlIHhsaW5rOmhyZWY9IiNnMC0xMDIiIHk9IjgwLjE5OTI1MyIgeD0iMjI2Ljc0ODAzNCIvPiYjeGE7PHVzZSB4bGluazpocmVmPSIjZzEtNDAiIHk9IjgwLjE5OTI1MyIgeD0iMjMzLjc5NDQ3MSIvPiYjeGE7PHVzZSB4bGluazpocmVmPSIjZzAtMTIyIiB5PSI4MC4xOTkyNTMiIHg9IjIzOC4zNDY3OTYiLz4mI3hhOzx1c2UgeGxpbms6aHJlZj0iI2cxLTQxIiB5PSI4MC4xOTkyNTMiIHg9IjI0NC4zMTc0MDMiLz4mI3hhOzx1c2UgeGxpbms6aHJlZj0iI2cxLTQxIiB5PSI4MC4xOTkyNTMiIHg9IjI0OC44Njk3MjgiLz4mI3hhOzwvZz4mI3hhOzwvc3ZnPg==;" parent="1" vertex="1">
          <mxGeometry x="143" y="354.75" width="62.86" height="20" as="geometry" />
        </mxCell>
        <mxCell id="oeOo5yVUWWmrvXHps0cV-5" value="" style="endArrow=classic;html=1;rounded=0;strokeWidth=2;" parent="1" edge="1">
          <mxGeometry width="50" height="50" relative="1" as="geometry">
            <mxPoint x="627.07" y="384" as="sourcePoint" />
            <mxPoint x="627.07" y="424" as="targetPoint" />
          </mxGeometry>
        </mxCell>
        <mxCell id="oeOo5yVUWWmrvXHps0cV-6" value="" style="endArrow=classic;html=1;rounded=0;strokeWidth=2;" parent="1" edge="1">
          <mxGeometry width="50" height="50" relative="1" as="geometry">
            <mxPoint x="700" y="384" as="sourcePoint" />
            <mxPoint x="700" y="424" as="targetPoint" />
          </mxGeometry>
        </mxCell>
        <mxCell id="oeOo5yVUWWmrvXHps0cV-7" value="" style="endArrow=classic;html=1;rounded=0;strokeWidth=2;" parent="1" edge="1">
          <mxGeometry width="50" height="50" relative="1" as="geometry">
            <mxPoint x="309.36" y="383.75" as="sourcePoint" />
            <mxPoint x="309.36" y="423.75" as="targetPoint" />
          </mxGeometry>
        </mxCell>
        <mxCell id="oeOo5yVUWWmrvXHps0cV-8" value="" style="shape=image;verticalLabelPosition=bottom;labelBackgroundColor=default;verticalAlign=top;aspect=fixed;imageAspect=0;image=data:image/svg+xml,PHN2ZyB4bWxuczp4bGluaz0iaHR0cDovL3d3dy53My5vcmcvMTk5OS94bGluayIgeG1sbnM9Imh0dHA6Ly93d3cudzMub3JnLzIwMDAvc3ZnIiB2aWV3Qm94PSItLjgxODEyOCAtLjMwMTg0OSA4OS44MTYyODkgMTMuNTIyODQ5IiBoZWlnaHQ9IjEzLjUyMjg0OXB0IiB3aWR0aD0iODkuODE2Mjg5cHQiIHZlcnNpb249IjEuMSI+JiN4YTs8ZGVmcz4mI3hhOzxwYXRoIGQ9Ik0yLjUwMjYxNS01LjA3Njk2MUMyLjUwMjYxNS01LjI5MjE1NCAyLjQ4NjY3NS01LjMwMDEyNSAyLjI3MTQ4Mi01LjMwMDEyNUMxLjk0NDcwNy00Ljk4MTMyIDEuNTIyMjkxLTQuNzkwMDM3IC43NjUxMzEtNC43OTAwMzdWLTQuNTI3MDI0Qy45ODAzMjQtNC41MjcwMjQgMS40MTA3MS00LjUyNzAyNCAxLjg3Mjk3Ni00Ljc0MjIxN1YtLjY1MzU0OUMxLjg3Mjk3Ni0uMzU4NjU1IDEuODQ5MDY2LS4yNjMwMTQgMS4wOTE5MDUtLjI2MzAxNEguODEyOTUxVjBDMS4xMzk3MjYtLjAyMzkxIDEuODI1MTU2LS4wMjM5MSAyLjE4MzgxMS0uMDIzOTFTMy4yMzU4NjYtLjAyMzkxIDMuNTYyNjQgMFYtLjI2MzAxNEgzLjI4MzY4NkMyLjUyNjUyNi0uMjYzMDE0IDIuNTAyNjE1LS4zNTg2NTUgMi41MDI2MTUtLjY1MzU0OVYtNS4wNzY5NjFaIiBpZD0iZzItNDkiLz4mI3hhOzxwYXRoIGQ9Ik0zLjg4NTQzIDIuOTA1MTA2QzMuODg1NDMgMi44NjkyNCAzLjg4NTQzIDIuODQ1MzMgMy42ODIxOTIgMi42NDIwOTJDMi40ODY2NzUgMS40MzQ2MiAxLjgxNzE4Ni0uNTM3OTgzIDEuODE3MTg2LTIuOTc2ODM3QzEuODE3MTg2LTUuMjk2MTM5IDIuMzc5MDc4LTcuMjkyNjUzIDMuNzY1ODc4LTguNzAzMzYyQzMuODg1NDMtOC44MTA5NTkgMy44ODU0My04LjgzNDg2OSAzLjg4NTQzLTguODcwNzM1QzMuODg1NDMtOC45NDI0NjYgMy44MjU2NTQtOC45NjYzNzYgMy43Nzc4MzMtOC45NjYzNzZDMy42MjI0MTYtOC45NjYzNzYgMi42NDIwOTItOC4xMDU2MDQgMi4wNTYyODktNi45MzM5OThDMS40NDY1NzUtNS43MjY1MjYgMS4xNzE2MDYtNC40NDczMjMgMS4xNzE2MDYtMi45NzY4MzdDMS4xNzE2MDYtMS45MTI4MjcgMS4zMzg5NzktLjQ5MDE2MiAxLjk2MDY0OCAuNzg5MDQxQzIuNjY2MDAyIDIuMjIzNjYxIDMuNjQ2MzI2IDMuMDAwNzQ3IDMuNzc3ODMzIDMuMDAwNzQ3QzMuODI1NjU0IDMuMDAwNzQ3IDMuODg1NDMgMi45NzY4MzcgMy44ODU0MyAyLjkwNTEwNloiIGlkPSJnMy00MCIvPiYjeGE7PHBhdGggZD0iTTMuMzcxMzU3LTIuOTc2ODM3QzMuMzcxMzU3LTMuODg1NDMgMy4yNTE4MDYtNS4zNjc4NyAyLjU4MjMxNi02Ljc1NDY3QzEuODc2OTYxLTguMTg5MjkgLjg5NjYzOC04Ljk2NjM3NiAuNzY1MTMxLTguOTY2Mzc2Qy43MTczMS04Ljk2NjM3NiAuNjU3NTM0LTguOTQyNDY2IC42NTc1MzQtOC44NzA3MzVDLjY1NzUzNC04LjgzNDg2OSAuNjU3NTM0LTguODEwOTU5IC44NjA3NzItOC42MDc3MjFDMi4wNTYyODktNy40MDAyNDkgMi43MjU3NzgtNS40Mjc2NDYgMi43MjU3NzgtMi45ODg3OTJDMi43MjU3NzgtLjY2OTQ4OSAyLjE2Mzg4NSAxLjMyNzAyNCAuNzc3MDg2IDIuNzM3NzMzQy42NTc1MzQgMi44NDUzMyAuNjU3NTM0IDIuODY5MjQgLjY1NzUzNCAyLjkwNTEwNkMuNjU3NTM0IDIuOTc2ODM3IC43MTczMSAzLjAwMDc0NyAuNzY1MTMxIDMuMDAwNzQ3Qy45MjA1NDggMy4wMDA3NDcgMS45MDA4NzIgMi4xMzk5NzUgMi40ODY2NzUgLjk2ODM2OUMzLjA5NjM4OS0uMjUxMDU5IDMuMzcxMzU3LTEuNTQyMjE3IDMuMzcxMzU3LTIuOTc2ODM3WiIgaWQ9ImczLTQxIi8+JiN4YTs8cGF0aCBkPSJNOC4wNjk3MzgtMy44NzM0NzRDOC4yMzcxMTEtMy44NzM0NzQgOC40NTIzMDQtMy44NzM0NzQgOC40NTIzMDQtNC4wODg2NjdDOC40NTIzMDQtNC4zMTU4MTYgOC4yNDkwNjYtNC4zMTU4MTYgOC4wNjk3MzgtNC4zMTU4MTZIMS4wMjgxNDRDLjg2MDc3Mi00LjMxNTgxNiAuNjQ1NTc5LTQuMzE1ODE2IC42NDU1NzktNC4xMDA2MjNDLjY0NTU3OS0zLjg3MzQ3NCAuODQ4ODE3LTMuODczNDc0IDEuMDI4MTQ0LTMuODczNDc0SDguMDY5NzM4Wk04LjA2OTczOC0xLjY0OTgxM0M4LjIzNzExMS0xLjY0OTgxMyA4LjQ1MjMwNC0xLjY0OTgxMyA4LjQ1MjMwNC0xLjg2NTAwNkM4LjQ1MjMwNC0yLjA5MjE1NCA4LjI0OTA2Ni0yLjA5MjE1NCA4LjA2OTczOC0yLjA5MjE1NEgxLjAyODE0NEMuODYwNzcyLTIuMDkyMTU0IC42NDU1NzktMi4wOTIxNTQgLjY0NTU3OS0xLjg3Njk2MUMuNjQ1NTc5LTEuNjQ5ODEzIC44NDg4MTctMS42NDk4MTMgMS4wMjgxNDQtMS42NDk4MTNIOC4wNjk3MzhaIiBpZD0iZzMtNjEiLz4mI3hhOzxwYXRoIGQ9Ik0xLjkwMDg3Mi04LjUzNTk5QzEuOTAwODcyLTguNzUxMTgzIDEuOTAwODcyLTguOTY2Mzc2IDEuNjYxNzY4LTguOTY2Mzc2UzEuNDIyNjY1LTguNzUxMTgzIDEuNDIyNjY1LTguNTM1OTlWMi41NTg0MDZDMS40MjI2NjUgMi43NzM1OTkgMS40MjI2NjUgMi45ODg3OTIgMS42NjE3NjggMi45ODg3OTJTMS45MDA4NzIgMi43NzM1OTkgMS45MDA4NzIgMi41NTg0MDZWLTguNTM1OTlaIiBpZD0iZzAtMTA2Ii8+JiN4YTs8cGF0aCBkPSJNOC4zMDg4NDItMi43NzM1OTlDOC4zMjA3OTctMi44MDk0NjUgOC4zNTY2NjMtMi44OTMxNTEgOC4zNTY2NjMtMi45NDA5NzFDOC4zNTY2NjMtMy4wMDA3NDcgOC4zMDg4NDItMy4wNjA1MjMgOC4yMzcxMTEtMy4wNjA1MjNDOC4xODkyOS0zLjA2MDUyMyA4LjE2NTM4LTMuMDQ4NTY4IDguMTI5NTE0LTMuMDEyNzAyQzguMTA1NjA0LTMuMDAwNzQ3IDguMTA1NjA0LTIuOTc2ODM3IDcuOTk4MDA3LTIuNzM3NzMzQzcuMjkyNjUzLTEuMDY0MDEgNi43Nzg1OC0uMzQ2NyA0Ljg2NTc1My0uMzQ2N0gzLjEyMDI5OUMyLjk1MjkyNy0uMzQ2NyAyLjkyOTAxNi0uMzQ2NyAyLjg1NzI4NS0uMzU4NjU1QzIuNzI1Nzc4LS4zNzA2MSAyLjcxMzgyMy0uMzk0NTIxIDIuNzEzODIzLS40OTAxNjJDMi43MTM4MjMtLjU3Mzg0OCAyLjczNzczMy0uNjQ1NTc5IDIuNzYxNjQ0LS43NTMxNzZMMy41ODY1NS00LjA1MjgwMkg0Ljc3MDExMkM1LjcwMjYxNS00LjA1MjgwMiA1Ljc3NDM0Ni0zLjg0OTU2NCA1Ljc3NDM0Ni0zLjQ5MDkwOUM1Ljc3NDM0Ni0zLjM3MTM1NyA1Ljc3NDM0Ni0zLjI2Mzc2MSA1LjY5MDY2LTIuOTA1MTA2QzUuNjY2NzUtMi44NTcyODUgNS42NTQ3OTUtMi44MDk0NjUgNS42NTQ3OTUtMi43NzM1OTlDNS42NTQ3OTUtMi42ODk5MTMgNS43MTQ1Ny0yLjY1NDA0NyA1Ljc4NjMwMS0yLjY1NDA0N0M1Ljg5Mzg5OC0yLjY1NDA0NyA1LjkwNTg1My0yLjczNzczMyA1Ljk1MzY3NC0yLjkwNTEwNkw2LjYzNTExOC01LjY3ODcwNUM2LjYzNTExOC01LjczODQ4MSA2LjU4NzI5OC01Ljc5ODI1NyA2LjUxNTU2Ny01Ljc5ODI1N0M2LjQwNzk3LTUuNzk4MjU3IDYuMzk2MDE1LTUuNzUwNDM2IDYuMzQ4MTk0LTUuNTgzMDY0QzYuMTA5MDkxLTQuNjYyNTE2IDUuODY5OTg4LTQuMzk5NTAyIDQuODA1OTc4LTQuMzk5NTAySDMuNjcwMjM3TDQuNDExNDU3LTcuMzQwNDczQzQuNTE5MDU0LTcuNzU4OTA0IDQuNTQyOTY0LTcuNzk0NzcgNS4wMzMxMjYtNy43OTQ3N0g2Ljc0MjcxNUM4LjIxMzItNy43OTQ3NyA4LjUxMjA4LTcuNDAwMjQ5IDguNTEyMDgtNi40OTE2NTZDOC41MTIwOC02LjQ3OTcwMSA4LjUxMjA4LTYuMTQ0OTU2IDguNDY0MjU5LTUuNzUwNDM2QzguNDUyMzA0LTUuNzAyNjE1IDguNDQwMzQ5LTUuNjMwODg0IDguNDQwMzQ5LTUuNjA2OTc0QzguNDQwMzQ5LTUuNTExMzMzIDguNTAwMTI1LTUuNDc1NDY3IDguNTcxODU2LTUuNDc1NDY3QzguNjU1NTQyLTUuNDc1NDY3IDguNzAzMzYyLTUuNTIzMjg4IDguNzI3MjczLTUuNzM4NDgxTDguOTc4MzMxLTcuODMwNjM1QzguOTc4MzMxLTcuODY2NTAxIDkuMDAyMjQyLTcuOTg2MDUyIDkuMDAyMjQyLTguMDA5OTYzQzkuMDAyMjQyLTguMTQxNDY5IDguODk0NjQ1LTguMTQxNDY5IDguNjc5NDUyLTguMTQxNDY5SDIuODQ1MzNDMi42MTgxODItOC4xNDE0NjkgMi40OTg2My04LjE0MTQ2OSAyLjQ5ODYzLTcuOTI2Mjc2QzIuNDk4NjMtNy43OTQ3NyAyLjU4MjMxNi03Ljc5NDc3IDIuNzg1NTU0LTcuNzk0NzdDMy41MjY3NzUtNy43OTQ3NyAzLjUyNjc3NS03LjcxMTA4MyAzLjUyNjc3NS03LjU3OTU3N0MzLjUyNjc3NS03LjUxOTgwMSAzLjUxNDgxOS03LjQ3MTk4IDMuNDc4OTU0LTcuMzQwNDczTDEuODY1MDA2LS44ODQ2ODJDMS43NTc0MS0uNDY2MjUyIDEuNzMzNDk5LS4zNDY3IC44OTY2MzgtLjM0NjdDLjY2OTQ4OS0uMzQ2NyAuNTQ5OTM4LS4zNDY3IC41NDk5MzgtLjEzMTUwN0MuNTQ5OTM4IDAgLjYyMTY2OSAwIC44NjA3NzIgMEg2Ljg2MjI2N0M3LjEyNTI4IDAgNy4xMzcyMzUtLjAxMTk1NSA3LjIyMDkyMi0uMjAzMjM4TDguMzA4ODQyLTIuNzczNTk5WiIgaWQ9ImcxLTY5Ii8+JiN4YTs8cGF0aCBkPSJNNS4zMzIwMDUtNC44MDU5NzhDNS41NzExMDgtNC44MDU5NzggNS42NjY3NS00LjgwNTk3OCA1LjY2Njc1LTUuMDMzMTI2QzUuNjY2NzUtNS4xNTI2NzcgNS41NzExMDgtNS4xNTI2NzcgNS4zNTU5MTUtNS4xNTI2NzdINC4zODc1NDdDNC42MTQ2OTUtNi4zODQwNiA0Ljc4MjA2Ny03LjIzMjg3NyA0Ljg3NzcwOS03LjYxNTQ0MkM0Ljk0OTQ0LTcuOTAyMzY2IDUuMjAwNDk4LTguMTc3MzM1IDUuNTExMzMzLTguMTc3MzM1QzUuNzYyMzkxLTguMTc3MzM1IDYuMDEzNDUtOC4wNjk3MzggNi4xMzMwMDEtNy45NjIxNDJDNS42NjY3NS03LjkxNDMyMSA1LjUyMzI4OC03LjU2NzYyMSA1LjUyMzI4OC03LjM2NDM4NEM1LjUyMzI4OC03LjEyNTI4IDUuNzAyNjE1LTYuOTgxODE4IDUuOTI5NzYzLTYuOTgxODE4QzYuMTY4ODY3LTYuOTgxODE4IDYuNTI3NTIyLTcuMTg1MDU2IDYuNTI3NTIyLTcuNjM5MzUyQzYuNTI3NTIyLTguMTQxNDY5IDYuMDI1NDA1LTguNDE2NDM4IDUuNDk5Mzc3LTguNDE2NDM4QzQuOTg1MzA1LTguNDE2NDM4IDQuNDgzMTg4LTguMDMzODczIDQuMjQ0MDg1LTcuNTY3NjIxQzQuMDI4ODkyLTcuMTQ5MTkxIDMuOTA5MzQtNi43MTg4MDQgMy42MzQzNzEtNS4xNTI2NzdIMi44MzMzNzVDMi42MDYyMjctNS4xNTI2NzcgMi40ODY2NzUtNS4xNTI2NzcgMi40ODY2NzUtNC45Mzc0ODRDMi40ODY2NzUtNC44MDU5NzggMi41NTg0MDYtNC44MDU5NzggMi43OTc1MDktNC44MDU5NzhIMy41NjI2NEMzLjM0NzQ0Ny0zLjY5NDE0NyAyLjg1NzI4NS0uOTkyMjc5IDIuNTgyMzE2IC4yODY5MjRDMi4zNzkwNzggMS4zMjcwMjQgMi4xOTk3NTEgMi4xOTk3NTEgMS42MDE5OTMgMi4xOTk3NTFDMS41NjYxMjcgMi4xOTk3NTEgMS4yMTk0MjcgMi4xOTk3NTEgMS4wMDQyMzQgMS45NzI2MDNDMS42MTM5NDggMS45MjQ3ODIgMS42MTM5NDggMS4zOTg3NTUgMS42MTM5NDggMS4zODY4QzEuNjEzOTQ4IDEuMTQ3Njk2IDEuNDM0NjIgMS4wMDQyMzQgMS4yMDc0NzIgMS4wMDQyMzRDLjk2ODM2OSAxLjAwNDIzNCAuNjA5NzE0IDEuMjA3NDcyIC42MDk3MTQgMS42NjE3NjhDLjYwOTcxNCAyLjE3NTg0MSAxLjEzNTc0MSAyLjQzODg1NCAxLjYwMTk5MyAyLjQzODg1NEMyLjgyMTQyIDIuNDM4ODU0IDMuMzIzNTM3IC4yNTEwNTkgMy40NTUwNDQtLjM0NjdDMy42NzAyMzctMS4yNjcyNDggNC4yNTYwNC00LjQ0NzMyMyA0LjMxNTgxNi00LjgwNTk3OEg1LjMzMjAwNVoiIGlkPSJnMS0xMDIiLz4mI3hhOzxwYXRoIGQ9Ik01LjY2Njc1LTQuODc3NzA5QzUuMjg0MTg0LTQuODA1OTc4IDUuMTQwNzIyLTQuNTE5MDU0IDUuMTQwNzIyLTQuMjkxOTA1QzUuMTQwNzIyLTQuMDA0OTgxIDUuMzY3ODctMy45MDkzNCA1LjUzNTI0My0zLjkwOTM0QzUuODkzODk4LTMuOTA5MzQgNi4xNDQ5NTYtNC4yMjAxNzQgNi4xNDQ5NTYtNC41NDI5NjRDNi4xNDQ5NTYtNS4wNDUwODEgNS41NzExMDgtNS4yNzIyMjkgNS4wNjg5OTEtNS4yNzIyMjlDNC4zMzk3MjYtNS4yNzIyMjkgMy45MzMyNS00LjU1NDkxOSAzLjgyNTY1NC00LjMyNzc3MUMzLjU1MDY4NS01LjIyNDQwOCAyLjgwOTQ2NS01LjI3MjIyOSAyLjU5NDI3MS01LjI3MjIyOUMxLjM3NDg0NC01LjI3MjIyOSAuNzI5MjY1LTMuNzA2MTAyIC43MjkyNjUtMy40NDMwODhDLjcyOTI2NS0zLjM5NTI2OCAuNzc3MDg2LTMuMzM1NDkyIC44NjA3NzItMy4zMzU0OTJDLjk1NjQxMy0zLjMzNTQ5MiAuOTgwMzI0LTMuNDA3MjIzIDEuMDA0MjM0LTMuNDU1MDQ0QzEuNDEwNzEtNC43ODIwNjcgMi4yMTE3MDYtNS4wMzMxMjYgMi41NTg0MDYtNS4wMzMxMjZDMy4wOTYzODktNS4wMzMxMjYgMy4yMDM5ODUtNC41MzEwMDkgMy4yMDM5ODUtNC4yNDQwODVDMy4yMDM5ODUtMy45ODEwNzEgMy4xMzIyNTQtMy43MDYxMDIgMi45ODg3OTItMy4xMzIyNTRMMi41ODIzMTYtMS40OTQzOTZDMi40MDI5ODktLjc3NzA4NiAyLjA1NjI4OS0uMTE5NTUyIDEuNDIyNjY1LS4xMTk1NTJDMS4zNjI4ODktLjExOTU1MiAxLjA2NDAxLS4xMTk1NTIgLjgxMjk1MS0uMjc0OTY5QzEuMjQzMzM3LS4zNTg2NTUgMS4zMzg5NzktLjcxNzMxIDEuMzM4OTc5LS44NjA3NzJDMS4zMzg5NzktMS4wOTk4NzUgMS4xNTk2NTEtMS4yNDMzMzcgLjkzMjUwMy0xLjI0MzMzN0MuNjQ1NTc5LTEuMjQzMzM3IC4zMzQ3NDUtLjk5MjI3OSAuMzM0NzQ1LS42MDk3MTRDLjMzNDc0NS0uMTA3NTk3IC44OTY2MzggLjExOTU1MiAxLjQxMDcxIC4xMTk1NTJDMS45ODQ1NTggLjExOTU1MiAyLjM5MTAzNC0uMzM0NzQ1IDIuNjQyMDkyLS44MjQ5MDdDMi44MzMzNzUtLjExOTU1MiAzLjQzMTEzMyAuMTE5NTUyIDMuODczNDc0IC4xMTk1NTJDNS4wOTI5MDIgLjExOTU1MiA1LjczODQ4MS0xLjQ0NjU3NSA1LjczODQ4MS0xLjcwOTU4OUM1LjczODQ4MS0xLjc2OTM2NSA1LjY5MDY2LTEuODE3MTg2IDUuNjE4OTI5LTEuODE3MTg2QzUuNTExMzMzLTEuODE3MTg2IDUuNDk5Mzc3LTEuNzU3NDEgNS40NjM1MTItMS42NjE3NjhDNS4xNDA3MjItLjYwOTcxNCA0LjQ0NzMyMy0uMTE5NTUyIDMuOTA5MzQtLjExOTU1MkMzLjQ5MDkwOS0uMTE5NTUyIDMuMjYzNzYxLS40MzAzODYgMy4yNjM3NjEtLjkyMDU0OEMzLjI2Mzc2MS0xLjE4MzU2MiAzLjMxMTU4Mi0xLjM3NDg0NCAzLjUwMjg2NC0yLjE2Mzg4NUwzLjkyMTI5NS0zLjc4OTc4OEM0LjEwMDYyMy00LjUwNzA5OCA0LjUwNzA5OC01LjAzMzEyNiA1LjA1NzAzNi01LjAzMzEyNkM1LjA4MDk0Ni01LjAzMzEyNiA1LjQxNTY5MS01LjAzMzEyNiA1LjY2Njc1LTQuODc3NzA5WiIgaWQ9ImcxLTEyMCIvPiYjeGE7PHBhdGggZD0iTTEuNTE4MzA2LS45NjgzNjlDMi4wMzIzNzktMS41NTQxNzIgMi40NTA4MDktMS45MjQ3ODIgMy4wNDg1NjgtMi40NjI3NjVDMy43NjU4NzgtMy4wODQ0MzMgNC4wNzY3MTItMy4zODMzMTMgNC4yNDQwODUtMy41NjI2NEM1LjA4MDk0Ni00LjM4NzU0NyA1LjQ5OTM3Ny01LjA4MDk0NiA1LjQ5OTM3Ny01LjE3NjU4OFM1LjQwMzczNi01LjI3MjIyOSA1LjM3OTgyNi01LjI3MjIyOUM1LjI5NjEzOS01LjI3MjIyOSA1LjI3MjIyOS01LjIyNDQwOCA1LjIxMjQ1My01LjE0MDcyMkM0LjkxMzU3NC00LjYyNjY1IDQuNjI2NjUtNC4zNzU1OTIgNC4zMTU4MTYtNC4zNzU1OTJDNC4wNjQ3NTctNC4zNzU1OTIgMy45MzMyNS00LjQ4MzE4OCAzLjcwNjEwMi00Ljc3MDExMkMzLjQ1NTA0NC01LjA2ODk5MSAzLjI1MTgwNi01LjI3MjIyOSAyLjkwNTEwNi01LjI3MjIyOUMyLjAzMjM3OS01LjI3MjIyOSAxLjUwNjM1MS00LjE4NDMwOSAxLjUwNjM1MS0zLjkzMzI1QzEuNTA2MzUxLTMuODk3Mzg1IDEuNTE4MzA2LTMuODI1NjU0IDEuNjI1OTAzLTMuODI1NjU0QzEuNzIxNTQ0LTMuODI1NjU0IDEuNzMzNDk5LTMuODczNDc0IDEuNzY5MzY1LTMuOTU3MTYxQzEuOTcyNjAzLTQuNDM1MzY3IDIuNTQ2NDUxLTQuNTE5MDU0IDIuNzczNTk5LTQuNTE5MDU0QzMuMDI0NjU4LTQuNTE5MDU0IDMuMjYzNzYxLTQuNDM1MzY3IDMuNTE0ODE5LTQuMzI3NzcxQzMuOTY5MTE2LTQuMTM2NDg4IDQuMTYwMzk5LTQuMTM2NDg4IDQuMjc5OTUtNC4xMzY0ODhDNC4zNjM2MzYtNC4xMzY0ODggNC40MTE0NTctNC4xMzY0ODggNC40NzEyMzMtNC4xNDg0NDNDNC4wNzY3MTItMy42ODIxOTIgMy40MzExMzMtMy4xMDgzNDQgMi44OTMxNTEtMi42MTgxODJMMS42ODU2NzktMS41MDYzNTFDLjk1NjQxMy0uNzY1MTMxIC41MTQwNzItLjA1OTc3NiAuNTE0MDcyIC4wMjM5MUMuNTE0MDcyIC4wOTU2NDEgLjU3Mzg0OCAuMTE5NTUyIC42NDU1NzkgLjExOTU1MlMuNzI5MjY1IC4xMDc1OTcgLjgxMjk1MS0uMDM1ODY2QzEuMDA0MjM0LS4zMzQ3NDUgMS4zODY4LS43NzcwODYgMS44MjkxNDEtLjc3NzA4NkMyLjA4MDE5OS0uNzc3MDg2IDIuMTk5NzUxLS42OTM0IDIuNDM4ODU0LS4zOTQ1MjFDMi42NjYwMDItLjEzMTUwNyAyLjg2OTI0IC4xMTk1NTIgMy4yNTE4MDYgLjExOTU1MkM0LjQyMzQxMiAuMTE5NTUyIDUuMDkyOTAyLTEuMzk4NzU1IDUuMDkyOTAyLTEuNjczNzI0QzUuMDkyOTAyLTEuNzIxNTQ0IDUuMDgwOTQ2LTEuNzkzMjc1IDQuOTYxMzk1LTEuNzkzMjc1QzQuODY1NzUzLTEuNzkzMjc1IDQuODUzNzk4LTEuNzQ1NDU1IDQuODE3OTMzLTEuNjI1OTAzQzQuNTU0OTE5LS45MjA1NDggMy44NDk1NjQtLjYzMzYyNCAzLjM4MzMxMy0uNjMzNjI0QzMuMTMyMjU0LS42MzM2MjQgMi44OTMxNTEtLjcxNzMxIDIuNjQyMDkyLS44MjQ5MDdDMi4xNjM4ODUtMS4wMTYxODkgMi4wMzIzNzktMS4wMTYxODkgMS44NzY5NjEtMS4wMTYxODlDMS43NTc0MS0xLjAxNjE4OSAxLjYyNTkwMy0xLjAxNjE4OSAxLjUxODMwNi0uOTY4MzY5WiIgaWQ9ImcxLTEyMiIvPiYjeGE7PC9kZWZzPiYjeGE7PGcgdHJhbnNmb3JtPSJtYXRyaXgoMS4xMyAwIDAgMS4xMyAtMjE4Ljk4NTU4NyAtODAuNzk1KSIgaWQ9InBhZ2UxIj4mI3hhOzx1c2UgeGxpbms6aHJlZj0iI2cxLTY5IiB5PSI4MC4xOTkyNTMiIHg9IjE5Mi41MTg2MSIvPiYjeGE7PHVzZSB4bGluazpocmVmPSIjZzMtNDAiIHk9IjgwLjE5OTI1MyIgeD0iMjAxLjg4NDgwNCIvPiYjeGE7PHVzZSB4bGluazpocmVmPSIjZzEtMTAyIiB5PSI4MC4xOTkyNTMiIHg9IjIwNi40MzcxMyIvPiYjeGE7PHVzZSB4bGluazpocmVmPSIjZzMtNDAiIHk9IjgwLjE5OTI1MyIgeD0iMjEzLjQ4MzU2NyIvPiYjeGE7PHVzZSB4bGluazpocmVmPSIjZzEtMTIyIiB5PSI4MC4xOTkyNTMiIHg9IjIxOC4wMzU4OTIiLz4mI3hhOzx1c2UgeGxpbms6aHJlZj0iI2czLTQxIiB5PSI4MC4xOTkyNTMiIHg9IjIyNC4wMDY0OTkiLz4mI3hhOzx1c2UgeGxpbms6aHJlZj0iI2cwLTEwNiIgeT0iODAuMTk5MjUzIiB4PSIyMjguNTU4ODI1Ii8+JiN4YTs8dXNlIHhsaW5rOmhyZWY9IiNnMS0xMjIiIHk9IjgwLjE5OTI1MyIgeD0iMjMxLjg3OTcxNSIvPiYjeGE7PHVzZSB4bGluazpocmVmPSIjZzItNDkiIHk9IjgxLjk5MjUxNiIgeD0iMjM3LjMxNzYwNSIvPiYjeGE7PHVzZSB4bGluazpocmVmPSIjZzMtNjEiIHk9IjgwLjE5OTI1MyIgeD0iMjQ1LjM3MDc0OSIvPiYjeGE7PHVzZSB4bGluazpocmVmPSIjZzEtMTIwIiB5PSI4MC4xOTkyNTMiIHg9IjI1Ny43OTYyMyIvPiYjeGE7PHVzZSB4bGluazpocmVmPSIjZzItNDkiIHk9IjgxLjk5MjUxNiIgeD0iMjY0LjQ0ODMxNyIvPiYjeGE7PHVzZSB4bGluazpocmVmPSIjZzMtNDEiIHk9IjgwLjE5OTI1MyIgeD0iMjY5LjE4MDYzMiIvPiYjeGE7PC9nPiYjeGE7PC9zdmc+;" parent="1" vertex="1">
          <mxGeometry x="242" y="354.75" width="133.43" height="20.75" as="geometry" />
        </mxCell>
        <mxCell id="oeOo5yVUWWmrvXHps0cV-10" value="" style="shape=image;verticalLabelPosition=bottom;labelBackgroundColor=default;verticalAlign=top;aspect=fixed;imageAspect=0;image=data:image/svg+xml,PHN2ZyB4bWxuczp4bGluaz0iaHR0cDovL3d3dy53My5vcmcvMTk5OS94bGluayIgeG1sbnM9Imh0dHA6Ly93d3cudzMub3JnLzIwMDAvc3ZnIiB2aWV3Qm94PSItLjc5MDIxOCAtLjMwMTg0OSAxMDQuNzAxNzk0IDEzLjg5NjU5NCIgaGVpZ2h0PSIxMy44OTY1OTRwdCIgd2lkdGg9IjEwNC43MDE3OTRwdCIgdmVyc2lvbj0iMS4xIj4mI3hhOzxkZWZzPiYjeGE7PHBhdGggZD0iTTEuNDkwNDExLS4xMTk1NTJDMS40OTA0MTEgLjM5ODUwNiAxLjM3ODgyOSAuODUyODAyIC44ODQ2ODIgMS4zNDY5NDlDLjg1MjgwMiAxLjM3MDg1OSAuODM2ODYyIDEuMzg2OCAuODM2ODYyIDEuNDI2NjVDLjgzNjg2MiAxLjQ5MDQxMSAuOTAwNjIzIDEuNTM4MjMyIC45NTY0MTMgMS41MzgyMzJDMS4wNTIwNTUgMS41MzgyMzIgMS43MTM1NzQgLjkwODU5MyAxLjcxMzU3NC0uMDIzOTFDMS43MTM1NzQtLjUzMzk5OCAxLjUyMjI5MS0uODg0NjgyIDEuMTcxNjA2LS44ODQ2ODJDLjg5MjY1My0uODg0NjgyIC43MzMyNS0uNjYxNTE5IC43MzMyNS0uNDQ2MzI2Qy43MzMyNS0uMjIzMTYzIC44ODQ2ODIgMCAxLjE3OTU3NyAwQzEuMzcwODU5IDAgMS40OTA0MTEtLjExMTU4MiAxLjQ5MDQxMS0uMTE5NTUyWiIgaWQ9ImcxLTU5Ii8+JiN4YTs8cGF0aCBkPSJNOC4zMDg4NDItMi43NzM1OTlDOC4zMjA3OTctMi44MDk0NjUgOC4zNTY2NjMtMi44OTMxNTEgOC4zNTY2NjMtMi45NDA5NzFDOC4zNTY2NjMtMy4wMDA3NDcgOC4zMDg4NDItMy4wNjA1MjMgOC4yMzcxMTEtMy4wNjA1MjNDOC4xODkyOS0zLjA2MDUyMyA4LjE2NTM4LTMuMDQ4NTY4IDguMTI5NTE0LTMuMDEyNzAyQzguMTA1NjA0LTMuMDAwNzQ3IDguMTA1NjA0LTIuOTc2ODM3IDcuOTk4MDA3LTIuNzM3NzMzQzcuMjkyNjUzLTEuMDY0MDEgNi43Nzg1OC0uMzQ2NyA0Ljg2NTc1My0uMzQ2N0gzLjEyMDI5OUMyLjk1MjkyNy0uMzQ2NyAyLjkyOTAxNi0uMzQ2NyAyLjg1NzI4NS0uMzU4NjU1QzIuNzI1Nzc4LS4zNzA2MSAyLjcxMzgyMy0uMzk0NTIxIDIuNzEzODIzLS40OTAxNjJDMi43MTM4MjMtLjU3Mzg0OCAyLjczNzczMy0uNjQ1NTc5IDIuNzYxNjQ0LS43NTMxNzZMMy41ODY1NS00LjA1MjgwMkg0Ljc3MDExMkM1LjcwMjYxNS00LjA1MjgwMiA1Ljc3NDM0Ni0zLjg0OTU2NCA1Ljc3NDM0Ni0zLjQ5MDkwOUM1Ljc3NDM0Ni0zLjM3MTM1NyA1Ljc3NDM0Ni0zLjI2Mzc2MSA1LjY5MDY2LTIuOTA1MTA2QzUuNjY2NzUtMi44NTcyODUgNS42NTQ3OTUtMi44MDk0NjUgNS42NTQ3OTUtMi43NzM1OTlDNS42NTQ3OTUtMi42ODk5MTMgNS43MTQ1Ny0yLjY1NDA0NyA1Ljc4NjMwMS0yLjY1NDA0N0M1Ljg5Mzg5OC0yLjY1NDA0NyA1LjkwNTg1My0yLjczNzczMyA1Ljk1MzY3NC0yLjkwNTEwNkw2LjYzNTExOC01LjY3ODcwNUM2LjYzNTExOC01LjczODQ4MSA2LjU4NzI5OC01Ljc5ODI1NyA2LjUxNTU2Ny01Ljc5ODI1N0M2LjQwNzk3LTUuNzk4MjU3IDYuMzk2MDE1LTUuNzUwNDM2IDYuMzQ4MTk0LTUuNTgzMDY0QzYuMTA5MDkxLTQuNjYyNTE2IDUuODY5OTg4LTQuMzk5NTAyIDQuODA1OTc4LTQuMzk5NTAySDMuNjcwMjM3TDQuNDExNDU3LTcuMzQwNDczQzQuNTE5MDU0LTcuNzU4OTA0IDQuNTQyOTY0LTcuNzk0NzcgNS4wMzMxMjYtNy43OTQ3N0g2Ljc0MjcxNUM4LjIxMzItNy43OTQ3NyA4LjUxMjA4LTcuNDAwMjQ5IDguNTEyMDgtNi40OTE2NTZDOC41MTIwOC02LjQ3OTcwMSA4LjUxMjA4LTYuMTQ0OTU2IDguNDY0MjU5LTUuNzUwNDM2QzguNDUyMzA0LTUuNzAyNjE1IDguNDQwMzQ5LTUuNjMwODg0IDguNDQwMzQ5LTUuNjA2OTc0QzguNDQwMzQ5LTUuNTExMzMzIDguNTAwMTI1LTUuNDc1NDY3IDguNTcxODU2LTUuNDc1NDY3QzguNjU1NTQyLTUuNDc1NDY3IDguNzAzMzYyLTUuNTIzMjg4IDguNzI3MjczLTUuNzM4NDgxTDguOTc4MzMxLTcuODMwNjM1QzguOTc4MzMxLTcuODY2NTAxIDkuMDAyMjQyLTcuOTg2MDUyIDkuMDAyMjQyLTguMDA5OTYzQzkuMDAyMjQyLTguMTQxNDY5IDguODk0NjQ1LTguMTQxNDY5IDguNjc5NDUyLTguMTQxNDY5SDIuODQ1MzNDMi42MTgxODItOC4xNDE0NjkgMi40OTg2My04LjE0MTQ2OSAyLjQ5ODYzLTcuOTI2Mjc2QzIuNDk4NjMtNy43OTQ3NyAyLjU4MjMxNi03Ljc5NDc3IDIuNzg1NTU0LTcuNzk0NzdDMy41MjY3NzUtNy43OTQ3NyAzLjUyNjc3NS03LjcxMTA4MyAzLjUyNjc3NS03LjU3OTU3N0MzLjUyNjc3NS03LjUxOTgwMSAzLjUxNDgxOS03LjQ3MTk4IDMuNDc4OTU0LTcuMzQwNDczTDEuODY1MDA2LS44ODQ2ODJDMS43NTc0MS0uNDY2MjUyIDEuNzMzNDk5LS4zNDY3IC44OTY2MzgtLjM0NjdDLjY2OTQ4OS0uMzQ2NyAuNTQ5OTM4LS4zNDY3IC41NDk5MzgtLjEzMTUwN0MuNTQ5OTM4IDAgLjYyMTY2OSAwIC44NjA3NzIgMEg2Ljg2MjI2N0M3LjEyNTI4IDAgNy4xMzcyMzUtLjAxMTk1NSA3LjIyMDkyMi0uMjAzMjM4TDguMzA4ODQyLTIuNzczNTk5WiIgaWQ9ImcyLTY5Ii8+JiN4YTs8cGF0aCBkPSJNNS4zMzIwMDUtNC44MDU5NzhDNS41NzExMDgtNC44MDU5NzggNS42NjY3NS00LjgwNTk3OCA1LjY2Njc1LTUuMDMzMTI2QzUuNjY2NzUtNS4xNTI2NzcgNS41NzExMDgtNS4xNTI2NzcgNS4zNTU5MTUtNS4xNTI2NzdINC4zODc1NDdDNC42MTQ2OTUtNi4zODQwNiA0Ljc4MjA2Ny03LjIzMjg3NyA0Ljg3NzcwOS03LjYxNTQ0MkM0Ljk0OTQ0LTcuOTAyMzY2IDUuMjAwNDk4LTguMTc3MzM1IDUuNTExMzMzLTguMTc3MzM1QzUuNzYyMzkxLTguMTc3MzM1IDYuMDEzNDUtOC4wNjk3MzggNi4xMzMwMDEtNy45NjIxNDJDNS42NjY3NS03LjkxNDMyMSA1LjUyMzI4OC03LjU2NzYyMSA1LjUyMzI4OC03LjM2NDM4NEM1LjUyMzI4OC03LjEyNTI4IDUuNzAyNjE1LTYuOTgxODE4IDUuOTI5NzYzLTYuOTgxODE4QzYuMTY4ODY3LTYuOTgxODE4IDYuNTI3NTIyLTcuMTg1MDU2IDYuNTI3NTIyLTcuNjM5MzUyQzYuNTI3NTIyLTguMTQxNDY5IDYuMDI1NDA1LTguNDE2NDM4IDUuNDk5Mzc3LTguNDE2NDM4QzQuOTg1MzA1LTguNDE2NDM4IDQuNDgzMTg4LTguMDMzODczIDQuMjQ0MDg1LTcuNTY3NjIxQzQuMDI4ODkyLTcuMTQ5MTkxIDMuOTA5MzQtNi43MTg4MDQgMy42MzQzNzEtNS4xNTI2NzdIMi44MzMzNzVDMi42MDYyMjctNS4xNTI2NzcgMi40ODY2NzUtNS4xNTI2NzcgMi40ODY2NzUtNC45Mzc0ODRDMi40ODY2NzUtNC44MDU5NzggMi41NTg0MDYtNC44MDU5NzggMi43OTc1MDktNC44MDU5NzhIMy41NjI2NEMzLjM0NzQ0Ny0zLjY5NDE0NyAyLjg1NzI4NS0uOTkyMjc5IDIuNTgyMzE2IC4yODY5MjRDMi4zNzkwNzggMS4zMjcwMjQgMi4xOTk3NTEgMi4xOTk3NTEgMS42MDE5OTMgMi4xOTk3NTFDMS41NjYxMjcgMi4xOTk3NTEgMS4yMTk0MjcgMi4xOTk3NTEgMS4wMDQyMzQgMS45NzI2MDNDMS42MTM5NDggMS45MjQ3ODIgMS42MTM5NDggMS4zOTg3NTUgMS42MTM5NDggMS4zODY4QzEuNjEzOTQ4IDEuMTQ3Njk2IDEuNDM0NjIgMS4wMDQyMzQgMS4yMDc0NzIgMS4wMDQyMzRDLjk2ODM2OSAxLjAwNDIzNCAuNjA5NzE0IDEuMjA3NDcyIC42MDk3MTQgMS42NjE3NjhDLjYwOTcxNCAyLjE3NTg0MSAxLjEzNTc0MSAyLjQzODg1NCAxLjYwMTk5MyAyLjQzODg1NEMyLjgyMTQyIDIuNDM4ODU0IDMuMzIzNTM3IC4yNTEwNTkgMy40NTUwNDQtLjM0NjdDMy42NzAyMzctMS4yNjcyNDggNC4yNTYwNC00LjQ0NzMyMyA0LjMxNTgxNi00LjgwNTk3OEg1LjMzMjAwNVoiIGlkPSJnMi0xMDIiLz4mI3hhOzxwYXRoIGQ9Ik01LjY2Njc1LTQuODc3NzA5QzUuMjg0MTg0LTQuODA1OTc4IDUuMTQwNzIyLTQuNTE5MDU0IDUuMTQwNzIyLTQuMjkxOTA1QzUuMTQwNzIyLTQuMDA0OTgxIDUuMzY3ODctMy45MDkzNCA1LjUzNTI0My0zLjkwOTM0QzUuODkzODk4LTMuOTA5MzQgNi4xNDQ5NTYtNC4yMjAxNzQgNi4xNDQ5NTYtNC41NDI5NjRDNi4xNDQ5NTYtNS4wNDUwODEgNS41NzExMDgtNS4yNzIyMjkgNS4wNjg5OTEtNS4yNzIyMjlDNC4zMzk3MjYtNS4yNzIyMjkgMy45MzMyNS00LjU1NDkxOSAzLjgyNTY1NC00LjMyNzc3MUMzLjU1MDY4NS01LjIyNDQwOCAyLjgwOTQ2NS01LjI3MjIyOSAyLjU5NDI3MS01LjI3MjIyOUMxLjM3NDg0NC01LjI3MjIyOSAuNzI5MjY1LTMuNzA2MTAyIC43MjkyNjUtMy40NDMwODhDLjcyOTI2NS0zLjM5NTI2OCAuNzc3MDg2LTMuMzM1NDkyIC44NjA3NzItMy4zMzU0OTJDLjk1NjQxMy0zLjMzNTQ5MiAuOTgwMzI0LTMuNDA3MjIzIDEuMDA0MjM0LTMuNDU1MDQ0QzEuNDEwNzEtNC43ODIwNjcgMi4yMTE3MDYtNS4wMzMxMjYgMi41NTg0MDYtNS4wMzMxMjZDMy4wOTYzODktNS4wMzMxMjYgMy4yMDM5ODUtNC41MzEwMDkgMy4yMDM5ODUtNC4yNDQwODVDMy4yMDM5ODUtMy45ODEwNzEgMy4xMzIyNTQtMy43MDYxMDIgMi45ODg3OTItMy4xMzIyNTRMMi41ODIzMTYtMS40OTQzOTZDMi40MDI5ODktLjc3NzA4NiAyLjA1NjI4OS0uMTE5NTUyIDEuNDIyNjY1LS4xMTk1NTJDMS4zNjI4ODktLjExOTU1MiAxLjA2NDAxLS4xMTk1NTIgLjgxMjk1MS0uMjc0OTY5QzEuMjQzMzM3LS4zNTg2NTUgMS4zMzg5NzktLjcxNzMxIDEuMzM4OTc5LS44NjA3NzJDMS4zMzg5NzktMS4wOTk4NzUgMS4xNTk2NTEtMS4yNDMzMzcgLjkzMjUwMy0xLjI0MzMzN0MuNjQ1NTc5LTEuMjQzMzM3IC4zMzQ3NDUtLjk5MjI3OSAuMzM0NzQ1LS42MDk3MTRDLjMzNDc0NS0uMTA3NTk3IC44OTY2MzggLjExOTU1MiAxLjQxMDcxIC4xMTk1NTJDMS45ODQ1NTggLjExOTU1MiAyLjM5MTAzNC0uMzM0NzQ1IDIuNjQyMDkyLS44MjQ5MDdDMi44MzMzNzUtLjExOTU1MiAzLjQzMTEzMyAuMTE5NTUyIDMuODczNDc0IC4xMTk1NTJDNS4wOTI5MDIgLjExOTU1MiA1LjczODQ4MS0xLjQ0NjU3NSA1LjczODQ4MS0xLjcwOTU4OUM1LjczODQ4MS0xLjc2OTM2NSA1LjY5MDY2LTEuODE3MTg2IDUuNjE4OTI5LTEuODE3MTg2QzUuNTExMzMzLTEuODE3MTg2IDUuNDk5Mzc3LTEuNzU3NDEgNS40NjM1MTItMS42NjE3NjhDNS4xNDA3MjItLjYwOTcxNCA0LjQ0NzMyMy0uMTE5NTUyIDMuOTA5MzQtLjExOTU1MkMzLjQ5MDkwOS0uMTE5NTUyIDMuMjYzNzYxLS40MzAzODYgMy4yNjM3NjEtLjkyMDU0OEMzLjI2Mzc2MS0xLjE4MzU2MiAzLjMxMTU4Mi0xLjM3NDg0NCAzLjUwMjg2NC0yLjE2Mzg4NUwzLjkyMTI5NS0zLjc4OTc4OEM0LjEwMDYyMy00LjUwNzA5OCA0LjUwNzA5OC01LjAzMzEyNiA1LjA1NzAzNi01LjAzMzEyNkM1LjA4MDk0Ni01LjAzMzEyNiA1LjQxNTY5MS01LjAzMzEyNiA1LjY2Njc1LTQuODc3NzA5WiIgaWQ9ImcyLTEyMCIvPiYjeGE7PHBhdGggZD0iTTEuNTE4MzA2LS45NjgzNjlDMi4wMzIzNzktMS41NTQxNzIgMi40NTA4MDktMS45MjQ3ODIgMy4wNDg1NjgtMi40NjI3NjVDMy43NjU4NzgtMy4wODQ0MzMgNC4wNzY3MTItMy4zODMzMTMgNC4yNDQwODUtMy41NjI2NEM1LjA4MDk0Ni00LjM4NzU0NyA1LjQ5OTM3Ny01LjA4MDk0NiA1LjQ5OTM3Ny01LjE3NjU4OFM1LjQwMzczNi01LjI3MjIyOSA1LjM3OTgyNi01LjI3MjIyOUM1LjI5NjEzOS01LjI3MjIyOSA1LjI3MjIyOS01LjIyNDQwOCA1LjIxMjQ1My01LjE0MDcyMkM0LjkxMzU3NC00LjYyNjY1IDQuNjI2NjUtNC4zNzU1OTIgNC4zMTU4MTYtNC4zNzU1OTJDNC4wNjQ3NTctNC4zNzU1OTIgMy45MzMyNS00LjQ4MzE4OCAzLjcwNjEwMi00Ljc3MDExMkMzLjQ1NTA0NC01LjA2ODk5MSAzLjI1MTgwNi01LjI3MjIyOSAyLjkwNTEwNi01LjI3MjIyOUMyLjAzMjM3OS01LjI3MjIyOSAxLjUwNjM1MS00LjE4NDMwOSAxLjUwNjM1MS0zLjkzMzI1QzEuNTA2MzUxLTMuODk3Mzg1IDEuNTE4MzA2LTMuODI1NjU0IDEuNjI1OTAzLTMuODI1NjU0QzEuNzIxNTQ0LTMuODI1NjU0IDEuNzMzNDk5LTMuODczNDc0IDEuNzY5MzY1LTMuOTU3MTYxQzEuOTcyNjAzLTQuNDM1MzY3IDIuNTQ2NDUxLTQuNTE5MDU0IDIuNzczNTk5LTQuNTE5MDU0QzMuMDI0NjU4LTQuNTE5MDU0IDMuMjYzNzYxLTQuNDM1MzY3IDMuNTE0ODE5LTQuMzI3NzcxQzMuOTY5MTE2LTQuMTM2NDg4IDQuMTYwMzk5LTQuMTM2NDg4IDQuMjc5OTUtNC4xMzY0ODhDNC4zNjM2MzYtNC4xMzY0ODggNC40MTE0NTctNC4xMzY0ODggNC40NzEyMzMtNC4xNDg0NDNDNC4wNzY3MTItMy42ODIxOTIgMy40MzExMzMtMy4xMDgzNDQgMi44OTMxNTEtMi42MTgxODJMMS42ODU2NzktMS41MDYzNTFDLjk1NjQxMy0uNzY1MTMxIC41MTQwNzItLjA1OTc3NiAuNTE0MDcyIC4wMjM5MUMuNTE0MDcyIC4wOTU2NDEgLjU3Mzg0OCAuMTE5NTUyIC42NDU1NzkgLjExOTU1MlMuNzI5MjY1IC4xMDc1OTcgLjgxMjk1MS0uMDM1ODY2QzEuMDA0MjM0LS4zMzQ3NDUgMS4zODY4LS43NzcwODYgMS44MjkxNDEtLjc3NzA4NkMyLjA4MDE5OS0uNzc3MDg2IDIuMTk5NzUxLS42OTM0IDIuNDM4ODU0LS4zOTQ1MjFDMi42NjYwMDItLjEzMTUwNyAyLjg2OTI0IC4xMTk1NTIgMy4yNTE4MDYgLjExOTU1MkM0LjQyMzQxMiAuMTE5NTUyIDUuMDkyOTAyLTEuMzk4NzU1IDUuMDkyOTAyLTEuNjczNzI0QzUuMDkyOTAyLTEuNzIxNTQ0IDUuMDgwOTQ2LTEuNzkzMjc1IDQuOTYxMzk1LTEuNzkzMjc1QzQuODY1NzUzLTEuNzkzMjc1IDQuODUzNzk4LTEuNzQ1NDU1IDQuODE3OTMzLTEuNjI1OTAzQzQuNTU0OTE5LS45MjA1NDggMy44NDk1NjQtLjYzMzYyNCAzLjM4MzMxMy0uNjMzNjI0QzMuMTMyMjU0LS42MzM2MjQgMi44OTMxNTEtLjcxNzMxIDIuNjQyMDkyLS44MjQ5MDdDMi4xNjM4ODUtMS4wMTYxODkgMi4wMzIzNzktMS4wMTYxODkgMS44NzY5NjEtMS4wMTYxODlDMS43NTc0MS0xLjAxNjE4OSAxLjYyNTkwMy0xLjAxNjE4OSAxLjUxODMwNi0uOTY4MzY5WiIgaWQ9ImcyLTEyMiIvPiYjeGE7PHBhdGggZD0iTTMuODg1NDMgMi45MDUxMDZDMy44ODU0MyAyLjg2OTI0IDMuODg1NDMgMi44NDUzMyAzLjY4MjE5MiAyLjY0MjA5MkMyLjQ4NjY3NSAxLjQzNDYyIDEuODE3MTg2LS41Mzc5ODMgMS44MTcxODYtMi45NzY4MzdDMS44MTcxODYtNS4yOTYxMzkgMi4zNzkwNzgtNy4yOTI2NTMgMy43NjU4NzgtOC43MDMzNjJDMy44ODU0My04LjgxMDk1OSAzLjg4NTQzLTguODM0ODY5IDMuODg1NDMtOC44NzA3MzVDMy44ODU0My04Ljk0MjQ2NiAzLjgyNTY1NC04Ljk2NjM3NiAzLjc3NzgzMy04Ljk2NjM3NkMzLjYyMjQxNi04Ljk2NjM3NiAyLjY0MjA5Mi04LjEwNTYwNCAyLjA1NjI4OS02LjkzMzk5OEMxLjQ0NjU3NS01LjcyNjUyNiAxLjE3MTYwNi00LjQ0NzMyMyAxLjE3MTYwNi0yLjk3NjgzN0MxLjE3MTYwNi0xLjkxMjgyNyAxLjMzODk3OS0uNDkwMTYyIDEuOTYwNjQ4IC43ODkwNDFDMi42NjYwMDIgMi4yMjM2NjEgMy42NDYzMjYgMy4wMDA3NDcgMy43Nzc4MzMgMy4wMDA3NDdDMy44MjU2NTQgMy4wMDA3NDcgMy44ODU0MyAyLjk3NjgzNyAzLjg4NTQzIDIuOTA1MTA2WiIgaWQ9Imc0LTQwIi8+JiN4YTs8cGF0aCBkPSJNMy4zNzEzNTctMi45NzY4MzdDMy4zNzEzNTctMy44ODU0MyAzLjI1MTgwNi01LjM2Nzg3IDIuNTgyMzE2LTYuNzU0NjdDMS44NzY5NjEtOC4xODkyOSAuODk2NjM4LTguOTY2Mzc2IC43NjUxMzEtOC45NjYzNzZDLjcxNzMxLTguOTY2Mzc2IC42NTc1MzQtOC45NDI0NjYgLjY1NzUzNC04Ljg3MDczNUMuNjU3NTM0LTguODM0ODY5IC42NTc1MzQtOC44MTA5NTkgLjg2MDc3Mi04LjYwNzcyMUMyLjA1NjI4OS03LjQwMDI0OSAyLjcyNTc3OC01LjQyNzY0NiAyLjcyNTc3OC0yLjk4ODc5MkMyLjcyNTc3OC0uNjY5NDg5IDIuMTYzODg1IDEuMzI3MDI0IC43NzcwODYgMi43Mzc3MzNDLjY1NzUzNCAyLjg0NTMzIC42NTc1MzQgMi44NjkyNCAuNjU3NTM0IDIuOTA1MTA2Qy42NTc1MzQgMi45NzY4MzcgLjcxNzMxIDMuMDAwNzQ3IC43NjUxMzEgMy4wMDA3NDdDLjkyMDU0OCAzLjAwMDc0NyAxLjkwMDg3MiAyLjEzOTk3NSAyLjQ4NjY3NSAuOTY4MzY5QzMuMDk2Mzg5LS4yNTEwNTkgMy4zNzEzNTctMS41NDIyMTcgMy4zNzEzNTctMi45NzY4MzdaIiBpZD0iZzQtNDEiLz4mI3hhOzxwYXRoIGQ9Ik04LjA2OTczOC0zLjg3MzQ3NEM4LjIzNzExMS0zLjg3MzQ3NCA4LjQ1MjMwNC0zLjg3MzQ3NCA4LjQ1MjMwNC00LjA4ODY2N0M4LjQ1MjMwNC00LjMxNTgxNiA4LjI0OTA2Ni00LjMxNTgxNiA4LjA2OTczOC00LjMxNTgxNkgxLjAyODE0NEMuODYwNzcyLTQuMzE1ODE2IC42NDU1NzktNC4zMTU4MTYgLjY0NTU3OS00LjEwMDYyM0MuNjQ1NTc5LTMuODczNDc0IC44NDg4MTctMy44NzM0NzQgMS4wMjgxNDQtMy44NzM0NzRIOC4wNjk3MzhaTTguMDY5NzM4LTEuNjQ5ODEzQzguMjM3MTExLTEuNjQ5ODEzIDguNDUyMzA0LTEuNjQ5ODEzIDguNDUyMzA0LTEuODY1MDA2QzguNDUyMzA0LTIuMDkyMTU0IDguMjQ5MDY2LTIuMDkyMTU0IDguMDY5NzM4LTIuMDkyMTU0SDEuMDI4MTQ0Qy44NjA3NzItMi4wOTIxNTQgLjY0NTU3OS0yLjA5MjE1NCAuNjQ1NTc5LTEuODc2OTYxQy42NDU1NzktMS42NDk4MTMgLjg0ODgxNy0xLjY0OTgxMyAxLjAyODE0NC0xLjY0OTgxM0g4LjA2OTczOFoiIGlkPSJnNC02MSIvPiYjeGE7PHBhdGggZD0iTTIuNTAyNjE1LTUuMDc2OTYxQzIuNTAyNjE1LTUuMjkyMTU0IDIuNDg2Njc1LTUuMzAwMTI1IDIuMjcxNDgyLTUuMzAwMTI1QzEuOTQ0NzA3LTQuOTgxMzIgMS41MjIyOTEtNC43OTAwMzcgLjc2NTEzMS00Ljc5MDAzN1YtNC41MjcwMjRDLjk4MDMyNC00LjUyNzAyNCAxLjQxMDcxLTQuNTI3MDI0IDEuODcyOTc2LTQuNzQyMjE3Vi0uNjUzNTQ5QzEuODcyOTc2LS4zNTg2NTUgMS44NDkwNjYtLjI2MzAxNCAxLjA5MTkwNS0uMjYzMDE0SC44MTI5NTFWMEMxLjEzOTcyNi0uMDIzOTEgMS44MjUxNTYtLjAyMzkxIDIuMTgzODExLS4wMjM5MVMzLjIzNTg2Ni0uMDIzOTEgMy41NjI2NCAwVi0uMjYzMDE0SDMuMjgzNjg2QzIuNTI2NTI2LS4yNjMwMTQgMi41MDI2MTUtLjM1ODY1NSAyLjUwMjYxNS0uNjUzNTQ5Vi01LjA3Njk2MVoiIGlkPSJnMy00OSIvPiYjeGE7PHBhdGggZD0iTTIuMjQ3NTcyLTEuNjI1OTAzQzIuMzc1MDkzLTEuNzQ1NDU1IDIuNzA5ODM4LTIuMDA4NDY4IDIuODM3MzYtMi4xMjAwNUMzLjMzMTUwNy0yLjU3NDM0NiAzLjgwMTc0My0zLjAxMjcwMiAzLjgwMTc0My0zLjczNzk4M0MzLjgwMTc0My00LjY4NjQyNiAzLjAwNDczMi01LjMwMDEyNSAyLjAwODQ2OC01LjMwMDEyNUMxLjA1MjA1NS01LjMwMDEyNSAuNDIyNDE2LTQuNTc0ODQ0IC40MjI0MTYtMy44NjU1MDRDLjQyMjQxNi0zLjQ3NDk2OSAuNzMzMjUtMy40MTkxNzggLjg0NDgzMi0zLjQxOTE3OEMxLjAxMjIwNC0zLjQxOTE3OCAxLjI1OTI3OC0zLjUzODczIDEuMjU5Mjc4LTMuODQxNTk0QzEuMjU5Mjc4LTQuMjU2MDQgLjg2MDc3Mi00LjI1NjA0IC43NjUxMzEtNC4yNTYwNEMuOTk2MjY0LTQuODM3ODU4IDEuNTMwMjYyLTUuMDM3MTExIDEuOTIwNzk3LTUuMDM3MTExQzIuNjYyMDE3LTUuMDM3MTExIDMuMDQ0NTgzLTQuNDA3NDcyIDMuMDQ0NTgzLTMuNzM3OTgzQzMuMDQ0NTgzLTIuOTA5MDkxIDIuNDYyNzY1LTIuMzAzMzYyIDEuNTIyMjkxLTEuMzM4OTc5TC41MTgwNTctLjMwMjg2NEMuNDIyNDE2LS4yMTUxOTMgLjQyMjQxNi0uMTk5MjUzIC40MjI0MTYgMEgzLjU3MDYxTDMuODAxNzQzLTEuNDI2NjVIMy41NTQ2N0MzLjUzMDc2LTEuMjY3MjQ4IDMuNDY2OTk5LS44Njg3NDIgMy4zNzEzNTctLjcxNzMxQzMuMzIzNTM3LS42NTM1NDkgMi43MTc4MDgtLjY1MzU0OSAyLjU5MDI4Ni0uNjUzNTQ5SDEuMTcxNjA2TDIuMjQ3NTcyLTEuNjI1OTAzWiIgaWQ9ImczLTUwIi8+JiN4YTs8cGF0aCBkPSJNMS45MDA4NzItOC41MzU5OUMxLjkwMDg3Mi04Ljc1MTE4MyAxLjkwMDg3Mi04Ljk2NjM3NiAxLjY2MTc2OC04Ljk2NjM3NlMxLjQyMjY2NS04Ljc1MTE4MyAxLjQyMjY2NS04LjUzNTk5VjIuNTU4NDA2QzEuNDIyNjY1IDIuNzczNTk5IDEuNDIyNjY1IDIuOTg4NzkyIDEuNjYxNzY4IDIuOTg4NzkyUzEuOTAwODcyIDIuNzczNTk5IDEuOTAwODcyIDIuNTU4NDA2Vi04LjUzNTk5WiIgaWQ9ImcwLTEwNiIvPiYjeGE7PC9kZWZzPiYjeGE7PGcgdHJhbnNmb3JtPSJtYXRyaXgoMS4xMyAwIDAgMS4xMyAtMjExLjUxNDkyNCAtODAuNzk1KSIgaWQ9InBhZ2UxIj4mI3hhOzx1c2UgeGxpbms6aHJlZj0iI2cyLTY5IiB5PSI4MC4xOTkyNTMiIHg9IjE4NS45MzIxMDMiLz4mI3hhOzx1c2UgeGxpbms6aHJlZj0iI2c0LTQwIiB5PSI4MC4xOTkyNTMiIHg9IjE5NS4yOTgyOTgiLz4mI3hhOzx1c2UgeGxpbms6aHJlZj0iI2cyLTEwMiIgeT0iODAuMTk5MjUzIiB4PSIxOTkuODUwNjIzIi8+JiN4YTs8dXNlIHhsaW5rOmhyZWY9IiNnNC00MCIgeT0iODAuMTk5MjUzIiB4PSIyMDYuODk3MDYiLz4mI3hhOzx1c2UgeGxpbms6aHJlZj0iI2cyLTEyMiIgeT0iODAuMTk5MjUzIiB4PSIyMTEuNDQ5Mzg2Ii8+JiN4YTs8dXNlIHhsaW5rOmhyZWY9IiNnNC00MSIgeT0iODAuMTk5MjUzIiB4PSIyMTcuNDE5OTkyIi8+JiN4YTs8dXNlIHhsaW5rOmhyZWY9IiNnMC0xMDYiIHk9IjgwLjE5OTI1MyIgeD0iMjIxLjk3MjMxOCIvPiYjeGE7PHVzZSB4bGluazpocmVmPSIjZzItMTIyIiB5PSI4MC4xOTkyNTMiIHg9IjIyNS4yOTMyMDgiLz4mI3hhOzx1c2UgeGxpbms6aHJlZj0iI2czLTQ5IiB5PSI4MS45OTI1MTYiIHg9IjIzMC43MzEwOTkiLz4mI3hhOzx1c2UgeGxpbms6aHJlZj0iI2cxLTU5IiB5PSI4MS45OTI1MTYiIHg9IjIzNC45NjUyODEiLz4mI3hhOzx1c2UgeGxpbms6aHJlZj0iI2czLTUwIiB5PSI4MS45OTI1MTYiIHg9IjIzNy4zMTc2MDUiLz4mI3hhOzx1c2UgeGxpbms6aHJlZj0iI2c0LTYxIiB5PSI4MC4xOTkyNTMiIHg9IjI0NS4zNzA3NDkiLz4mI3hhOzx1c2UgeGxpbms6aHJlZj0iI2cyLTEyMCIgeT0iODAuMTk5MjUzIiB4PSIyNTcuNzk2MjMiLz4mI3hhOzx1c2UgeGxpbms6aHJlZj0iI2czLTQ5IiB5PSI4MS45OTI1MTYiIHg9IjI2NC40NDgzMTciLz4mI3hhOzx1c2UgeGxpbms6aHJlZj0iI2cxLTU5IiB5PSI4MS45OTI1MTYiIHg9IjI2OC42ODI1Ii8+JiN4YTs8dXNlIHhsaW5rOmhyZWY9IiNnMy01MCIgeT0iODEuOTkyNTE2IiB4PSIyNzEuMDM0ODI0Ii8+JiN4YTs8dXNlIHhsaW5rOmhyZWY9IiNnNC00MSIgeT0iODAuMTk5MjUzIiB4PSIyNzUuNzY3MTM5Ii8+JiN4YTs8L2c+JiN4YTs8L3N2Zz4=;" parent="1" vertex="1">
          <mxGeometry x="510" y="353.67" width="154.86" height="20.65" as="geometry" />
        </mxCell>
        <mxCell id="oeOo5yVUWWmrvXHps0cV-11" value="" style="shape=image;verticalLabelPosition=bottom;labelBackgroundColor=default;verticalAlign=top;aspect=fixed;imageAspect=0;image=data:image/svg+xml,PHN2ZyB4bWxuczp4bGluaz0iaHR0cDovL3d3dy53My5vcmcvMTk5OS94bGluayIgeG1sbnM9Imh0dHA6Ly93d3cudzMub3JnLzIwMDAvc3ZnIiB2aWV3Qm94PSItLjc2MjMwNyAtLjMwMTg0OSAxMTkuNTg3Mjk5IDEzLjg5NjU5NCIgaGVpZ2h0PSIxMy44OTY1OTRwdCIgd2lkdGg9IjExOS41ODcyOTlwdCIgdmVyc2lvbj0iMS4xIj4mI3hhOzxkZWZzPiYjeGE7PHBhdGggZD0iTTEuNDkwNDExLS4xMTk1NTJDMS40OTA0MTEgLjM5ODUwNiAxLjM3ODgyOSAuODUyODAyIC44ODQ2ODIgMS4zNDY5NDlDLjg1MjgwMiAxLjM3MDg1OSAuODM2ODYyIDEuMzg2OCAuODM2ODYyIDEuNDI2NjVDLjgzNjg2MiAxLjQ5MDQxMSAuOTAwNjIzIDEuNTM4MjMyIC45NTY0MTMgMS41MzgyMzJDMS4wNTIwNTUgMS41MzgyMzIgMS43MTM1NzQgLjkwODU5MyAxLjcxMzU3NC0uMDIzOTFDMS43MTM1NzQtLjUzMzk5OCAxLjUyMjI5MS0uODg0NjgyIDEuMTcxNjA2LS44ODQ2ODJDLjg5MjY1My0uODg0NjgyIC43MzMyNS0uNjYxNTE5IC43MzMyNS0uNDQ2MzI2Qy43MzMyNS0uMjIzMTYzIC44ODQ2ODIgMCAxLjE3OTU3NyAwQzEuMzcwODU5IDAgMS40OTA0MTEtLjExMTU4MiAxLjQ5MDQxMS0uMTE5NTUyWiIgaWQ9ImcxLTU5Ii8+JiN4YTs8cGF0aCBkPSJNOC4zMDg4NDItMi43NzM1OTlDOC4zMjA3OTctMi44MDk0NjUgOC4zNTY2NjMtMi44OTMxNTEgOC4zNTY2NjMtMi45NDA5NzFDOC4zNTY2NjMtMy4wMDA3NDcgOC4zMDg4NDItMy4wNjA1MjMgOC4yMzcxMTEtMy4wNjA1MjNDOC4xODkyOS0zLjA2MDUyMyA4LjE2NTM4LTMuMDQ4NTY4IDguMTI5NTE0LTMuMDEyNzAyQzguMTA1NjA0LTMuMDAwNzQ3IDguMTA1NjA0LTIuOTc2ODM3IDcuOTk4MDA3LTIuNzM3NzMzQzcuMjkyNjUzLTEuMDY0MDEgNi43Nzg1OC0uMzQ2NyA0Ljg2NTc1My0uMzQ2N0gzLjEyMDI5OUMyLjk1MjkyNy0uMzQ2NyAyLjkyOTAxNi0uMzQ2NyAyLjg1NzI4NS0uMzU4NjU1QzIuNzI1Nzc4LS4zNzA2MSAyLjcxMzgyMy0uMzk0NTIxIDIuNzEzODIzLS40OTAxNjJDMi43MTM4MjMtLjU3Mzg0OCAyLjczNzczMy0uNjQ1NTc5IDIuNzYxNjQ0LS43NTMxNzZMMy41ODY1NS00LjA1MjgwMkg0Ljc3MDExMkM1LjcwMjYxNS00LjA1MjgwMiA1Ljc3NDM0Ni0zLjg0OTU2NCA1Ljc3NDM0Ni0zLjQ5MDkwOUM1Ljc3NDM0Ni0zLjM3MTM1NyA1Ljc3NDM0Ni0zLjI2Mzc2MSA1LjY5MDY2LTIuOTA1MTA2QzUuNjY2NzUtMi44NTcyODUgNS42NTQ3OTUtMi44MDk0NjUgNS42NTQ3OTUtMi43NzM1OTlDNS42NTQ3OTUtMi42ODk5MTMgNS43MTQ1Ny0yLjY1NDA0NyA1Ljc4NjMwMS0yLjY1NDA0N0M1Ljg5Mzg5OC0yLjY1NDA0NyA1LjkwNTg1My0yLjczNzczMyA1Ljk1MzY3NC0yLjkwNTEwNkw2LjYzNTExOC01LjY3ODcwNUM2LjYzNTExOC01LjczODQ4MSA2LjU4NzI5OC01Ljc5ODI1NyA2LjUxNTU2Ny01Ljc5ODI1N0M2LjQwNzk3LTUuNzk4MjU3IDYuMzk2MDE1LTUuNzUwNDM2IDYuMzQ4MTk0LTUuNTgzMDY0QzYuMTA5MDkxLTQuNjYyNTE2IDUuODY5OTg4LTQuMzk5NTAyIDQuODA1OTc4LTQuMzk5NTAySDMuNjcwMjM3TDQuNDExNDU3LTcuMzQwNDczQzQuNTE5MDU0LTcuNzU4OTA0IDQuNTQyOTY0LTcuNzk0NzcgNS4wMzMxMjYtNy43OTQ3N0g2Ljc0MjcxNUM4LjIxMzItNy43OTQ3NyA4LjUxMjA4LTcuNDAwMjQ5IDguNTEyMDgtNi40OTE2NTZDOC41MTIwOC02LjQ3OTcwMSA4LjUxMjA4LTYuMTQ0OTU2IDguNDY0MjU5LTUuNzUwNDM2QzguNDUyMzA0LTUuNzAyNjE1IDguNDQwMzQ5LTUuNjMwODg0IDguNDQwMzQ5LTUuNjA2OTc0QzguNDQwMzQ5LTUuNTExMzMzIDguNTAwMTI1LTUuNDc1NDY3IDguNTcxODU2LTUuNDc1NDY3QzguNjU1NTQyLTUuNDc1NDY3IDguNzAzMzYyLTUuNTIzMjg4IDguNzI3MjczLTUuNzM4NDgxTDguOTc4MzMxLTcuODMwNjM1QzguOTc4MzMxLTcuODY2NTAxIDkuMDAyMjQyLTcuOTg2MDUyIDkuMDAyMjQyLTguMDA5OTYzQzkuMDAyMjQyLTguMTQxNDY5IDguODk0NjQ1LTguMTQxNDY5IDguNjc5NDUyLTguMTQxNDY5SDIuODQ1MzNDMi42MTgxODItOC4xNDE0NjkgMi40OTg2My04LjE0MTQ2OSAyLjQ5ODYzLTcuOTI2Mjc2QzIuNDk4NjMtNy43OTQ3NyAyLjU4MjMxNi03Ljc5NDc3IDIuNzg1NTU0LTcuNzk0NzdDMy41MjY3NzUtNy43OTQ3NyAzLjUyNjc3NS03LjcxMTA4MyAzLjUyNjc3NS03LjU3OTU3N0MzLjUyNjc3NS03LjUxOTgwMSAzLjUxNDgxOS03LjQ3MTk4IDMuNDc4OTU0LTcuMzQwNDczTDEuODY1MDA2LS44ODQ2ODJDMS43NTc0MS0uNDY2MjUyIDEuNzMzNDk5LS4zNDY3IC44OTY2MzgtLjM0NjdDLjY2OTQ4OS0uMzQ2NyAuNTQ5OTM4LS4zNDY3IC41NDk5MzgtLjEzMTUwN0MuNTQ5OTM4IDAgLjYyMTY2OSAwIC44NjA3NzIgMEg2Ljg2MjI2N0M3LjEyNTI4IDAgNy4xMzcyMzUtLjAxMTk1NSA3LjIyMDkyMi0uMjAzMjM4TDguMzA4ODQyLTIuNzczNTk5WiIgaWQ9ImcyLTY5Ii8+JiN4YTs8cGF0aCBkPSJNNS4zMzIwMDUtNC44MDU5NzhDNS41NzExMDgtNC44MDU5NzggNS42NjY3NS00LjgwNTk3OCA1LjY2Njc1LTUuMDMzMTI2QzUuNjY2NzUtNS4xNTI2NzcgNS41NzExMDgtNS4xNTI2NzcgNS4zNTU5MTUtNS4xNTI2NzdINC4zODc1NDdDNC42MTQ2OTUtNi4zODQwNiA0Ljc4MjA2Ny03LjIzMjg3NyA0Ljg3NzcwOS03LjYxNTQ0MkM0Ljk0OTQ0LTcuOTAyMzY2IDUuMjAwNDk4LTguMTc3MzM1IDUuNTExMzMzLTguMTc3MzM1QzUuNzYyMzkxLTguMTc3MzM1IDYuMDEzNDUtOC4wNjk3MzggNi4xMzMwMDEtNy45NjIxNDJDNS42NjY3NS03LjkxNDMyMSA1LjUyMzI4OC03LjU2NzYyMSA1LjUyMzI4OC03LjM2NDM4NEM1LjUyMzI4OC03LjEyNTI4IDUuNzAyNjE1LTYuOTgxODE4IDUuOTI5NzYzLTYuOTgxODE4QzYuMTY4ODY3LTYuOTgxODE4IDYuNTI3NTIyLTcuMTg1MDU2IDYuNTI3NTIyLTcuNjM5MzUyQzYuNTI3NTIyLTguMTQxNDY5IDYuMDI1NDA1LTguNDE2NDM4IDUuNDk5Mzc3LTguNDE2NDM4QzQuOTg1MzA1LTguNDE2NDM4IDQuNDgzMTg4LTguMDMzODczIDQuMjQ0MDg1LTcuNTY3NjIxQzQuMDI4ODkyLTcuMTQ5MTkxIDMuOTA5MzQtNi43MTg4MDQgMy42MzQzNzEtNS4xNTI2NzdIMi44MzMzNzVDMi42MDYyMjctNS4xNTI2NzcgMi40ODY2NzUtNS4xNTI2NzcgMi40ODY2NzUtNC45Mzc0ODRDMi40ODY2NzUtNC44MDU5NzggMi41NTg0MDYtNC44MDU5NzggMi43OTc1MDktNC44MDU5NzhIMy41NjI2NEMzLjM0NzQ0Ny0zLjY5NDE0NyAyLjg1NzI4NS0uOTkyMjc5IDIuNTgyMzE2IC4yODY5MjRDMi4zNzkwNzggMS4zMjcwMjQgMi4xOTk3NTEgMi4xOTk3NTEgMS42MDE5OTMgMi4xOTk3NTFDMS41NjYxMjcgMi4xOTk3NTEgMS4yMTk0MjcgMi4xOTk3NTEgMS4wMDQyMzQgMS45NzI2MDNDMS42MTM5NDggMS45MjQ3ODIgMS42MTM5NDggMS4zOTg3NTUgMS42MTM5NDggMS4zODY4QzEuNjEzOTQ4IDEuMTQ3Njk2IDEuNDM0NjIgMS4wMDQyMzQgMS4yMDc0NzIgMS4wMDQyMzRDLjk2ODM2OSAxLjAwNDIzNCAuNjA5NzE0IDEuMjA3NDcyIC42MDk3MTQgMS42NjE3NjhDLjYwOTcxNCAyLjE3NTg0MSAxLjEzNTc0MSAyLjQzODg1NCAxLjYwMTk5MyAyLjQzODg1NEMyLjgyMTQyIDIuNDM4ODU0IDMuMzIzNTM3IC4yNTEwNTkgMy40NTUwNDQtLjM0NjdDMy42NzAyMzctMS4yNjcyNDggNC4yNTYwNC00LjQ0NzMyMyA0LjMxNTgxNi00LjgwNTk3OEg1LjMzMjAwNVoiIGlkPSJnMi0xMDIiLz4mI3hhOzxwYXRoIGQ9Ik01LjY2Njc1LTQuODc3NzA5QzUuMjg0MTg0LTQuODA1OTc4IDUuMTQwNzIyLTQuNTE5MDU0IDUuMTQwNzIyLTQuMjkxOTA1QzUuMTQwNzIyLTQuMDA0OTgxIDUuMzY3ODctMy45MDkzNCA1LjUzNTI0My0zLjkwOTM0QzUuODkzODk4LTMuOTA5MzQgNi4xNDQ5NTYtNC4yMjAxNzQgNi4xNDQ5NTYtNC41NDI5NjRDNi4xNDQ5NTYtNS4wNDUwODEgNS41NzExMDgtNS4yNzIyMjkgNS4wNjg5OTEtNS4yNzIyMjlDNC4zMzk3MjYtNS4yNzIyMjkgMy45MzMyNS00LjU1NDkxOSAzLjgyNTY1NC00LjMyNzc3MUMzLjU1MDY4NS01LjIyNDQwOCAyLjgwOTQ2NS01LjI3MjIyOSAyLjU5NDI3MS01LjI3MjIyOUMxLjM3NDg0NC01LjI3MjIyOSAuNzI5MjY1LTMuNzA2MTAyIC43MjkyNjUtMy40NDMwODhDLjcyOTI2NS0zLjM5NTI2OCAuNzc3MDg2LTMuMzM1NDkyIC44NjA3NzItMy4zMzU0OTJDLjk1NjQxMy0zLjMzNTQ5MiAuOTgwMzI0LTMuNDA3MjIzIDEuMDA0MjM0LTMuNDU1MDQ0QzEuNDEwNzEtNC43ODIwNjcgMi4yMTE3MDYtNS4wMzMxMjYgMi41NTg0MDYtNS4wMzMxMjZDMy4wOTYzODktNS4wMzMxMjYgMy4yMDM5ODUtNC41MzEwMDkgMy4yMDM5ODUtNC4yNDQwODVDMy4yMDM5ODUtMy45ODEwNzEgMy4xMzIyNTQtMy43MDYxMDIgMi45ODg3OTItMy4xMzIyNTRMMi41ODIzMTYtMS40OTQzOTZDMi40MDI5ODktLjc3NzA4NiAyLjA1NjI4OS0uMTE5NTUyIDEuNDIyNjY1LS4xMTk1NTJDMS4zNjI4ODktLjExOTU1MiAxLjA2NDAxLS4xMTk1NTIgLjgxMjk1MS0uMjc0OTY5QzEuMjQzMzM3LS4zNTg2NTUgMS4zMzg5NzktLjcxNzMxIDEuMzM4OTc5LS44NjA3NzJDMS4zMzg5NzktMS4wOTk4NzUgMS4xNTk2NTEtMS4yNDMzMzcgLjkzMjUwMy0xLjI0MzMzN0MuNjQ1NTc5LTEuMjQzMzM3IC4zMzQ3NDUtLjk5MjI3OSAuMzM0NzQ1LS42MDk3MTRDLjMzNDc0NS0uMTA3NTk3IC44OTY2MzggLjExOTU1MiAxLjQxMDcxIC4xMTk1NTJDMS45ODQ1NTggLjExOTU1MiAyLjM5MTAzNC0uMzM0NzQ1IDIuNjQyMDkyLS44MjQ5MDdDMi44MzMzNzUtLjExOTU1MiAzLjQzMTEzMyAuMTE5NTUyIDMuODczNDc0IC4xMTk1NTJDNS4wOTI5MDIgLjExOTU1MiA1LjczODQ4MS0xLjQ0NjU3NSA1LjczODQ4MS0xLjcwOTU4OUM1LjczODQ4MS0xLjc2OTM2NSA1LjY5MDY2LTEuODE3MTg2IDUuNjE4OTI5LTEuODE3MTg2QzUuNTExMzMzLTEuODE3MTg2IDUuNDk5Mzc3LTEuNzU3NDEgNS40NjM1MTItMS42NjE3NjhDNS4xNDA3MjItLjYwOTcxNCA0LjQ0NzMyMy0uMTE5NTUyIDMuOTA5MzQtLjExOTU1MkMzLjQ5MDkwOS0uMTE5NTUyIDMuMjYzNzYxLS40MzAzODYgMy4yNjM3NjEtLjkyMDU0OEMzLjI2Mzc2MS0xLjE4MzU2MiAzLjMxMTU4Mi0xLjM3NDg0NCAzLjUwMjg2NC0yLjE2Mzg4NUwzLjkyMTI5NS0zLjc4OTc4OEM0LjEwMDYyMy00LjUwNzA5OCA0LjUwNzA5OC01LjAzMzEyNiA1LjA1NzAzNi01LjAzMzEyNkM1LjA4MDk0Ni01LjAzMzEyNiA1LjQxNTY5MS01LjAzMzEyNiA1LjY2Njc1LTQuODc3NzA5WiIgaWQ9ImcyLTEyMCIvPiYjeGE7PHBhdGggZD0iTTEuNTE4MzA2LS45NjgzNjlDMi4wMzIzNzktMS41NTQxNzIgMi40NTA4MDktMS45MjQ3ODIgMy4wNDg1NjgtMi40NjI3NjVDMy43NjU4NzgtMy4wODQ0MzMgNC4wNzY3MTItMy4zODMzMTMgNC4yNDQwODUtMy41NjI2NEM1LjA4MDk0Ni00LjM4NzU0NyA1LjQ5OTM3Ny01LjA4MDk0NiA1LjQ5OTM3Ny01LjE3NjU4OFM1LjQwMzczNi01LjI3MjIyOSA1LjM3OTgyNi01LjI3MjIyOUM1LjI5NjEzOS01LjI3MjIyOSA1LjI3MjIyOS01LjIyNDQwOCA1LjIxMjQ1My01LjE0MDcyMkM0LjkxMzU3NC00LjYyNjY1IDQuNjI2NjUtNC4zNzU1OTIgNC4zMTU4MTYtNC4zNzU1OTJDNC4wNjQ3NTctNC4zNzU1OTIgMy45MzMyNS00LjQ4MzE4OCAzLjcwNjEwMi00Ljc3MDExMkMzLjQ1NTA0NC01LjA2ODk5MSAzLjI1MTgwNi01LjI3MjIyOSAyLjkwNTEwNi01LjI3MjIyOUMyLjAzMjM3OS01LjI3MjIyOSAxLjUwNjM1MS00LjE4NDMwOSAxLjUwNjM1MS0zLjkzMzI1QzEuNTA2MzUxLTMuODk3Mzg1IDEuNTE4MzA2LTMuODI1NjU0IDEuNjI1OTAzLTMuODI1NjU0QzEuNzIxNTQ0LTMuODI1NjU0IDEuNzMzNDk5LTMuODczNDc0IDEuNzY5MzY1LTMuOTU3MTYxQzEuOTcyNjAzLTQuNDM1MzY3IDIuNTQ2NDUxLTQuNTE5MDU0IDIuNzczNTk5LTQuNTE5MDU0QzMuMDI0NjU4LTQuNTE5MDU0IDMuMjYzNzYxLTQuNDM1MzY3IDMuNTE0ODE5LTQuMzI3NzcxQzMuOTY5MTE2LTQuMTM2NDg4IDQuMTYwMzk5LTQuMTM2NDg4IDQuMjc5OTUtNC4xMzY0ODhDNC4zNjM2MzYtNC4xMzY0ODggNC40MTE0NTctNC4xMzY0ODggNC40NzEyMzMtNC4xNDg0NDNDNC4wNzY3MTItMy42ODIxOTIgMy40MzExMzMtMy4xMDgzNDQgMi44OTMxNTEtMi42MTgxODJMMS42ODU2NzktMS41MDYzNTFDLjk1NjQxMy0uNzY1MTMxIC41MTQwNzItLjA1OTc3NiAuNTE0MDcyIC4wMjM5MUMuNTE0MDcyIC4wOTU2NDEgLjU3Mzg0OCAuMTE5NTUyIC42NDU1NzkgLjExOTU1MlMuNzI5MjY1IC4xMDc1OTcgLjgxMjk1MS0uMDM1ODY2QzEuMDA0MjM0LS4zMzQ3NDUgMS4zODY4LS43NzcwODYgMS44MjkxNDEtLjc3NzA4NkMyLjA4MDE5OS0uNzc3MDg2IDIuMTk5NzUxLS42OTM0IDIuNDM4ODU0LS4zOTQ1MjFDMi42NjYwMDItLjEzMTUwNyAyLjg2OTI0IC4xMTk1NTIgMy4yNTE4MDYgLjExOTU1MkM0LjQyMzQxMiAuMTE5NTUyIDUuMDkyOTAyLTEuMzk4NzU1IDUuMDkyOTAyLTEuNjczNzI0QzUuMDkyOTAyLTEuNzIxNTQ0IDUuMDgwOTQ2LTEuNzkzMjc1IDQuOTYxMzk1LTEuNzkzMjc1QzQuODY1NzUzLTEuNzkzMjc1IDQuODUzNzk4LTEuNzQ1NDU1IDQuODE3OTMzLTEuNjI1OTAzQzQuNTU0OTE5LS45MjA1NDggMy44NDk1NjQtLjYzMzYyNCAzLjM4MzMxMy0uNjMzNjI0QzMuMTMyMjU0LS42MzM2MjQgMi44OTMxNTEtLjcxNzMxIDIuNjQyMDkyLS44MjQ5MDdDMi4xNjM4ODUtMS4wMTYxODkgMi4wMzIzNzktMS4wMTYxODkgMS44NzY5NjEtMS4wMTYxODlDMS43NTc0MS0xLjAxNjE4OSAxLjYyNTkwMy0xLjAxNjE4OSAxLjUxODMwNi0uOTY4MzY5WiIgaWQ9ImcyLTEyMiIvPiYjeGE7PHBhdGggZD0iTTMuODg1NDMgMi45MDUxMDZDMy44ODU0MyAyLjg2OTI0IDMuODg1NDMgMi44NDUzMyAzLjY4MjE5MiAyLjY0MjA5MkMyLjQ4NjY3NSAxLjQzNDYyIDEuODE3MTg2LS41Mzc5ODMgMS44MTcxODYtMi45NzY4MzdDMS44MTcxODYtNS4yOTYxMzkgMi4zNzkwNzgtNy4yOTI2NTMgMy43NjU4NzgtOC43MDMzNjJDMy44ODU0My04LjgxMDk1OSAzLjg4NTQzLTguODM0ODY5IDMuODg1NDMtOC44NzA3MzVDMy44ODU0My04Ljk0MjQ2NiAzLjgyNTY1NC04Ljk2NjM3NiAzLjc3NzgzMy04Ljk2NjM3NkMzLjYyMjQxNi04Ljk2NjM3NiAyLjY0MjA5Mi04LjEwNTYwNCAyLjA1NjI4OS02LjkzMzk5OEMxLjQ0NjU3NS01LjcyNjUyNiAxLjE3MTYwNi00LjQ0NzMyMyAxLjE3MTYwNi0yLjk3NjgzN0MxLjE3MTYwNi0xLjkxMjgyNyAxLjMzODk3OS0uNDkwMTYyIDEuOTYwNjQ4IC43ODkwNDFDMi42NjYwMDIgMi4yMjM2NjEgMy42NDYzMjYgMy4wMDA3NDcgMy43Nzc4MzMgMy4wMDA3NDdDMy44MjU2NTQgMy4wMDA3NDcgMy44ODU0MyAyLjk3NjgzNyAzLjg4NTQzIDIuOTA1MTA2WiIgaWQ9Imc0LTQwIi8+JiN4YTs8cGF0aCBkPSJNMy4zNzEzNTctMi45NzY4MzdDMy4zNzEzNTctMy44ODU0MyAzLjI1MTgwNi01LjM2Nzg3IDIuNTgyMzE2LTYuNzU0NjdDMS44NzY5NjEtOC4xODkyOSAuODk2NjM4LTguOTY2Mzc2IC43NjUxMzEtOC45NjYzNzZDLjcxNzMxLTguOTY2Mzc2IC42NTc1MzQtOC45NDI0NjYgLjY1NzUzNC04Ljg3MDczNUMuNjU3NTM0LTguODM0ODY5IC42NTc1MzQtOC44MTA5NTkgLjg2MDc3Mi04LjYwNzcyMUMyLjA1NjI4OS03LjQwMDI0OSAyLjcyNTc3OC01LjQyNzY0NiAyLjcyNTc3OC0yLjk4ODc5MkMyLjcyNTc3OC0uNjY5NDg5IDIuMTYzODg1IDEuMzI3MDI0IC43NzcwODYgMi43Mzc3MzNDLjY1NzUzNCAyLjg0NTMzIC42NTc1MzQgMi44NjkyNCAuNjU3NTM0IDIuOTA1MTA2Qy42NTc1MzQgMi45NzY4MzcgLjcxNzMxIDMuMDAwNzQ3IC43NjUxMzEgMy4wMDA3NDdDLjkyMDU0OCAzLjAwMDc0NyAxLjkwMDg3MiAyLjEzOTk3NSAyLjQ4NjY3NSAuOTY4MzY5QzMuMDk2Mzg5LS4yNTEwNTkgMy4zNzEzNTctMS41NDIyMTcgMy4zNzEzNTctMi45NzY4MzdaIiBpZD0iZzQtNDEiLz4mI3hhOzxwYXRoIGQ9Ik04LjA2OTczOC0zLjg3MzQ3NEM4LjIzNzExMS0zLjg3MzQ3NCA4LjQ1MjMwNC0zLjg3MzQ3NCA4LjQ1MjMwNC00LjA4ODY2N0M4LjQ1MjMwNC00LjMxNTgxNiA4LjI0OTA2Ni00LjMxNTgxNiA4LjA2OTczOC00LjMxNTgxNkgxLjAyODE0NEMuODYwNzcyLTQuMzE1ODE2IC42NDU1NzktNC4zMTU4MTYgLjY0NTU3OS00LjEwMDYyM0MuNjQ1NTc5LTMuODczNDc0IC44NDg4MTctMy44NzM0NzQgMS4wMjgxNDQtMy44NzM0NzRIOC4wNjk3MzhaTTguMDY5NzM4LTEuNjQ5ODEzQzguMjM3MTExLTEuNjQ5ODEzIDguNDUyMzA0LTEuNjQ5ODEzIDguNDUyMzA0LTEuODY1MDA2QzguNDUyMzA0LTIuMDkyMTU0IDguMjQ5MDY2LTIuMDkyMTU0IDguMDY5NzM4LTIuMDkyMTU0SDEuMDI4MTQ0Qy44NjA3NzItMi4wOTIxNTQgLjY0NTU3OS0yLjA5MjE1NCAuNjQ1NTc5LTEuODc2OTYxQy42NDU1NzktMS42NDk4MTMgLjg0ODgxNy0xLjY0OTgxMyAxLjAyODE0NC0xLjY0OTgxM0g4LjA2OTczOFoiIGlkPSJnNC02MSIvPiYjeGE7PHBhdGggZD0iTTIuNTAyNjE1LTUuMDc2OTYxQzIuNTAyNjE1LTUuMjkyMTU0IDIuNDg2Njc1LTUuMzAwMTI1IDIuMjcxNDgyLTUuMzAwMTI1QzEuOTQ0NzA3LTQuOTgxMzIgMS41MjIyOTEtNC43OTAwMzcgLjc2NTEzMS00Ljc5MDAzN1YtNC41MjcwMjRDLjk4MDMyNC00LjUyNzAyNCAxLjQxMDcxLTQuNTI3MDI0IDEuODcyOTc2LTQuNzQyMjE3Vi0uNjUzNTQ5QzEuODcyOTc2LS4zNTg2NTUgMS44NDkwNjYtLjI2MzAxNCAxLjA5MTkwNS0uMjYzMDE0SC44MTI5NTFWMEMxLjEzOTcyNi0uMDIzOTEgMS44MjUxNTYtLjAyMzkxIDIuMTgzODExLS4wMjM5MVMzLjIzNTg2Ni0uMDIzOTEgMy41NjI2NCAwVi0uMjYzMDE0SDMuMjgzNjg2QzIuNTI2NTI2LS4yNjMwMTQgMi41MDI2MTUtLjM1ODY1NSAyLjUwMjYxNS0uNjUzNTQ5Vi01LjA3Njk2MVoiIGlkPSJnMy00OSIvPiYjeGE7PHBhdGggZD0iTTIuMjQ3NTcyLTEuNjI1OTAzQzIuMzc1MDkzLTEuNzQ1NDU1IDIuNzA5ODM4LTIuMDA4NDY4IDIuODM3MzYtMi4xMjAwNUMzLjMzMTUwNy0yLjU3NDM0NiAzLjgwMTc0My0zLjAxMjcwMiAzLjgwMTc0My0zLjczNzk4M0MzLjgwMTc0My00LjY4NjQyNiAzLjAwNDczMi01LjMwMDEyNSAyLjAwODQ2OC01LjMwMDEyNUMxLjA1MjA1NS01LjMwMDEyNSAuNDIyNDE2LTQuNTc0ODQ0IC40MjI0MTYtMy44NjU1MDRDLjQyMjQxNi0zLjQ3NDk2OSAuNzMzMjUtMy40MTkxNzggLjg0NDgzMi0zLjQxOTE3OEMxLjAxMjIwNC0zLjQxOTE3OCAxLjI1OTI3OC0zLjUzODczIDEuMjU5Mjc4LTMuODQxNTk0QzEuMjU5Mjc4LTQuMjU2MDQgLjg2MDc3Mi00LjI1NjA0IC43NjUxMzEtNC4yNTYwNEMuOTk2MjY0LTQuODM3ODU4IDEuNTMwMjYyLTUuMDM3MTExIDEuOTIwNzk3LTUuMDM3MTExQzIuNjYyMDE3LTUuMDM3MTExIDMuMDQ0NTgzLTQuNDA3NDcyIDMuMDQ0NTgzLTMuNzM3OTgzQzMuMDQ0NTgzLTIuOTA5MDkxIDIuNDYyNzY1LTIuMzAzMzYyIDEuNTIyMjkxLTEuMzM4OTc5TC41MTgwNTctLjMwMjg2NEMuNDIyNDE2LS4yMTUxOTMgLjQyMjQxNi0uMTk5MjUzIC40MjI0MTYgMEgzLjU3MDYxTDMuODAxNzQzLTEuNDI2NjVIMy41NTQ2N0MzLjUzMDc2LTEuMjY3MjQ4IDMuNDY2OTk5LS44Njg3NDIgMy4zNzEzNTctLjcxNzMxQzMuMzIzNTM3LS42NTM1NDkgMi43MTc4MDgtLjY1MzU0OSAyLjU5MDI4Ni0uNjUzNTQ5SDEuMTcxNjA2TDIuMjQ3NTcyLTEuNjI1OTAzWiIgaWQ9ImczLTUwIi8+JiN4YTs8cGF0aCBkPSJNMi4wMTY0MzgtMi42NjIwMTdDMi42NDYwNzctMi42NjIwMTcgMy4wNDQ1ODMtMi4xOTk3NTEgMy4wNDQ1ODMtMS4zNjI4ODlDMy4wNDQ1ODMtLjM2NjYyNSAyLjQ3ODcwNS0uMDcxNzMxIDIuMDU2Mjg5LS4wNzE3MzFDMS42MTc5MzMtLjA3MTczMSAxLjAyMDE3NC0uMjMxMTMzIC43NDEyMi0uNjUzNTQ5QzEuMDI4MTQ0LS42NTM1NDkgMS4yMjczOTctLjgzNjg2MiAxLjIyNzM5Ny0xLjA5OTg3NUMxLjIyNzM5Ny0xLjM1NDkxOSAxLjA0NDA4NS0xLjUzODIzMiAuNzg5MDQxLTEuNTM4MjMyQy41NzM4NDgtMS41MzgyMzIgLjM1MDY4NS0xLjQwMjc0IC4zNTA2ODUtMS4wODM5MzVDLjM1MDY4NS0uMzI2Nzc1IDEuMTYzNjM2IC4xNjczNzIgMi4wNzIyMjkgLjE2NzM3MkMzLjEzMjI1NCAuMTY3MzcyIDMuODczNDc0LS41NjU4NzggMy44NzM0NzQtMS4zNjI4ODlDMy44NzM0NzQtMi4wMjQ0MDggMy4zNDc0NDctMi42MzAxMzcgMi41MzQ0OTYtMi44MDU0NzlDMy4xNjQxMzQtMy4wMjg2NDMgMy42MzQzNzEtMy41NzA2MSAzLjYzNDM3MS00LjIwODIxOVMyLjkxNzA2MS01LjMwMDEyNSAyLjA4ODE2OS01LjMwMDEyNUMxLjIzNTM2Ny01LjMwMDEyNSAuNTg5Nzg4LTQuODM3ODU4IC41ODk3ODgtNC4yMzIxM0MuNTg5Nzg4LTMuOTM3MjM1IC43ODkwNDEtMy44MDk3MTQgLjk5NjI2NC0zLjgwOTcxNEMxLjI0MzMzNy0zLjgwOTcxNCAxLjQwMjc0LTMuOTg1MDU2IDEuNDAyNzQtNC4yMTYxODlDMS40MDI3NC00LjUxMTA4MyAxLjE0NzY5Ni00LjYyMjY2NSAuOTcyMzU0LTQuNjMwNjM1QzEuMzA3MDk4LTUuMDY4OTkxIDEuOTIwNzk3LTUuMDkyOTAyIDIuMDY0MjU5LTUuMDkyOTAyQzIuMjcxNDgyLTUuMDkyOTAyIDIuODc3MjEtNS4wMjkxNDEgMi44NzcyMS00LjIwODIxOUMyLjg3NzIxLTMuNjUwMzExIDIuNjQ2MDc3LTMuMzE1NTY3IDIuNTM0NDk2LTMuMTg4MDQ1QzIuMjk1MzkyLTIuOTQwOTcxIDIuMTEyMDgtMi45MjUwMzEgMS42MjU5MDMtMi44OTMxNTFDMS40NzQ0NzEtMi44ODUxODEgMS40MTA3MS0yLjg3NzIxIDEuNDEwNzEtMi43NzM1OTlDMS40MTA3MS0yLjY2MjAxNyAxLjQ4MjQ0MS0yLjY2MjAxNyAxLjYxNzkzMy0yLjY2MjAxN0gyLjAxNjQzOFoiIGlkPSJnMy01MSIvPiYjeGE7PHBhdGggZD0iTTEuOTAwODcyLTguNTM1OTlDMS45MDA4NzItOC43NTExODMgMS45MDA4NzItOC45NjYzNzYgMS42NjE3NjgtOC45NjYzNzZTMS40MjI2NjUtOC43NTExODMgMS40MjI2NjUtOC41MzU5OVYyLjU1ODQwNkMxLjQyMjY2NSAyLjc3MzU5OSAxLjQyMjY2NSAyLjk4ODc5MiAxLjY2MTc2OCAyLjk4ODc5MlMxLjkwMDg3MiAyLjc3MzU5OSAxLjkwMDg3MiAyLjU1ODQwNlYtOC41MzU5OVoiIGlkPSJnMC0xMDYiLz4mI3hhOzwvZGVmcz4mI3hhOzxnIHRyYW5zZm9ybT0ibWF0cml4KDEuMTMgMCAwIDEuMTMgLTIwNC4wNDQyNjEgLTgwLjc5NSkiIGlkPSJwYWdlMSI+JiN4YTs8dXNlIHhsaW5rOmhyZWY9IiNnMi02OSIgeT0iODAuMTk5MjUzIiB4PSIxNzkuMzQ1NTk3Ii8+JiN4YTs8dXNlIHhsaW5rOmhyZWY9IiNnNC00MCIgeT0iODAuMTk5MjUzIiB4PSIxODguNzExNzkxIi8+JiN4YTs8dXNlIHhsaW5rOmhyZWY9IiNnMi0xMDIiIHk9IjgwLjE5OTI1MyIgeD0iMTkzLjI2NDExNyIvPiYjeGE7PHVzZSB4bGluazpocmVmPSIjZzQtNDAiIHk9IjgwLjE5OTI1MyIgeD0iMjAwLjMxMDU1MyIvPiYjeGE7PHVzZSB4bGluazpocmVmPSIjZzItMTIyIiB5PSI4MC4xOTkyNTMiIHg9IjIwNC44NjI4NzkiLz4mI3hhOzx1c2UgeGxpbms6aHJlZj0iI2c0LTQxIiB5PSI4MC4xOTkyNTMiIHg9IjIxMC44MzM0ODYiLz4mI3hhOzx1c2UgeGxpbms6aHJlZj0iI2cwLTEwNiIgeT0iODAuMTk5MjUzIiB4PSIyMTUuMzg1ODExIi8+JiN4YTs8dXNlIHhsaW5rOmhyZWY9IiNnMi0xMjIiIHk9IjgwLjE5OTI1MyIgeD0iMjE4LjcwNjcwMiIvPiYjeGE7PHVzZSB4bGluazpocmVmPSIjZzMtNDkiIHk9IjgxLjk5MjUxNiIgeD0iMjI0LjE0NDU5MiIvPiYjeGE7PHVzZSB4bGluazpocmVmPSIjZzEtNTkiIHk9IjgxLjk5MjUxNiIgeD0iMjI4LjM3ODc3NSIvPiYjeGE7PHVzZSB4bGluazpocmVmPSIjZzMtNTAiIHk9IjgxLjk5MjUxNiIgeD0iMjMwLjczMTA5OSIvPiYjeGE7PHVzZSB4bGluazpocmVmPSIjZzEtNTkiIHk9IjgxLjk5MjUxNiIgeD0iMjM0Ljk2NTI4MSIvPiYjeGE7PHVzZSB4bGluazpocmVmPSIjZzMtNTEiIHk9IjgxLjk5MjUxNiIgeD0iMjM3LjMxNzYwNSIvPiYjeGE7PHVzZSB4bGluazpocmVmPSIjZzQtNjEiIHk9IjgwLjE5OTI1MyIgeD0iMjQ1LjM3MDc0OSIvPiYjeGE7PHVzZSB4bGluazpocmVmPSIjZzItMTIwIiB5PSI4MC4xOTkyNTMiIHg9IjI1Ny43OTYyMyIvPiYjeGE7PHVzZSB4bGluazpocmVmPSIjZzMtNDkiIHk9IjgxLjk5MjUxNiIgeD0iMjY0LjQ0ODMxNyIvPiYjeGE7PHVzZSB4bGluazpocmVmPSIjZzEtNTkiIHk9IjgxLjk5MjUxNiIgeD0iMjY4LjY4MjUiLz4mI3hhOzx1c2UgeGxpbms6aHJlZj0iI2czLTUwIiB5PSI4MS45OTI1MTYiIHg9IjI3MS4wMzQ4MjQiLz4mI3hhOzx1c2UgeGxpbms6aHJlZj0iI2cxLTU5IiB5PSI4MS45OTI1MTYiIHg9IjI3NS4yNjkwMDciLz4mI3hhOzx1c2UgeGxpbms6aHJlZj0iI2czLTUxIiB5PSI4MS45OTI1MTYiIHg9IjI3Ny42MjEzMzEiLz4mI3hhOzx1c2UgeGxpbms6aHJlZj0iI2c0LTQxIiB5PSI4MC4xOTkyNTMiIHg9IjI4Mi4zNTM2NDYiLz4mI3hhOzwvZz4mI3hhOzwvc3ZnPg==;" parent="1" vertex="1">
          <mxGeometry x="674.86" y="354.75" width="171.43" height="20" as="geometry" />
        </mxCell>
        <mxCell id="oeOo5yVUWWmrvXHps0cV-12" value="" style="shape=image;verticalLabelPosition=bottom;labelBackgroundColor=default;verticalAlign=top;aspect=fixed;imageAspect=0;image=data:image/svg+xml,PHN2ZyB4bWxuczp4bGluaz0iaHR0cDovL3d3dy53My5vcmcvMTk5OS94bGluayIgeG1sbnM9Imh0dHA6Ly93d3cudzMub3JnLzIwMDAvc3ZnIiB2aWV3Qm94PSItLjIzOTA1MSAtLjI0MDYzNSAyNC40MzMwOTQgMTMuNTIyODQ5IiBoZWlnaHQ9IjEzLjUyMjg0OXB0IiB3aWR0aD0iMjQuNDMzMDk0cHQiIHZlcnNpb249IjEuMSI+JiN4YTs8ZGVmcz4mI3hhOzxwYXRoIGQ9Ik0zLjg4NTQzIDIuOTA1MTA2QzMuODg1NDMgMi44NjkyNCAzLjg4NTQzIDIuODQ1MzMgMy42ODIxOTIgMi42NDIwOTJDMi40ODY2NzUgMS40MzQ2MiAxLjgxNzE4Ni0uNTM3OTgzIDEuODE3MTg2LTIuOTc2ODM3QzEuODE3MTg2LTUuMjk2MTM5IDIuMzc5MDc4LTcuMjkyNjUzIDMuNzY1ODc4LTguNzAzMzYyQzMuODg1NDMtOC44MTA5NTkgMy44ODU0My04LjgzNDg2OSAzLjg4NTQzLTguODcwNzM1QzMuODg1NDMtOC45NDI0NjYgMy44MjU2NTQtOC45NjYzNzYgMy43Nzc4MzMtOC45NjYzNzZDMy42MjI0MTYtOC45NjYzNzYgMi42NDIwOTItOC4xMDU2MDQgMi4wNTYyODktNi45MzM5OThDMS40NDY1NzUtNS43MjY1MjYgMS4xNzE2MDYtNC40NDczMjMgMS4xNzE2MDYtMi45NzY4MzdDMS4xNzE2MDYtMS45MTI4MjcgMS4zMzg5NzktLjQ5MDE2MiAxLjk2MDY0OCAuNzg5MDQxQzIuNjY2MDAyIDIuMjIzNjYxIDMuNjQ2MzI2IDMuMDAwNzQ3IDMuNzc3ODMzIDMuMDAwNzQ3QzMuODI1NjU0IDMuMDAwNzQ3IDMuODg1NDMgMi45NzY4MzcgMy44ODU0MyAyLjkwNTEwNloiIGlkPSJnMS00MCIvPiYjeGE7PHBhdGggZD0iTTMuMzcxMzU3LTIuOTc2ODM3QzMuMzcxMzU3LTMuODg1NDMgMy4yNTE4MDYtNS4zNjc4NyAyLjU4MjMxNi02Ljc1NDY3QzEuODc2OTYxLTguMTg5MjkgLjg5NjYzOC04Ljk2NjM3NiAuNzY1MTMxLTguOTY2Mzc2Qy43MTczMS04Ljk2NjM3NiAuNjU3NTM0LTguOTQyNDY2IC42NTc1MzQtOC44NzA3MzVDLjY1NzUzNC04LjgzNDg2OSAuNjU3NTM0LTguODEwOTU5IC44NjA3NzItOC42MDc3MjFDMi4wNTYyODktNy40MDAyNDkgMi43MjU3NzgtNS40Mjc2NDYgMi43MjU3NzgtMi45ODg3OTJDMi43MjU3NzgtLjY2OTQ4OSAyLjE2Mzg4NSAxLjMyNzAyNCAuNzc3MDg2IDIuNzM3NzMzQy42NTc1MzQgMi44NDUzMyAuNjU3NTM0IDIuODY5MjQgLjY1NzUzNCAyLjkwNTEwNkMuNjU3NTM0IDIuOTc2ODM3IC43MTczMSAzLjAwMDc0NyAuNzY1MTMxIDMuMDAwNzQ3Qy45MjA1NDggMy4wMDA3NDcgMS45MDA4NzIgMi4xMzk5NzUgMi40ODY2NzUgLjk2ODM2OUMzLjA5NjM4OS0uMjUxMDU5IDMuMzcxMzU3LTEuNTQyMjE3IDMuMzcxMzU3LTIuOTc2ODM3WiIgaWQ9ImcxLTQxIi8+JiN4YTs8cGF0aCBkPSJNNS4zMzIwMDUtNC44MDU5NzhDNS41NzExMDgtNC44MDU5NzggNS42NjY3NS00LjgwNTk3OCA1LjY2Njc1LTUuMDMzMTI2QzUuNjY2NzUtNS4xNTI2NzcgNS41NzExMDgtNS4xNTI2NzcgNS4zNTU5MTUtNS4xNTI2NzdINC4zODc1NDdDNC42MTQ2OTUtNi4zODQwNiA0Ljc4MjA2Ny03LjIzMjg3NyA0Ljg3NzcwOS03LjYxNTQ0MkM0Ljk0OTQ0LTcuOTAyMzY2IDUuMjAwNDk4LTguMTc3MzM1IDUuNTExMzMzLTguMTc3MzM1QzUuNzYyMzkxLTguMTc3MzM1IDYuMDEzNDUtOC4wNjk3MzggNi4xMzMwMDEtNy45NjIxNDJDNS42NjY3NS03LjkxNDMyMSA1LjUyMzI4OC03LjU2NzYyMSA1LjUyMzI4OC03LjM2NDM4NEM1LjUyMzI4OC03LjEyNTI4IDUuNzAyNjE1LTYuOTgxODE4IDUuOTI5NzYzLTYuOTgxODE4QzYuMTY4ODY3LTYuOTgxODE4IDYuNTI3NTIyLTcuMTg1MDU2IDYuNTI3NTIyLTcuNjM5MzUyQzYuNTI3NTIyLTguMTQxNDY5IDYuMDI1NDA1LTguNDE2NDM4IDUuNDk5Mzc3LTguNDE2NDM4QzQuOTg1MzA1LTguNDE2NDM4IDQuNDgzMTg4LTguMDMzODczIDQuMjQ0MDg1LTcuNTY3NjIxQzQuMDI4ODkyLTcuMTQ5MTkxIDMuOTA5MzQtNi43MTg4MDQgMy42MzQzNzEtNS4xNTI2NzdIMi44MzMzNzVDMi42MDYyMjctNS4xNTI2NzcgMi40ODY2NzUtNS4xNTI2NzcgMi40ODY2NzUtNC45Mzc0ODRDMi40ODY2NzUtNC44MDU5NzggMi41NTg0MDYtNC44MDU5NzggMi43OTc1MDktNC44MDU5NzhIMy41NjI2NEMzLjM0NzQ0Ny0zLjY5NDE0NyAyLjg1NzI4NS0uOTkyMjc5IDIuNTgyMzE2IC4yODY5MjRDMi4zNzkwNzggMS4zMjcwMjQgMi4xOTk3NTEgMi4xOTk3NTEgMS42MDE5OTMgMi4xOTk3NTFDMS41NjYxMjcgMi4xOTk3NTEgMS4yMTk0MjcgMi4xOTk3NTEgMS4wMDQyMzQgMS45NzI2MDNDMS42MTM5NDggMS45MjQ3ODIgMS42MTM5NDggMS4zOTg3NTUgMS42MTM5NDggMS4zODY4QzEuNjEzOTQ4IDEuMTQ3Njk2IDEuNDM0NjIgMS4wMDQyMzQgMS4yMDc0NzIgMS4wMDQyMzRDLjk2ODM2OSAxLjAwNDIzNCAuNjA5NzE0IDEuMjA3NDcyIC42MDk3MTQgMS42NjE3NjhDLjYwOTcxNCAyLjE3NTg0MSAxLjEzNTc0MSAyLjQzODg1NCAxLjYwMTk5MyAyLjQzODg1NEMyLjgyMTQyIDIuNDM4ODU0IDMuMzIzNTM3IC4yNTEwNTkgMy40NTUwNDQtLjM0NjdDMy42NzAyMzctMS4yNjcyNDggNC4yNTYwNC00LjQ0NzMyMyA0LjMxNTgxNi00LjgwNTk3OEg1LjMzMjAwNVoiIGlkPSJnMC0xMDIiLz4mI3hhOzxwYXRoIGQ9Ik01LjY2Njc1LTQuODc3NzA5QzUuMjg0MTg0LTQuODA1OTc4IDUuMTQwNzIyLTQuNTE5MDU0IDUuMTQwNzIyLTQuMjkxOTA1QzUuMTQwNzIyLTQuMDA0OTgxIDUuMzY3ODctMy45MDkzNCA1LjUzNTI0My0zLjkwOTM0QzUuODkzODk4LTMuOTA5MzQgNi4xNDQ5NTYtNC4yMjAxNzQgNi4xNDQ5NTYtNC41NDI5NjRDNi4xNDQ5NTYtNS4wNDUwODEgNS41NzExMDgtNS4yNzIyMjkgNS4wNjg5OTEtNS4yNzIyMjlDNC4zMzk3MjYtNS4yNzIyMjkgMy45MzMyNS00LjU1NDkxOSAzLjgyNTY1NC00LjMyNzc3MUMzLjU1MDY4NS01LjIyNDQwOCAyLjgwOTQ2NS01LjI3MjIyOSAyLjU5NDI3MS01LjI3MjIyOUMxLjM3NDg0NC01LjI3MjIyOSAuNzI5MjY1LTMuNzA2MTAyIC43MjkyNjUtMy40NDMwODhDLjcyOTI2NS0zLjM5NTI2OCAuNzc3MDg2LTMuMzM1NDkyIC44NjA3NzItMy4zMzU0OTJDLjk1NjQxMy0zLjMzNTQ5MiAuOTgwMzI0LTMuNDA3MjIzIDEuMDA0MjM0LTMuNDU1MDQ0QzEuNDEwNzEtNC43ODIwNjcgMi4yMTE3MDYtNS4wMzMxMjYgMi41NTg0MDYtNS4wMzMxMjZDMy4wOTYzODktNS4wMzMxMjYgMy4yMDM5ODUtNC41MzEwMDkgMy4yMDM5ODUtNC4yNDQwODVDMy4yMDM5ODUtMy45ODEwNzEgMy4xMzIyNTQtMy43MDYxMDIgMi45ODg3OTItMy4xMzIyNTRMMi41ODIzMTYtMS40OTQzOTZDMi40MDI5ODktLjc3NzA4NiAyLjA1NjI4OS0uMTE5NTUyIDEuNDIyNjY1LS4xMTk1NTJDMS4zNjI4ODktLjExOTU1MiAxLjA2NDAxLS4xMTk1NTIgLjgxMjk1MS0uMjc0OTY5QzEuMjQzMzM3LS4zNTg2NTUgMS4zMzg5NzktLjcxNzMxIDEuMzM4OTc5LS44NjA3NzJDMS4zMzg5NzktMS4wOTk4NzUgMS4xNTk2NTEtMS4yNDMzMzcgLjkzMjUwMy0xLjI0MzMzN0MuNjQ1NTc5LTEuMjQzMzM3IC4zMzQ3NDUtLjk5MjI3OSAuMzM0NzQ1LS42MDk3MTRDLjMzNDc0NS0uMTA3NTk3IC44OTY2MzggLjExOTU1MiAxLjQxMDcxIC4xMTk1NTJDMS45ODQ1NTggLjExOTU1MiAyLjM5MTAzNC0uMzM0NzQ1IDIuNjQyMDkyLS44MjQ5MDdDMi44MzMzNzUtLjExOTU1MiAzLjQzMTEzMyAuMTE5NTUyIDMuODczNDc0IC4xMTk1NTJDNS4wOTI5MDIgLjExOTU1MiA1LjczODQ4MS0xLjQ0NjU3NSA1LjczODQ4MS0xLjcwOTU4OUM1LjczODQ4MS0xLjc2OTM2NSA1LjY5MDY2LTEuODE3MTg2IDUuNjE4OTI5LTEuODE3MTg2QzUuNTExMzMzLTEuODE3MTg2IDUuNDk5Mzc3LTEuNzU3NDEgNS40NjM1MTItMS42NjE3NjhDNS4xNDA3MjItLjYwOTcxNCA0LjQ0NzMyMy0uMTE5NTUyIDMuOTA5MzQtLjExOTU1MkMzLjQ5MDkwOS0uMTE5NTUyIDMuMjYzNzYxLS40MzAzODYgMy4yNjM3NjEtLjkyMDU0OEMzLjI2Mzc2MS0xLjE4MzU2MiAzLjMxMTU4Mi0xLjM3NDg0NCAzLjUwMjg2NC0yLjE2Mzg4NUwzLjkyMTI5NS0zLjc4OTc4OEM0LjEwMDYyMy00LjUwNzA5OCA0LjUwNzA5OC01LjAzMzEyNiA1LjA1NzAzNi01LjAzMzEyNkM1LjA4MDk0Ni01LjAzMzEyNiA1LjQxNTY5MS01LjAzMzEyNiA1LjY2Njc1LTQuODc3NzA5WiIgaWQ9ImcwLTEyMCIvPiYjeGE7PC9kZWZzPiYjeGE7PGcgdHJhbnNmb3JtPSJtYXRyaXgoMS4xMyAwIDAgMS4xMyAtNjMuOTg2MDQzIC02NC40MSkiIGlkPSJwYWdlMSI+JiN4YTs8dXNlIHhsaW5rOmhyZWY9IiNnMC0xMDIiIHk9IjY1Ljc1MzQyNSIgeD0iNTYuNDEzMjY3Ii8+JiN4YTs8dXNlIHhsaW5rOmhyZWY9IiNnMS00MCIgeT0iNjUuNzUzNDI1IiB4PSI2My40NTk3MDQiLz4mI3hhOzx1c2UgeGxpbms6aHJlZj0iI2cwLTEyMCIgeT0iNjUuNzUzNDI1IiB4PSI2OC4wMTIwMjkiLz4mI3hhOzx1c2UgeGxpbms6aHJlZj0iI2cxLTQxIiB5PSI2NS43NTM0MjUiIHg9Ijc0LjY2NDExNyIvPiYjeGE7PC9nPiYjeGE7PC9zdmc+;" parent="1" vertex="1">
          <mxGeometry x="436.99999999999994" y="355.5" width="34.29" height="20" as="geometry" />
        </mxCell>
        <mxCell id="oeOo5yVUWWmrvXHps0cV-16" value="" style="endArrow=classic;html=1;rounded=0;strokeWidth=2;" parent="1" edge="1">
          <mxGeometry width="50" height="50" relative="1" as="geometry">
            <mxPoint x="453.69000000000005" y="384" as="sourcePoint" />
            <mxPoint x="453.69000000000005" y="424" as="targetPoint" />
          </mxGeometry>
        </mxCell>
        <mxCell id="oeOo5yVUWWmrvXHps0cV-17" value="" style="shape=flexArrow;endArrow=classic;html=1;rounded=0;width=5.405405405405405;endSize=4.7405405405405405;endWidth=10.702702702702702;fillColor=#FF0000;strokeColor=none;" parent="1" edge="1">
          <mxGeometry width="50" height="50" relative="1" as="geometry">
            <mxPoint x="700" y="472" as="sourcePoint" />
            <mxPoint x="455" y="472" as="targetPoint" />
          </mxGeometry>
        </mxCell>
        <mxCell id="BUcTz7yzTDg8q7QjZ58a-1" value="" style="shape=flexArrow;endArrow=classic;html=1;rounded=0;width=5.405405405405405;endSize=4.7405405405405405;endWidth=10.702702702702702;fillColor=#3399FF;strokeColor=none;" parent="1" edge="1">
          <mxGeometry width="50" height="50" relative="1" as="geometry">
            <mxPoint x="80" y="450" as="sourcePoint" />
            <mxPoint x="172" y="450" as="targetPoint" />
          </mxGeometry>
        </mxCell>
        <mxCell id="eOL6HcfPlJQKAmyduZxM-1" value="" style="shape=flexArrow;endArrow=classic;html=1;rounded=0;width=5.405405405405405;endSize=4.7405405405405405;endWidth=10.702702702702702;fillColor=#3399FF;strokeColor=none;" parent="1" edge="1">
          <mxGeometry width="50" height="50" relative="1" as="geometry">
            <mxPoint x="172" y="440" as="sourcePoint" />
            <mxPoint x="310" y="440" as="targetPoint" />
          </mxGeometry>
        </mxCell>
        <mxCell id="eOL6HcfPlJQKAmyduZxM-2" value="" style="shape=flexArrow;endArrow=classic;html=1;rounded=0;width=5.405405405405405;endSize=4.7405405405405405;endWidth=10.702702702702702;fillColor=#3399FF;strokeColor=none;" parent="1" edge="1">
          <mxGeometry width="50" height="50" relative="1" as="geometry">
            <mxPoint x="310" y="450" as="sourcePoint" />
            <mxPoint x="626" y="450" as="targetPoint" />
          </mxGeometry>
        </mxCell>
        <mxCell id="eOL6HcfPlJQKAmyduZxM-3" value="" style="shape=flexArrow;endArrow=classic;html=1;rounded=0;width=5.405405405405405;endSize=4.7405405405405405;endWidth=10.702702702702702;fillColor=#3399FF;strokeColor=none;" parent="1" edge="1">
          <mxGeometry width="50" height="50" relative="1" as="geometry">
            <mxPoint x="626" y="438" as="sourcePoint" />
            <mxPoint x="700" y="438" as="targetPoint" />
          </mxGeometry>
        </mxCell>
        <mxCell id="eOL6HcfPlJQKAmyduZxM-4" value="" style="shape=image;verticalLabelPosition=bottom;labelBackgroundColor=default;verticalAlign=top;aspect=fixed;imageAspect=0;image=data:image/svg+xml,PHN2ZyB4bWxuczp4bGluaz0iaHR0cDovL3d3dy53My5vcmcvMTk5OS94bGluayIgeG1sbnM9Imh0dHA6Ly93d3cudzMub3JnLzIwMDAvc3ZnIiB2aWV3Qm94PSItLjk2NTU0NiAtLjMwNDY4NiAxMS41OTc4NjEgMTIuMTMxMzg3IiBoZWlnaHQ9IjEyLjEzMTM4N3B0IiB3aWR0aD0iMTEuNTk3ODYxcHQiIHZlcnNpb249IjEuMSI+JiN4YTs8ZGVmcz4mI3hhOzxwYXRoIGQ9Ik0zLjg5NzM4NS0yLjU0MjQ2NkMzLjg5NzM4NS0zLjM5NTI2OCAzLjgwOTcxNC0zLjkxMzMyNSAzLjU0NjctNC40MjM0MTJDMy4xOTYwMTUtNS4xMjQ3ODIgMi41NTA0MzYtNS4zMDAxMjUgMi4xMTIwOC01LjMwMDEyNUMxLjEwNzg0Ni01LjMwMDEyNSAuNzQxMjItNC41NTA5MzQgLjYyOTYzOS00LjMyNzc3MUMuMzQyNzE1LTMuNzQ1OTUzIC4zMjY3NzUtMi45NTY5MTIgLjMyNjc3NS0yLjU0MjQ2NkMuMzI2Nzc1LTIuMDE2NDM4IC4zNTA2ODUtMS4yMTE0NTcgLjczMzI1LS41NzM4NDhDMS4wOTk4NzUgLjAxNTk0IDEuNjg5NjY0IC4xNjczNzIgMi4xMTIwOCAuMTY3MzcyQzIuNDk0NjQ1IC4xNjczNzIgMy4xODAwNzUgLjA0NzgyMSAzLjU3ODU4LS43NDEyMkMzLjg3MzQ3NC0xLjMxNTA2OCAzLjg5NzM4NS0yLjAyNDQwOCAzLjg5NzM4NS0yLjU0MjQ2NlpNMi4xMTIwOC0uMDU1NzkxQzEuODQxMDk2LS4wNTU3OTEgMS4yOTExNTgtLjE4MzMxMyAxLjEyMzc4Ni0xLjAyMDE3NEMxLjAzNjExNS0xLjQ3NDQ3MSAxLjAzNjExNS0yLjIyMzY2MSAxLjAzNjExNS0yLjYzODEwN0MxLjAzNjExNS0zLjE4ODA0NSAxLjAzNjExNS0zLjc0NTk1MyAxLjEyMzc4Ni00LjE4NDMwOUMxLjI5MTE1OC00Ljk5NzI2IDEuOTEyODI3LTUuMDc2OTYxIDIuMTEyMDgtNS4wNzY5NjFDMi4zODMwNjQtNS4wNzY5NjEgMi45MzMwMDEtNC45NDE0NjkgMy4wOTI0MDMtNC4yMTYxODlDMy4xODgwNDUtMy43Nzc4MzMgMy4xODgwNDUtMy4xODAwNzUgMy4xODgwNDUtMi42MzgxMDdDMy4xODgwNDUtMi4xNjc4NyAzLjE4ODA0NS0xLjQ1MDU2IDMuMDkyNDAzLTEuMDA0MjM0QzIuOTI1MDMxLS4xNjczNzIgMi4zNzUwOTMtLjA1NTc5MSAyLjExMjA4LS4wNTU3OTFaIiBpZD0iZzEtNDgiLz4mI3hhOzxwYXRoIGQ9Ik01LjE0MDcyMi04LjE4OTI5QzUuMTQwNzIyLTguMjk2ODg3IDUuMDU3MDM2LTguMjk2ODg3IDUuMDIxMTcxLTguMjk2ODg3QzQuOTEzNTc0LTguMjk2ODg3IDQuOTAxNjE5LTguMjcyOTc2IDQuODUzNzk4LTguMDY5NzM4TDQuMjA4MjE5LTUuNDk5Mzc3QzQuMTcyMzU0LTUuMzQzOTYgNC4xNjAzOTktNS4zMzIwMDUgNC4xNDg0NDMtNS4zMjAwNUM0LjEzNjQ4OC01LjI5NjEzOSA0LjA1MjgwMi01LjI4NDE4NCA0LjAyODg5Mi01LjI4NDE4NEMyLjA2ODI0NC01LjExNjgxMiAuNTYxODkzLTMuNTAyODY0IC41NjE4OTMtMi4wMDg0NjhDLjU2MTg5My0uNzE3MzEgMS41NTQxNzIgLjA3MTczMSAyLjc5NzUwOSAuMTQzNDYyQzIuNzAxODY4IC41MTQwNzIgMi42MTgxODIgLjg5NjYzOCAyLjUyMjU0IDEuMjY3MjQ4QzIuMzU1MTY4IDEuOTAwODcyIDIuMjU5NTI3IDIuMjk1MzkyIDIuMjU5NTI3IDIuMzQzMjEzQzIuMjU5NTI3IDIuMzY3MTIzIDIuMjU5NTI3IDIuNDM4ODU0IDIuMzc5MDc4IDIuNDM4ODU0QzIuNDE0OTQ0IDIuNDM4ODU0IDIuNDYyNzY1IDIuNDM4ODU0IDIuNDg2Njc1IDIuMzkxMDM0QzIuNTEwNTg1IDIuMzY3MTIzIDIuNTgyMzE2IDIuMDgwMTk5IDIuNjMwMTM3IDEuOTI0NzgyTDMuMDcyNDc4IC4xNDM0NjJDNS4xMTY4MTIgLjAzNTg2NiA2LjY3MDk4NC0xLjYzNzg1OCA2LjY3MDk4NC0zLjE0NDIwOUM2LjY3MDk4NC00LjM1MTY4MSA1Ljc2MjM5MS01LjIxMjQ1MyA0LjQzNTM2Ny01LjI5NjEzOUw1LjE0MDcyMi04LjE4OTI5Wk00LjM2MzYzNi01LjA1NzAzNkM1LjE1MjY3Ny01LjAwOTIxNSA1Ljk0MTcxOS00LjU2Njg3NCA1Ljk0MTcxOS0zLjM5NTI2OEM1Ljk0MTcxOS0yLjA0NDMzNCA0Ljk5NzI2LS4yNTEwNTkgMy4xMzIyNTQtLjEwNzU5N0w0LjM2MzYzNi01LjA1NzAzNlpNMi44NTcyODUtLjA5NTY0MUMyLjI3MTQ4Mi0uMTMxNTA3IDEuMjkxMTU4LS40NDIzNDEgMS4yOTExNTgtMS43NTc0MUMxLjI5MTE1OC0zLjI2Mzc2MSAyLjM3OTA3OC00LjkzNzQ4NCA0LjEwMDYyMy01LjA0NTA4MUwyLjg1NzI4NS0uMDk1NjQxWiIgaWQ9ImcwLTMwIi8+JiN4YTs8L2RlZnM+JiN4YTs8ZyB0cmFuc2Zvcm09Im1hdHJpeCgxLjEzIDAgMCAxLjEzIC0yNTguNDQ0NDg1IC04MS41NTQzNikiIGlkPSJwYWdlMSI+JiN4YTs8dXNlIHhsaW5rOmhyZWY9IiNnMC0zMCIgeT0iODAuMTk5MjUzIiB4PSIyMjcuMjk1NTc2Ii8+JiN4YTs8dXNlIHhsaW5rOmhyZWY9IiNnMS00OCIgeT0iODEuOTkyNTE2IiB4PSIyMzQuMjIzNjc4Ii8+JiN4YTs8L2c+JiN4YTs8L3N2Zz4=;" parent="1" vertex="1">
          <mxGeometry x="110" y="460" width="20" height="20" as="geometry" />
        </mxCell>
        <mxCell id="eOL6HcfPlJQKAmyduZxM-5" value="" style="shape=image;verticalLabelPosition=bottom;labelBackgroundColor=default;verticalAlign=top;aspect=fixed;imageAspect=0;image=data:image/svg+xml,PHN2ZyB4bWxuczp4bGluaz0iaHR0cDovL3d3dy53My5vcmcvMTk5OS94bGluayIgeG1sbnM9Imh0dHA6Ly93d3cudzMub3JnLzIwMDAvc3ZnIiB2aWV3Qm94PSItLjk2NTU0NiAtLjMwNDY4NiAxMS4yMTk2IDEyLjEzMTM4NyIgaGVpZ2h0PSIxMi4xMzEzODdwdCIgd2lkdGg9IjExLjIxOTZwdCIgdmVyc2lvbj0iMS4xIj4mI3hhOzxkZWZzPiYjeGE7PHBhdGggZD0iTTIuNTAyNjE1LTUuMDc2OTYxQzIuNTAyNjE1LTUuMjkyMTU0IDIuNDg2Njc1LTUuMzAwMTI1IDIuMjcxNDgyLTUuMzAwMTI1QzEuOTQ0NzA3LTQuOTgxMzIgMS41MjIyOTEtNC43OTAwMzcgLjc2NTEzMS00Ljc5MDAzN1YtNC41MjcwMjRDLjk4MDMyNC00LjUyNzAyNCAxLjQxMDcxLTQuNTI3MDI0IDEuODcyOTc2LTQuNzQyMjE3Vi0uNjUzNTQ5QzEuODcyOTc2LS4zNTg2NTUgMS44NDkwNjYtLjI2MzAxNCAxLjA5MTkwNS0uMjYzMDE0SC44MTI5NTFWMEMxLjEzOTcyNi0uMDIzOTEgMS44MjUxNTYtLjAyMzkxIDIuMTgzODExLS4wMjM5MVMzLjIzNTg2Ni0uMDIzOTEgMy41NjI2NCAwVi0uMjYzMDE0SDMuMjgzNjg2QzIuNTI2NTI2LS4yNjMwMTQgMi41MDI2MTUtLjM1ODY1NSAyLjUwMjYxNS0uNjUzNTQ5Vi01LjA3Njk2MVoiIGlkPSJnMS00OSIvPiYjeGE7PHBhdGggZD0iTTUuMTQwNzIyLTguMTg5MjlDNS4xNDA3MjItOC4yOTY4ODcgNS4wNTcwMzYtOC4yOTY4ODcgNS4wMjExNzEtOC4yOTY4ODdDNC45MTM1NzQtOC4yOTY4ODcgNC45MDE2MTktOC4yNzI5NzYgNC44NTM3OTgtOC4wNjk3MzhMNC4yMDgyMTktNS40OTkzNzdDNC4xNzIzNTQtNS4zNDM5NiA0LjE2MDM5OS01LjMzMjAwNSA0LjE0ODQ0My01LjMyMDA1QzQuMTM2NDg4LTUuMjk2MTM5IDQuMDUyODAyLTUuMjg0MTg0IDQuMDI4ODkyLTUuMjg0MTg0QzIuMDY4MjQ0LTUuMTE2ODEyIC41NjE4OTMtMy41MDI4NjQgLjU2MTg5My0yLjAwODQ2OEMuNTYxODkzLS43MTczMSAxLjU1NDE3MiAuMDcxNzMxIDIuNzk3NTA5IC4xNDM0NjJDMi43MDE4NjggLjUxNDA3MiAyLjYxODE4MiAuODk2NjM4IDIuNTIyNTQgMS4yNjcyNDhDMi4zNTUxNjggMS45MDA4NzIgMi4yNTk1MjcgMi4yOTUzOTIgMi4yNTk1MjcgMi4zNDMyMTNDMi4yNTk1MjcgMi4zNjcxMjMgMi4yNTk1MjcgMi40Mzg4NTQgMi4zNzkwNzggMi40Mzg4NTRDMi40MTQ5NDQgMi40Mzg4NTQgMi40NjI3NjUgMi40Mzg4NTQgMi40ODY2NzUgMi4zOTEwMzRDMi41MTA1ODUgMi4zNjcxMjMgMi41ODIzMTYgMi4wODAxOTkgMi42MzAxMzcgMS45MjQ3ODJMMy4wNzI0NzggLjE0MzQ2MkM1LjExNjgxMiAuMDM1ODY2IDYuNjcwOTg0LTEuNjM3ODU4IDYuNjcwOTg0LTMuMTQ0MjA5QzYuNjcwOTg0LTQuMzUxNjgxIDUuNzYyMzkxLTUuMjEyNDUzIDQuNDM1MzY3LTUuMjk2MTM5TDUuMTQwNzIyLTguMTg5MjlaTTQuMzYzNjM2LTUuMDU3MDM2QzUuMTUyNjc3LTUuMDA5MjE1IDUuOTQxNzE5LTQuNTY2ODc0IDUuOTQxNzE5LTMuMzk1MjY4QzUuOTQxNzE5LTIuMDQ0MzM0IDQuOTk3MjYtLjI1MTA1OSAzLjEzMjI1NC0uMTA3NTk3TDQuMzYzNjM2LTUuMDU3MDM2Wk0yLjg1NzI4NS0uMDk1NjQxQzIuMjcxNDgyLS4xMzE1MDcgMS4yOTExNTgtLjQ0MjM0MSAxLjI5MTE1OC0xLjc1NzQxQzEuMjkxMTU4LTMuMjYzNzYxIDIuMzc5MDc4LTQuOTM3NDg0IDQuMTAwNjIzLTUuMDQ1MDgxTDIuODU3Mjg1LS4wOTU2NDFaIiBpZD0iZzAtMzAiLz4mI3hhOzwvZGVmcz4mI3hhOzxnIHRyYW5zZm9ybT0ibWF0cml4KDEuMTMgMCAwIDEuMTMgLTI1OC40NDQ0ODUgLTgxLjU1NDM2KSIgaWQ9InBhZ2UxIj4mI3hhOzx1c2UgeGxpbms6aHJlZj0iI2cwLTMwIiB5PSI4MC4xOTkyNTMiIHg9IjIyNy4yOTU1NzYiLz4mI3hhOzx1c2UgeGxpbms6aHJlZj0iI2cxLTQ5IiB5PSI4MS45OTI1MTYiIHg9IjIzNC4yMjM2NzgiLz4mI3hhOzwvZz4mI3hhOzwvc3ZnPg==;" parent="1" vertex="1">
          <mxGeometry x="230" y="450" width="18.33" height="20" as="geometry" />
        </mxCell>
        <mxCell id="eOL6HcfPlJQKAmyduZxM-6" value="" style="shape=image;verticalLabelPosition=bottom;labelBackgroundColor=default;verticalAlign=top;aspect=fixed;imageAspect=0;image=data:image/svg+xml,PHN2ZyB4bWxuczp4bGluaz0iaHR0cDovL3d3dy53My5vcmcvMTk5OS94bGluayIgeG1sbnM9Imh0dHA6Ly93d3cudzMub3JnLzIwMDAvc3ZnIiB2aWV3Qm94PSItLjk2NTU0NiAtLjMwNDY4NiAxMS40ODk3ODcgMTIuMTMxMzg3IiBoZWlnaHQ9IjEyLjEzMTM4N3B0IiB3aWR0aD0iMTEuNDg5Nzg3cHQiIHZlcnNpb249IjEuMSI+JiN4YTs8ZGVmcz4mI3hhOzxwYXRoIGQ9Ik0yLjI0NzU3Mi0xLjYyNTkwM0MyLjM3NTA5My0xLjc0NTQ1NSAyLjcwOTgzOC0yLjAwODQ2OCAyLjgzNzM2LTIuMTIwMDVDMy4zMzE1MDctMi41NzQzNDYgMy44MDE3NDMtMy4wMTI3MDIgMy44MDE3NDMtMy43Mzc5ODNDMy44MDE3NDMtNC42ODY0MjYgMy4wMDQ3MzItNS4zMDAxMjUgMi4wMDg0NjgtNS4zMDAxMjVDMS4wNTIwNTUtNS4zMDAxMjUgLjQyMjQxNi00LjU3NDg0NCAuNDIyNDE2LTMuODY1NTA0Qy40MjI0MTYtMy40NzQ5NjkgLjczMzI1LTMuNDE5MTc4IC44NDQ4MzItMy40MTkxNzhDMS4wMTIyMDQtMy40MTkxNzggMS4yNTkyNzgtMy41Mzg3MyAxLjI1OTI3OC0zLjg0MTU5NEMxLjI1OTI3OC00LjI1NjA0IC44NjA3NzItNC4yNTYwNCAuNzY1MTMxLTQuMjU2MDRDLjk5NjI2NC00LjgzNzg1OCAxLjUzMDI2Mi01LjAzNzExMSAxLjkyMDc5Ny01LjAzNzExMUMyLjY2MjAxNy01LjAzNzExMSAzLjA0NDU4My00LjQwNzQ3MiAzLjA0NDU4My0zLjczNzk4M0MzLjA0NDU4My0yLjkwOTA5MSAyLjQ2Mjc2NS0yLjMwMzM2MiAxLjUyMjI5MS0xLjMzODk3OUwuNTE4MDU3LS4zMDI4NjRDLjQyMjQxNi0uMjE1MTkzIC40MjI0MTYtLjE5OTI1MyAuNDIyNDE2IDBIMy41NzA2MUwzLjgwMTc0My0xLjQyNjY1SDMuNTU0NjdDMy41MzA3Ni0xLjI2NzI0OCAzLjQ2Njk5OS0uODY4NzQyIDMuMzcxMzU3LS43MTczMUMzLjMyMzUzNy0uNjUzNTQ5IDIuNzE3ODA4LS42NTM1NDkgMi41OTAyODYtLjY1MzU0OUgxLjE3MTYwNkwyLjI0NzU3Mi0xLjYyNTkwM1oiIGlkPSJnMS01MCIvPiYjeGE7PHBhdGggZD0iTTUuMTQwNzIyLTguMTg5MjlDNS4xNDA3MjItOC4yOTY4ODcgNS4wNTcwMzYtOC4yOTY4ODcgNS4wMjExNzEtOC4yOTY4ODdDNC45MTM1NzQtOC4yOTY4ODcgNC45MDE2MTktOC4yNzI5NzYgNC44NTM3OTgtOC4wNjk3MzhMNC4yMDgyMTktNS40OTkzNzdDNC4xNzIzNTQtNS4zNDM5NiA0LjE2MDM5OS01LjMzMjAwNSA0LjE0ODQ0My01LjMyMDA1QzQuMTM2NDg4LTUuMjk2MTM5IDQuMDUyODAyLTUuMjg0MTg0IDQuMDI4ODkyLTUuMjg0MTg0QzIuMDY4MjQ0LTUuMTE2ODEyIC41NjE4OTMtMy41MDI4NjQgLjU2MTg5My0yLjAwODQ2OEMuNTYxODkzLS43MTczMSAxLjU1NDE3MiAuMDcxNzMxIDIuNzk3NTA5IC4xNDM0NjJDMi43MDE4NjggLjUxNDA3MiAyLjYxODE4MiAuODk2NjM4IDIuNTIyNTQgMS4yNjcyNDhDMi4zNTUxNjggMS45MDA4NzIgMi4yNTk1MjcgMi4yOTUzOTIgMi4yNTk1MjcgMi4zNDMyMTNDMi4yNTk1MjcgMi4zNjcxMjMgMi4yNTk1MjcgMi40Mzg4NTQgMi4zNzkwNzggMi40Mzg4NTRDMi40MTQ5NDQgMi40Mzg4NTQgMi40NjI3NjUgMi40Mzg4NTQgMi40ODY2NzUgMi4zOTEwMzRDMi41MTA1ODUgMi4zNjcxMjMgMi41ODIzMTYgMi4wODAxOTkgMi42MzAxMzcgMS45MjQ3ODJMMy4wNzI0NzggLjE0MzQ2MkM1LjExNjgxMiAuMDM1ODY2IDYuNjcwOTg0LTEuNjM3ODU4IDYuNjcwOTg0LTMuMTQ0MjA5QzYuNjcwOTg0LTQuMzUxNjgxIDUuNzYyMzkxLTUuMjEyNDUzIDQuNDM1MzY3LTUuMjk2MTM5TDUuMTQwNzIyLTguMTg5MjlaTTQuMzYzNjM2LTUuMDU3MDM2QzUuMTUyNjc3LTUuMDA5MjE1IDUuOTQxNzE5LTQuNTY2ODc0IDUuOTQxNzE5LTMuMzk1MjY4QzUuOTQxNzE5LTIuMDQ0MzM0IDQuOTk3MjYtLjI1MTA1OSAzLjEzMjI1NC0uMTA3NTk3TDQuMzYzNjM2LTUuMDU3MDM2Wk0yLjg1NzI4NS0uMDk1NjQxQzIuMjcxNDgyLS4xMzE1MDcgMS4yOTExNTgtLjQ0MjM0MSAxLjI5MTE1OC0xLjc1NzQxQzEuMjkxMTU4LTMuMjYzNzYxIDIuMzc5MDc4LTQuOTM3NDg0IDQuMTAwNjIzLTUuMDQ1MDgxTDIuODU3Mjg1LS4wOTU2NDFaIiBpZD0iZzAtMzAiLz4mI3hhOzwvZGVmcz4mI3hhOzxnIHRyYW5zZm9ybT0ibWF0cml4KDEuMTMgMCAwIDEuMTMgLTI1OC40NDQ0ODUgLTgxLjU1NDM2KSIgaWQ9InBhZ2UxIj4mI3hhOzx1c2UgeGxpbms6aHJlZj0iI2cwLTMwIiB5PSI4MC4xOTkyNTMiIHg9IjIyNy4yOTU1NzYiLz4mI3hhOzx1c2UgeGxpbms6aHJlZj0iI2cxLTUwIiB5PSI4MS45OTI1MTYiIHg9IjIzNC4yMjM2NzgiLz4mI3hhOzwvZz4mI3hhOzwvc3ZnPg==;" parent="1" vertex="1">
          <mxGeometry x="350" y="460" width="18.33" height="20" as="geometry" />
        </mxCell>
        <mxCell id="eOL6HcfPlJQKAmyduZxM-7" value="" style="shape=image;verticalLabelPosition=bottom;labelBackgroundColor=default;verticalAlign=top;aspect=fixed;imageAspect=0;image=data:image/svg+xml,PHN2ZyB4bWxuczp4bGluaz0iaHR0cDovL3d3dy53My5vcmcvMTk5OS94bGluayIgeG1sbnM9Imh0dHA6Ly93d3cudzMub3JnLzIwMDAvc3ZnIiB2aWV3Qm94PSItLjk2NTU0NiAtLjMwNDY4NiAxMS41NzA4NDMgMTIuMTMxMzg3IiBoZWlnaHQ9IjEyLjEzMTM4N3B0IiB3aWR0aD0iMTEuNTcwODQzcHQiIHZlcnNpb249IjEuMSI+JiN4YTs8ZGVmcz4mI3hhOzxwYXRoIGQ9Ik0yLjAxNjQzOC0yLjY2MjAxN0MyLjY0NjA3Ny0yLjY2MjAxNyAzLjA0NDU4My0yLjE5OTc1MSAzLjA0NDU4My0xLjM2Mjg4OUMzLjA0NDU4My0uMzY2NjI1IDIuNDc4NzA1LS4wNzE3MzEgMi4wNTYyODktLjA3MTczMUMxLjYxNzkzMy0uMDcxNzMxIDEuMDIwMTc0LS4yMzExMzMgLjc0MTIyLS42NTM1NDlDMS4wMjgxNDQtLjY1MzU0OSAxLjIyNzM5Ny0uODM2ODYyIDEuMjI3Mzk3LTEuMDk5ODc1QzEuMjI3Mzk3LTEuMzU0OTE5IDEuMDQ0MDg1LTEuNTM4MjMyIC43ODkwNDEtMS41MzgyMzJDLjU3Mzg0OC0xLjUzODIzMiAuMzUwNjg1LTEuNDAyNzQgLjM1MDY4NS0xLjA4MzkzNUMuMzUwNjg1LS4zMjY3NzUgMS4xNjM2MzYgLjE2NzM3MiAyLjA3MjIyOSAuMTY3MzcyQzMuMTMyMjU0IC4xNjczNzIgMy44NzM0NzQtLjU2NTg3OCAzLjg3MzQ3NC0xLjM2Mjg4OUMzLjg3MzQ3NC0yLjAyNDQwOCAzLjM0NzQ0Ny0yLjYzMDEzNyAyLjUzNDQ5Ni0yLjgwNTQ3OUMzLjE2NDEzNC0zLjAyODY0MyAzLjYzNDM3MS0zLjU3MDYxIDMuNjM0MzcxLTQuMjA4MjE5UzIuOTE3MDYxLTUuMzAwMTI1IDIuMDg4MTY5LTUuMzAwMTI1QzEuMjM1MzY3LTUuMzAwMTI1IC41ODk3ODgtNC44Mzc4NTggLjU4OTc4OC00LjIzMjEzQy41ODk3ODgtMy45MzcyMzUgLjc4OTA0MS0zLjgwOTcxNCAuOTk2MjY0LTMuODA5NzE0QzEuMjQzMzM3LTMuODA5NzE0IDEuNDAyNzQtMy45ODUwNTYgMS40MDI3NC00LjIxNjE4OUMxLjQwMjc0LTQuNTExMDgzIDEuMTQ3Njk2LTQuNjIyNjY1IC45NzIzNTQtNC42MzA2MzVDMS4zMDcwOTgtNS4wNjg5OTEgMS45MjA3OTctNS4wOTI5MDIgMi4wNjQyNTktNS4wOTI5MDJDMi4yNzE0ODItNS4wOTI5MDIgMi44NzcyMS01LjAyOTE0MSAyLjg3NzIxLTQuMjA4MjE5QzIuODc3MjEtMy42NTAzMTEgMi42NDYwNzctMy4zMTU1NjcgMi41MzQ0OTYtMy4xODgwNDVDMi4yOTUzOTItMi45NDA5NzEgMi4xMTIwOC0yLjkyNTAzMSAxLjYyNTkwMy0yLjg5MzE1MUMxLjQ3NDQ3MS0yLjg4NTE4MSAxLjQxMDcxLTIuODc3MjEgMS40MTA3MS0yLjc3MzU5OUMxLjQxMDcxLTIuNjYyMDE3IDEuNDgyNDQxLTIuNjYyMDE3IDEuNjE3OTMzLTIuNjYyMDE3SDIuMDE2NDM4WiIgaWQ9ImcxLTUxIi8+JiN4YTs8cGF0aCBkPSJNNS4xNDA3MjItOC4xODkyOUM1LjE0MDcyMi04LjI5Njg4NyA1LjA1NzAzNi04LjI5Njg4NyA1LjAyMTE3MS04LjI5Njg4N0M0LjkxMzU3NC04LjI5Njg4NyA0LjkwMTYxOS04LjI3Mjk3NiA0Ljg1Mzc5OC04LjA2OTczOEw0LjIwODIxOS01LjQ5OTM3N0M0LjE3MjM1NC01LjM0Mzk2IDQuMTYwMzk5LTUuMzMyMDA1IDQuMTQ4NDQzLTUuMzIwMDVDNC4xMzY0ODgtNS4yOTYxMzkgNC4wNTI4MDItNS4yODQxODQgNC4wMjg4OTItNS4yODQxODRDMi4wNjgyNDQtNS4xMTY4MTIgLjU2MTg5My0zLjUwMjg2NCAuNTYxODkzLTIuMDA4NDY4Qy41NjE4OTMtLjcxNzMxIDEuNTU0MTcyIC4wNzE3MzEgMi43OTc1MDkgLjE0MzQ2MkMyLjcwMTg2OCAuNTE0MDcyIDIuNjE4MTgyIC44OTY2MzggMi41MjI1NCAxLjI2NzI0OEMyLjM1NTE2OCAxLjkwMDg3MiAyLjI1OTUyNyAyLjI5NTM5MiAyLjI1OTUyNyAyLjM0MzIxM0MyLjI1OTUyNyAyLjM2NzEyMyAyLjI1OTUyNyAyLjQzODg1NCAyLjM3OTA3OCAyLjQzODg1NEMyLjQxNDk0NCAyLjQzODg1NCAyLjQ2Mjc2NSAyLjQzODg1NCAyLjQ4NjY3NSAyLjM5MTAzNEMyLjUxMDU4NSAyLjM2NzEyMyAyLjU4MjMxNiAyLjA4MDE5OSAyLjYzMDEzNyAxLjkyNDc4MkwzLjA3MjQ3OCAuMTQzNDYyQzUuMTE2ODEyIC4wMzU4NjYgNi42NzA5ODQtMS42Mzc4NTggNi42NzA5ODQtMy4xNDQyMDlDNi42NzA5ODQtNC4zNTE2ODEgNS43NjIzOTEtNS4yMTI0NTMgNC40MzUzNjctNS4yOTYxMzlMNS4xNDA3MjItOC4xODkyOVpNNC4zNjM2MzYtNS4wNTcwMzZDNS4xNTI2NzctNS4wMDkyMTUgNS45NDE3MTktNC41NjY4NzQgNS45NDE3MTktMy4zOTUyNjhDNS45NDE3MTktMi4wNDQzMzQgNC45OTcyNi0uMjUxMDU5IDMuMTMyMjU0LS4xMDc1OTdMNC4zNjM2MzYtNS4wNTcwMzZaTTIuODU3Mjg1LS4wOTU2NDFDMi4yNzE0ODItLjEzMTUwNyAxLjI5MTE1OC0uNDQyMzQxIDEuMjkxMTU4LTEuNzU3NDFDMS4yOTExNTgtMy4yNjM3NjEgMi4zNzkwNzgtNC45Mzc0ODQgNC4xMDA2MjMtNS4wNDUwODFMMi44NTcyODUtLjA5NTY0MVoiIGlkPSJnMC0zMCIvPiYjeGE7PC9kZWZzPiYjeGE7PGcgdHJhbnNmb3JtPSJtYXRyaXgoMS4xMyAwIDAgMS4xMyAtMjU4LjQ0NDQ4NSAtODEuNTU0MzYpIiBpZD0icGFnZTEiPiYjeGE7PHVzZSB4bGluazpocmVmPSIjZzAtMzAiIHk9IjgwLjE5OTI1MyIgeD0iMjI3LjI5NTU3NiIvPiYjeGE7PHVzZSB4bGluazpocmVmPSIjZzEtNTEiIHk9IjgxLjk5MjUxNiIgeD0iMjM0LjIyMzY3OCIvPiYjeGE7PC9nPiYjeGE7PC9zdmc+;" parent="1" vertex="1">
          <mxGeometry x="651.86" y="443" width="20" height="20" as="geometry" />
        </mxCell>
        <mxCell id="eOL6HcfPlJQKAmyduZxM-8" value="" style="shape=image;verticalLabelPosition=bottom;labelBackgroundColor=default;verticalAlign=top;aspect=fixed;imageAspect=0;image=data:image/svg+xml,PHN2ZyB4bWxuczp4bGluaz0iaHR0cDovL3d3dy53My5vcmcvMTk5OS94bGluayIgeG1sbnM9Imh0dHA6Ly93d3cudzMub3JnLzIwMDAvc3ZnIiB2aWV3Qm94PSItLjk2NTU0NiAtLjMwNDY4NiAxMS42OTY5MyAxMi4xMzEzODciIGhlaWdodD0iMTIuMTMxMzg3cHQiIHdpZHRoPSIxMS42OTY5M3B0IiB2ZXJzaW9uPSIxLjEiPiYjeGE7PGRlZnM+JiN4YTs8cGF0aCBkPSJNMy4xNDAyMjQtNS4xNTY2NjNDMy4xNDAyMjQtNS4zMTYwNjUgMy4xNDAyMjQtNS4zNzk4MjYgMi45NzI4NTItNS4zNzk4MjZDMi44NjkyNC01LjM3OTgyNiAyLjg2MTI3LTUuMzcxODU2IDIuNzgxNTY5LTUuMjYwMjc0TC4yMzkxMDMtMS41NzAxMTJWLTEuMzA3MDk4SDIuNDg2Njc1Vi0uNjQ1NTc5QzIuNDg2Njc1LS4zNTA2ODUgMi40NjI3NjUtLjI2MzAxNCAxLjg0OTA2Ni0uMjYzMDE0SDEuNjY1NzUzVjBDMi4zNDMyMTMtLjAyMzkxIDIuMzU5MTUzLS4wMjM5MSAyLjgxMzQ1LS4wMjM5MVMzLjI4MzY4Ni0uMDIzOTEgMy45NjExNDYgMFYtLjI2MzAxNEgzLjc3NzgzM0MzLjE2NDEzNC0uMjYzMDE0IDMuMTQwMjI0LS4zNTA2ODUgMy4xNDAyMjQtLjY0NTU3OVYtMS4zMDcwOThIMy45ODUwNTZWLTEuNTcwMTEySDMuMTQwMjI0Vi01LjE1NjY2M1pNMi41NDI0NjYtNC41MTEwODNWLTEuNTcwMTEySC41MTgwNTdMMi41NDI0NjYtNC41MTEwODNaIiBpZD0iZzEtNTIiLz4mI3hhOzxwYXRoIGQ9Ik01LjE0MDcyMi04LjE4OTI5QzUuMTQwNzIyLTguMjk2ODg3IDUuMDU3MDM2LTguMjk2ODg3IDUuMDIxMTcxLTguMjk2ODg3QzQuOTEzNTc0LTguMjk2ODg3IDQuOTAxNjE5LTguMjcyOTc2IDQuODUzNzk4LTguMDY5NzM4TDQuMjA4MjE5LTUuNDk5Mzc3QzQuMTcyMzU0LTUuMzQzOTYgNC4xNjAzOTktNS4zMzIwMDUgNC4xNDg0NDMtNS4zMjAwNUM0LjEzNjQ4OC01LjI5NjEzOSA0LjA1MjgwMi01LjI4NDE4NCA0LjAyODg5Mi01LjI4NDE4NEMyLjA2ODI0NC01LjExNjgxMiAuNTYxODkzLTMuNTAyODY0IC41NjE4OTMtMi4wMDg0NjhDLjU2MTg5My0uNzE3MzEgMS41NTQxNzIgLjA3MTczMSAyLjc5NzUwOSAuMTQzNDYyQzIuNzAxODY4IC41MTQwNzIgMi42MTgxODIgLjg5NjYzOCAyLjUyMjU0IDEuMjY3MjQ4QzIuMzU1MTY4IDEuOTAwODcyIDIuMjU5NTI3IDIuMjk1MzkyIDIuMjU5NTI3IDIuMzQzMjEzQzIuMjU5NTI3IDIuMzY3MTIzIDIuMjU5NTI3IDIuNDM4ODU0IDIuMzc5MDc4IDIuNDM4ODU0QzIuNDE0OTQ0IDIuNDM4ODU0IDIuNDYyNzY1IDIuNDM4ODU0IDIuNDg2Njc1IDIuMzkxMDM0QzIuNTEwNTg1IDIuMzY3MTIzIDIuNTgyMzE2IDIuMDgwMTk5IDIuNjMwMTM3IDEuOTI0NzgyTDMuMDcyNDc4IC4xNDM0NjJDNS4xMTY4MTIgLjAzNTg2NiA2LjY3MDk4NC0xLjYzNzg1OCA2LjY3MDk4NC0zLjE0NDIwOUM2LjY3MDk4NC00LjM1MTY4MSA1Ljc2MjM5MS01LjIxMjQ1MyA0LjQzNTM2Ny01LjI5NjEzOUw1LjE0MDcyMi04LjE4OTI5Wk00LjM2MzYzNi01LjA1NzAzNkM1LjE1MjY3Ny01LjAwOTIxNSA1Ljk0MTcxOS00LjU2Njg3NCA1Ljk0MTcxOS0zLjM5NTI2OEM1Ljk0MTcxOS0yLjA0NDMzNCA0Ljk5NzI2LS4yNTEwNTkgMy4xMzIyNTQtLjEwNzU5N0w0LjM2MzYzNi01LjA1NzAzNlpNMi44NTcyODUtLjA5NTY0MUMyLjI3MTQ4Mi0uMTMxNTA3IDEuMjkxMTU4LS40NDIzNDEgMS4yOTExNTgtMS43NTc0MUMxLjI5MTE1OC0zLjI2Mzc2MSAyLjM3OTA3OC00LjkzNzQ4NCA0LjEwMDYyMy01LjA0NTA4MUwyLjg1NzI4NS0uMDk1NjQxWiIgaWQ9ImcwLTMwIi8+JiN4YTs8L2RlZnM+JiN4YTs8ZyB0cmFuc2Zvcm09Im1hdHJpeCgxLjEzIDAgMCAxLjEzIC0yNTguNDQ0NDg1IC04MS41NTQzNikiIGlkPSJwYWdlMSI+JiN4YTs8dXNlIHhsaW5rOmhyZWY9IiNnMC0zMCIgeT0iODAuMTk5MjUzIiB4PSIyMjcuMjk1NTc2Ii8+JiN4YTs8dXNlIHhsaW5rOmhyZWY9IiNnMS01MiIgeT0iODEuOTkyNTE2IiB4PSIyMzQuMjIzNjc4Ii8+JiN4YTs8L2c+JiN4YTs8L3N2Zz4=;" parent="1" vertex="1">
          <mxGeometry x="577.43" y="480" width="20" height="20" as="geometry" />
        </mxCell>
      </root>
    </mxGraphModel>
  </diagram>
  <diagram name="resultados_graficados" id="lQ-HkRnxHkzn3DZBynEB">
    <mxGraphModel dx="2620" dy="2109" grid="1" gridSize="10" guides="1" tooltips="1" connect="1" arrows="1" fold="1" page="1" pageScale="1" pageWidth="827" pageHeight="1169" math="0" shadow="0">
      <root>
        <mxCell id="E8iTvAODnzBoqDHblbVi-0" />
        <mxCell id="E8iTvAODnzBoqDHblbVi-1" parent="E8iTvAODnzBoqDHblbVi-0" />
        <mxCell id="CpYu3_9B26Lu3pMzHaW0-238" value="" style="ellipse;whiteSpace=wrap;html=1;fillColor=#dae8fc;strokeColor=#6c8ebf;opacity=60;movable=0;resizable=0;rotatable=0;deletable=0;editable=0;locked=1;connectable=0;" parent="E8iTvAODnzBoqDHblbVi-1" vertex="1">
          <mxGeometry x="122.99" y="437.5" width="580" height="520" as="geometry" />
        </mxCell>
        <mxCell id="TaWxWVBgtxs1yE3OTX_x-19" value="" style="rounded=0;whiteSpace=wrap;html=1;fillColor=#f5f5f5;strokeColor=#666666;opacity=70;fontColor=#333333;" vertex="1" parent="E8iTvAODnzBoqDHblbVi-1">
          <mxGeometry x="251.87" y="520" width="330" height="99.5" as="geometry" />
        </mxCell>
        <mxCell id="TaWxWVBgtxs1yE3OTX_x-34" value="&lt;span style=&quot;font-size: 15px;&quot;&gt;&lt;b&gt;consulta&lt;/b&gt;&lt;/span&gt;&lt;div&gt;&lt;span style=&quot;font-size: 15px;&quot;&gt;&lt;b&gt;oftalmológica&lt;/b&gt;&lt;/span&gt;&lt;/div&gt;" style="text;html=1;align=left;verticalAlign=middle;resizable=0;points=[];autosize=1;strokeColor=none;fillColor=none;fontSize=16;" vertex="1" parent="E8iTvAODnzBoqDHblbVi-1">
          <mxGeometry x="368.9" y="520" width="120" height="50" as="geometry" />
        </mxCell>
        <mxCell id="CpYu3_9B26Lu3pMzHaW0-87" value="" style="ellipse;whiteSpace=wrap;html=1;fillColor=#fff2cc;strokeColor=#d6b656;opacity=50;movable=1;resizable=1;rotatable=1;deletable=1;editable=1;locked=0;connectable=1;" parent="E8iTvAODnzBoqDHblbVi-1" vertex="1">
          <mxGeometry x="130" y="860" width="580" height="520" as="geometry" />
        </mxCell>
        <mxCell id="CpYu3_9B26Lu3pMzHaW0-174" value="" style="rounded=0;whiteSpace=wrap;html=1;fillColor=#f8cecc;strokeColor=#b85450;opacity=70;" parent="E8iTvAODnzBoqDHblbVi-1" vertex="1">
          <mxGeometry x="170" y="1081.87" width="150" height="125.13" as="geometry" />
        </mxCell>
        <mxCell id="CpYu3_9B26Lu3pMzHaW0-101" value="&lt;font size=&quot;1&quot; style=&quot;&quot;&gt;&lt;b style=&quot;font-size: 15px;&quot;&gt;Cre&lt;/b&gt;&lt;/font&gt;&lt;div&gt;&lt;font size=&quot;1&quot; style=&quot;&quot;&gt;&lt;b style=&quot;font-size: 15px;&quot;&gt;Col&lt;/b&gt;&lt;/font&gt;&lt;/div&gt;&lt;div&gt;&lt;font size=&quot;1&quot; style=&quot;&quot;&gt;&lt;b style=&quot;font-size: 15px;&quot;&gt;Glu&lt;/b&gt;&lt;/font&gt;&lt;/div&gt;" style="text;html=1;align=center;verticalAlign=middle;resizable=0;points=[];autosize=1;strokeColor=none;fillColor=none;fontSize=16;" parent="E8iTvAODnzBoqDHblbVi-1" vertex="1">
          <mxGeometry x="167.5" y="1095" width="50" height="70" as="geometry" />
        </mxCell>
        <mxCell id="CpYu3_9B26Lu3pMzHaW0-102" value="&lt;font size=&quot;1&quot; style=&quot;&quot;&gt;&lt;b style=&quot;font-size: 15px;&quot;&gt;Cre&lt;/b&gt;&lt;/font&gt;&lt;div&gt;&lt;font size=&quot;1&quot; style=&quot;&quot;&gt;&lt;b style=&quot;font-size: 15px;&quot;&gt;Col&lt;/b&gt;&lt;/font&gt;&lt;/div&gt;&lt;div&gt;&lt;font size=&quot;1&quot; style=&quot;&quot;&gt;&lt;b style=&quot;font-size: 15px;&quot;&gt;Glu&lt;/b&gt;&lt;/font&gt;&lt;/div&gt;" style="text;html=1;align=center;verticalAlign=middle;resizable=0;points=[];autosize=1;strokeColor=none;fillColor=none;fontSize=16;" parent="E8iTvAODnzBoqDHblbVi-1" vertex="1">
          <mxGeometry x="267.5" y="1095" width="50" height="70" as="geometry" />
        </mxCell>
        <mxCell id="CpYu3_9B26Lu3pMzHaW0-104" value="&lt;font size=&quot;1&quot; style=&quot;&quot;&gt;&lt;b style=&quot;font-size: 15px;&quot;&gt;Cre&lt;/b&gt;&lt;/font&gt;&lt;div&gt;&lt;font size=&quot;1&quot; style=&quot;&quot;&gt;&lt;b style=&quot;font-size: 15px;&quot;&gt;Col&lt;/b&gt;&lt;/font&gt;&lt;/div&gt;&lt;div&gt;&lt;font size=&quot;1&quot; style=&quot;&quot;&gt;&lt;b style=&quot;font-size: 15px;&quot;&gt;Glu&lt;/b&gt;&lt;/font&gt;&lt;/div&gt;" style="text;html=1;align=center;verticalAlign=middle;resizable=0;points=[];autosize=1;strokeColor=none;fillColor=none;fontSize=16;" parent="E8iTvAODnzBoqDHblbVi-1" vertex="1">
          <mxGeometry x="217.5" y="1095" width="50" height="70" as="geometry" />
        </mxCell>
        <mxCell id="CpYu3_9B26Lu3pMzHaW0-143" value="&lt;font style=&quot;font-size: 12px;&quot;&gt;&lt;i&gt;1° año&lt;/i&gt;&lt;/font&gt;" style="text;html=1;align=center;verticalAlign=middle;resizable=0;points=[];autosize=1;strokeColor=none;fillColor=none;fontSize=16;" parent="E8iTvAODnzBoqDHblbVi-1" vertex="1">
          <mxGeometry x="162.5" y="1151" width="60" height="30" as="geometry" />
        </mxCell>
        <mxCell id="CpYu3_9B26Lu3pMzHaW0-169" value="" style="html=1;shadow=0;dashed=0;align=center;verticalAlign=middle;shape=mxgraph.arrows2.arrow;dy=0;dx=10.65;notch=10.6;rotation=-90;strokeColor=none;fillColor=#006600;" parent="E8iTvAODnzBoqDHblbVi-1" vertex="1">
          <mxGeometry x="235.37000000000006" y="1081.87" width="14.25" height="23.13" as="geometry" />
        </mxCell>
        <mxCell id="CpYu3_9B26Lu3pMzHaW0-170" value="" style="html=1;shadow=0;dashed=0;align=center;verticalAlign=middle;shape=mxgraph.arrows2.arrow;dy=0;dx=10.65;notch=10.6;rotation=-90;strokeColor=none;fillColor=#006600;" parent="E8iTvAODnzBoqDHblbVi-1" vertex="1">
          <mxGeometry x="285.37000000000006" y="1081.87" width="14.25" height="23.13" as="geometry" />
        </mxCell>
        <mxCell id="6uM5pQdxaCif3TtWCCIX-0" value="" style="ellipse;whiteSpace=wrap;html=1;aspect=fixed;fillColor=#dae8fc;strokeColor=#6c8ebf;opacity=60;strokeWidth=2;" parent="E8iTvAODnzBoqDHblbVi-1" vertex="1">
          <mxGeometry x="60" y="100" width="280" height="280" as="geometry" />
        </mxCell>
        <mxCell id="6uM5pQdxaCif3TtWCCIX-1" value="&lt;font size=&quot;1&quot; style=&quot;&quot;&gt;&lt;b style=&quot;font-size: 25px;&quot;&gt;CreColGlu&lt;/b&gt;&lt;/font&gt;" style="text;html=1;align=center;verticalAlign=middle;resizable=0;points=[];autosize=1;strokeColor=none;fillColor=none;fontSize=16;" parent="E8iTvAODnzBoqDHblbVi-1" vertex="1">
          <mxGeometry x="95" y="180" width="150" height="40" as="geometry" />
        </mxCell>
        <mxCell id="6uM5pQdxaCif3TtWCCIX-2" value="Text" style="text;strokeColor=none;fillColor=none;html=1;align=center;verticalAlign=middle;whiteSpace=wrap;rounded=0;fontSize=16;" parent="E8iTvAODnzBoqDHblbVi-1" vertex="1">
          <mxGeometry x="-330" y="-360" width="60" height="30" as="geometry" />
        </mxCell>
        <mxCell id="CpYu3_9B26Lu3pMzHaW0-0" value="&lt;span style=&quot;font-size: 20px;&quot;&gt;&lt;b&gt;hemoglobina&lt;/b&gt;&lt;/span&gt;" style="text;html=1;align=center;verticalAlign=middle;resizable=0;points=[];autosize=1;strokeColor=none;fillColor=none;fontSize=16;" parent="E8iTvAODnzBoqDHblbVi-1" vertex="1">
          <mxGeometry x="135" y="255" width="150" height="40" as="geometry" />
        </mxCell>
        <mxCell id="CpYu3_9B26Lu3pMzHaW0-15" value="" style="ellipse;whiteSpace=wrap;html=1;aspect=fixed;fillColor=#fff2cc;strokeColor=#d6b656;opacity=60;strokeWidth=2;" parent="E8iTvAODnzBoqDHblbVi-1" vertex="1">
          <mxGeometry x="400" y="107.2" width="280" height="280" as="geometry" />
        </mxCell>
        <mxCell id="CpYu3_9B26Lu3pMzHaW0-16" value="&lt;font size=&quot;1&quot; style=&quot;&quot;&gt;&lt;b style=&quot;font-size: 25px;&quot;&gt;CreColGlu&lt;/b&gt;&lt;/font&gt;" style="text;html=1;align=center;verticalAlign=middle;resizable=0;points=[];autosize=1;strokeColor=none;fillColor=none;fontSize=16;" parent="E8iTvAODnzBoqDHblbVi-1" vertex="1">
          <mxGeometry x="435" y="187.2" width="150" height="40" as="geometry" />
        </mxCell>
        <mxCell id="CpYu3_9B26Lu3pMzHaW0-17" value="&lt;font size=&quot;1&quot; style=&quot;&quot;&gt;&lt;b style=&quot;font-size: 20px;&quot;&gt;hemoglobina&lt;/b&gt;&lt;/font&gt;" style="text;html=1;align=center;verticalAlign=middle;resizable=0;points=[];autosize=1;strokeColor=none;fillColor=none;fontSize=16;" parent="E8iTvAODnzBoqDHblbVi-1" vertex="1">
          <mxGeometry x="475" y="262.2" width="150" height="40" as="geometry" />
        </mxCell>
        <mxCell id="CpYu3_9B26Lu3pMzHaW0-32" value="" style="html=1;shadow=0;dashed=0;align=center;verticalAlign=middle;shape=mxgraph.arrows2.arrow;dy=0;dx=10.65;notch=10.6;rotation=-90;strokeColor=none;fillColor=#006600;" parent="E8iTvAODnzBoqDHblbVi-1" vertex="1">
          <mxGeometry x="750" y="-14.439999999999998" width="14.25" height="35" as="geometry" />
        </mxCell>
        <mxCell id="CpYu3_9B26Lu3pMzHaW0-34" value="" style="html=1;shadow=0;dashed=0;align=center;verticalAlign=middle;shape=mxgraph.arrows2.arrow;dy=0;dx=10.65;notch=10.6;rotation=-90;strokeColor=none;fillColor=#006600;" parent="E8iTvAODnzBoqDHblbVi-1" vertex="1">
          <mxGeometry x="794.07" y="-8.14" width="14.25" height="23.13" as="geometry" />
        </mxCell>
        <mxCell id="CpYu3_9B26Lu3pMzHaW0-39" value="" style="group" parent="E8iTvAODnzBoqDHblbVi-1" vertex="1" connectable="0">
          <mxGeometry x="280.00000000000006" y="260" width="23.129999999999995" height="27.120000000000005" as="geometry" />
        </mxCell>
        <mxCell id="CpYu3_9B26Lu3pMzHaW0-35" value="" style="html=1;shadow=0;dashed=0;align=center;verticalAlign=middle;shape=mxgraph.arrows2.arrow;dy=0;dx=10.65;notch=10.6;rotation=-90;strokeColor=none;fillColor=#006600;" parent="CpYu3_9B26Lu3pMzHaW0-39" vertex="1">
          <mxGeometry x="4.439999999999998" y="-4.439999999999998" width="14.25" height="23.13" as="geometry" />
        </mxCell>
        <mxCell id="CpYu3_9B26Lu3pMzHaW0-37" value="" style="html=1;shadow=0;dashed=0;align=center;verticalAlign=middle;shape=mxgraph.arrows2.arrow;dy=0;dx=10.65;notch=10.6;rotation=-90;strokeColor=none;fillColor=#006600;" parent="CpYu3_9B26Lu3pMzHaW0-39" vertex="1">
          <mxGeometry x="4.439999999999998" y="1.8600000000000065" width="14.25" height="23.13" as="geometry" />
        </mxCell>
        <mxCell id="CpYu3_9B26Lu3pMzHaW0-38" value="" style="html=1;shadow=0;dashed=0;align=center;verticalAlign=middle;shape=mxgraph.arrows2.arrow;dy=0;dx=10.65;notch=10.6;rotation=-90;strokeColor=none;fillColor=#006600;" parent="CpYu3_9B26Lu3pMzHaW0-39" vertex="1">
          <mxGeometry x="4.439999999999998" y="8.430000000000007" width="14.25" height="23.13" as="geometry" />
        </mxCell>
        <mxCell id="CpYu3_9B26Lu3pMzHaW0-57" value="" style="group;rotation=-180;" parent="E8iTvAODnzBoqDHblbVi-1" vertex="1" connectable="0">
          <mxGeometry x="240.00000000000006" y="190" width="23.129999999999995" height="26.120000000000005" as="geometry" />
        </mxCell>
        <mxCell id="CpYu3_9B26Lu3pMzHaW0-54" value="" style="html=1;shadow=0;dashed=0;align=center;verticalAlign=middle;shape=mxgraph.arrows2.arrow;dy=0;dx=10.65;notch=10.6;rotation=-270;strokeColor=none;fillColor=#FF0000;" parent="CpYu3_9B26Lu3pMzHaW0-57" vertex="1">
          <mxGeometry x="4" y="7" width="14.25" height="23.13" as="geometry" />
        </mxCell>
        <mxCell id="CpYu3_9B26Lu3pMzHaW0-55" value="" style="html=1;shadow=0;dashed=0;align=center;verticalAlign=middle;shape=mxgraph.arrows2.arrow;dy=0;dx=10.65;notch=10.6;rotation=-270;strokeColor=none;fillColor=#FF0000;" parent="CpYu3_9B26Lu3pMzHaW0-57" vertex="1">
          <mxGeometry x="4" y="1" width="14.25" height="23.13" as="geometry" />
        </mxCell>
        <mxCell id="CpYu3_9B26Lu3pMzHaW0-56" value="" style="html=1;shadow=0;dashed=0;align=center;verticalAlign=middle;shape=mxgraph.arrows2.arrow;dy=0;dx=10.65;notch=10.6;rotation=-270;strokeColor=none;fillColor=#FF0000;" parent="CpYu3_9B26Lu3pMzHaW0-57" vertex="1">
          <mxGeometry x="4" y="-5" width="14.25" height="23.13" as="geometry" />
        </mxCell>
        <mxCell id="CpYu3_9B26Lu3pMzHaW0-58" value="" style="group;rotation=-180;" parent="E8iTvAODnzBoqDHblbVi-1" vertex="1" connectable="0">
          <mxGeometry x="625" y="-10" width="23.129999999999995" height="26.120000000000005" as="geometry" />
        </mxCell>
        <mxCell id="CpYu3_9B26Lu3pMzHaW0-59" value="" style="html=1;shadow=0;dashed=0;align=center;verticalAlign=middle;shape=mxgraph.arrows2.arrow;dy=0;dx=10.65;notch=10.6;rotation=-270;strokeColor=none;fillColor=#FF0000;" parent="CpYu3_9B26Lu3pMzHaW0-58" vertex="1">
          <mxGeometry x="4" y="7" width="14.25" height="23.13" as="geometry" />
        </mxCell>
        <mxCell id="CpYu3_9B26Lu3pMzHaW0-60" value="" style="html=1;shadow=0;dashed=0;align=center;verticalAlign=middle;shape=mxgraph.arrows2.arrow;dy=0;dx=10.65;notch=10.6;rotation=-270;strokeColor=none;fillColor=#FF0000;" parent="CpYu3_9B26Lu3pMzHaW0-58" vertex="1">
          <mxGeometry x="4" y="1" width="14.25" height="23.13" as="geometry" />
        </mxCell>
        <mxCell id="CpYu3_9B26Lu3pMzHaW0-61" value="" style="html=1;shadow=0;dashed=0;align=center;verticalAlign=middle;shape=mxgraph.arrows2.arrow;dy=0;dx=10.65;notch=10.6;rotation=-270;strokeColor=none;fillColor=#FF0000;" parent="CpYu3_9B26Lu3pMzHaW0-58" vertex="1">
          <mxGeometry x="4" y="-5" width="14.25" height="23.13" as="geometry" />
        </mxCell>
        <mxCell id="CpYu3_9B26Lu3pMzHaW0-67" value="" style="group" parent="E8iTvAODnzBoqDHblbVi-1" vertex="1" connectable="0">
          <mxGeometry x="580" y="192.2" width="23.129999999999995" height="27.120000000000005" as="geometry" />
        </mxCell>
        <mxCell id="CpYu3_9B26Lu3pMzHaW0-68" value="" style="html=1;shadow=0;dashed=0;align=center;verticalAlign=middle;shape=mxgraph.arrows2.arrow;dy=0;dx=10.65;notch=10.6;rotation=-90;strokeColor=none;fillColor=#006600;" parent="CpYu3_9B26Lu3pMzHaW0-67" vertex="1">
          <mxGeometry x="4.439999999999998" y="-4.439999999999998" width="14.25" height="23.13" as="geometry" />
        </mxCell>
        <mxCell id="CpYu3_9B26Lu3pMzHaW0-69" value="" style="html=1;shadow=0;dashed=0;align=center;verticalAlign=middle;shape=mxgraph.arrows2.arrow;dy=0;dx=10.65;notch=10.6;rotation=-90;strokeColor=none;fillColor=#006600;" parent="CpYu3_9B26Lu3pMzHaW0-67" vertex="1">
          <mxGeometry x="4.439999999999998" y="1.8600000000000065" width="14.25" height="23.13" as="geometry" />
        </mxCell>
        <mxCell id="CpYu3_9B26Lu3pMzHaW0-70" value="" style="html=1;shadow=0;dashed=0;align=center;verticalAlign=middle;shape=mxgraph.arrows2.arrow;dy=0;dx=10.65;notch=10.6;rotation=-90;strokeColor=none;fillColor=#006600;" parent="CpYu3_9B26Lu3pMzHaW0-67" vertex="1">
          <mxGeometry x="4.439999999999998" y="8.430000000000007" width="14.25" height="23.13" as="geometry" />
        </mxCell>
        <mxCell id="CpYu3_9B26Lu3pMzHaW0-75" value="" style="group;rotation=-180;" parent="E8iTvAODnzBoqDHblbVi-1" vertex="1" connectable="0">
          <mxGeometry x="620" y="269.2" width="23.129999999999995" height="26.120000000000005" as="geometry" />
        </mxCell>
        <mxCell id="CpYu3_9B26Lu3pMzHaW0-76" value="" style="html=1;shadow=0;dashed=0;align=center;verticalAlign=middle;shape=mxgraph.arrows2.arrow;dy=0;dx=10.65;notch=10.6;rotation=-270;strokeColor=none;fillColor=#FF0000;" parent="CpYu3_9B26Lu3pMzHaW0-75" vertex="1">
          <mxGeometry x="4" y="7" width="14.25" height="23.13" as="geometry" />
        </mxCell>
        <mxCell id="CpYu3_9B26Lu3pMzHaW0-77" value="" style="html=1;shadow=0;dashed=0;align=center;verticalAlign=middle;shape=mxgraph.arrows2.arrow;dy=0;dx=10.65;notch=10.6;rotation=-270;strokeColor=none;fillColor=#FF0000;" parent="CpYu3_9B26Lu3pMzHaW0-75" vertex="1">
          <mxGeometry x="4" y="1" width="14.25" height="23.13" as="geometry" />
        </mxCell>
        <mxCell id="CpYu3_9B26Lu3pMzHaW0-78" value="" style="html=1;shadow=0;dashed=0;align=center;verticalAlign=middle;shape=mxgraph.arrows2.arrow;dy=0;dx=10.65;notch=10.6;rotation=-270;strokeColor=none;fillColor=#FF0000;" parent="CpYu3_9B26Lu3pMzHaW0-75" vertex="1">
          <mxGeometry x="4" y="-5" width="14.25" height="23.13" as="geometry" />
        </mxCell>
        <mxCell id="CpYu3_9B26Lu3pMzHaW0-79" value="&lt;font size=&quot;1&quot; style=&quot;&quot;&gt;&lt;b style=&quot;font-size: 25px;&quot;&gt;Grupo 1&lt;/b&gt;&lt;/font&gt;" style="text;html=1;align=center;verticalAlign=middle;resizable=0;points=[];autosize=1;strokeColor=none;fillColor=none;fontSize=16;" parent="E8iTvAODnzBoqDHblbVi-1" vertex="1">
          <mxGeometry x="145" y="60" width="120" height="40" as="geometry" />
        </mxCell>
        <mxCell id="CpYu3_9B26Lu3pMzHaW0-80" value="&lt;font size=&quot;1&quot; style=&quot;&quot;&gt;&lt;b style=&quot;font-size: 25px;&quot;&gt;Grupo 2&lt;/b&gt;&lt;/font&gt;" style="text;html=1;align=center;verticalAlign=middle;resizable=0;points=[];autosize=1;strokeColor=none;fillColor=none;fontSize=16;" parent="E8iTvAODnzBoqDHblbVi-1" vertex="1">
          <mxGeometry x="490" y="60" width="120" height="40" as="geometry" />
        </mxCell>
        <mxCell id="CpYu3_9B26Lu3pMzHaW0-141" value="" style="endArrow=none;dashed=1;html=1;strokeWidth=1;rounded=0;fontSize=12;startSize=8;endSize=8;curved=1;exitX=0.394;exitY=-0.021;exitDx=0;exitDy=0;exitPerimeter=0;fillColor=#f8cecc;strokeColor=#b85450;" parent="E8iTvAODnzBoqDHblbVi-1" source="CpYu3_9B26Lu3pMzHaW0-177" edge="1">
          <mxGeometry width="50" height="50" relative="1" as="geometry">
            <mxPoint x="-41.615000000000094" y="1207" as="sourcePoint" />
            <mxPoint x="217" y="1082" as="targetPoint" />
          </mxGeometry>
        </mxCell>
        <mxCell id="CpYu3_9B26Lu3pMzHaW0-142" value="" style="endArrow=none;dashed=1;html=1;strokeWidth=1;rounded=0;fontSize=12;startSize=8;endSize=8;curved=1;entryX=0.672;entryY=0.004;entryDx=0;entryDy=0;entryPerimeter=0;fillColor=#f8cecc;strokeColor=#b85450;exitX=0.836;exitY=-0.001;exitDx=0;exitDy=0;exitPerimeter=0;" parent="E8iTvAODnzBoqDHblbVi-1" edge="1">
          <mxGeometry width="50" height="50" relative="1" as="geometry">
            <mxPoint x="270.32000000000016" y="1175.9700000000003" as="sourcePoint" />
            <mxPoint x="270.79999999999995" y="1081.37052" as="targetPoint" />
          </mxGeometry>
        </mxCell>
        <mxCell id="CpYu3_9B26Lu3pMzHaW0-144" value="&lt;font style=&quot;font-size: 12px;&quot;&gt;&lt;i&gt;2° año&lt;/i&gt;&lt;/font&gt;" style="text;html=1;align=center;verticalAlign=middle;resizable=0;points=[];autosize=1;strokeColor=none;fillColor=none;fontSize=16;" parent="E8iTvAODnzBoqDHblbVi-1" vertex="1">
          <mxGeometry x="212.49" y="1151" width="60" height="30" as="geometry" />
        </mxCell>
        <mxCell id="CpYu3_9B26Lu3pMzHaW0-145" value="&lt;font style=&quot;font-size: 12px;&quot;&gt;&lt;i&gt;3° año&lt;/i&gt;&lt;/font&gt;" style="text;html=1;align=center;verticalAlign=middle;resizable=0;points=[];autosize=1;strokeColor=none;fillColor=none;fontSize=16;" parent="E8iTvAODnzBoqDHblbVi-1" vertex="1">
          <mxGeometry x="262.56" y="1152" width="60" height="30" as="geometry" />
        </mxCell>
        <mxCell id="CpYu3_9B26Lu3pMzHaW0-177" value="&lt;span style=&quot;font-size: 15px;&quot;&gt;&lt;b&gt;hemoglobina&lt;/b&gt;&lt;/span&gt;" style="text;html=1;align=center;verticalAlign=middle;resizable=0;points=[];autosize=1;strokeColor=none;fillColor=none;fontSize=16;" parent="E8iTvAODnzBoqDHblbVi-1" vertex="1">
          <mxGeometry x="170" y="1177" width="120" height="30" as="geometry" />
        </mxCell>
        <mxCell id="CpYu3_9B26Lu3pMzHaW0-181" value="" style="html=1;shadow=0;dashed=0;align=center;verticalAlign=middle;shape=mxgraph.arrows2.arrow;dy=0;dx=10.65;notch=10.6;rotation=-90;strokeColor=none;fillColor=#006600;" parent="E8iTvAODnzBoqDHblbVi-1" vertex="1">
          <mxGeometry x="185.37000000000006" y="1081.87" width="14.25" height="23.13" as="geometry" />
        </mxCell>
        <mxCell id="CpYu3_9B26Lu3pMzHaW0-182" value="" style="rounded=0;whiteSpace=wrap;html=1;fillColor=#f8cecc;strokeColor=#b85450;opacity=70;" parent="E8iTvAODnzBoqDHblbVi-1" vertex="1">
          <mxGeometry x="340.5" y="987.4999999999999" width="150" height="125.13" as="geometry" />
        </mxCell>
        <mxCell id="CpYu3_9B26Lu3pMzHaW0-183" value="&lt;font size=&quot;1&quot; style=&quot;&quot;&gt;&lt;b style=&quot;font-size: 15px;&quot;&gt;Cre&lt;/b&gt;&lt;/font&gt;&lt;div&gt;&lt;font size=&quot;1&quot; style=&quot;&quot;&gt;&lt;b style=&quot;font-size: 15px;&quot;&gt;Col&lt;/b&gt;&lt;/font&gt;&lt;/div&gt;&lt;div&gt;&lt;font size=&quot;1&quot; style=&quot;&quot;&gt;&lt;b style=&quot;font-size: 15px;&quot;&gt;Glu&lt;/b&gt;&lt;/font&gt;&lt;/div&gt;" style="text;html=1;align=center;verticalAlign=middle;resizable=0;points=[];autosize=1;strokeColor=none;fillColor=none;fontSize=16;" parent="E8iTvAODnzBoqDHblbVi-1" vertex="1">
          <mxGeometry x="338" y="1000.63" width="50" height="70" as="geometry" />
        </mxCell>
        <mxCell id="CpYu3_9B26Lu3pMzHaW0-184" value="&lt;font size=&quot;1&quot; style=&quot;&quot;&gt;&lt;b style=&quot;font-size: 15px;&quot;&gt;Cre&lt;/b&gt;&lt;/font&gt;&lt;div&gt;&lt;font size=&quot;1&quot; style=&quot;&quot;&gt;&lt;b style=&quot;font-size: 15px;&quot;&gt;Col&lt;/b&gt;&lt;/font&gt;&lt;/div&gt;&lt;div&gt;&lt;font size=&quot;1&quot; style=&quot;&quot;&gt;&lt;b style=&quot;font-size: 15px;&quot;&gt;Glu&lt;/b&gt;&lt;/font&gt;&lt;/div&gt;" style="text;html=1;align=center;verticalAlign=middle;resizable=0;points=[];autosize=1;strokeColor=none;fillColor=none;fontSize=16;" parent="E8iTvAODnzBoqDHblbVi-1" vertex="1">
          <mxGeometry x="438" y="1000.63" width="50" height="70" as="geometry" />
        </mxCell>
        <mxCell id="CpYu3_9B26Lu3pMzHaW0-185" value="&lt;font size=&quot;1&quot; style=&quot;&quot;&gt;&lt;b style=&quot;font-size: 15px;&quot;&gt;Cre&lt;/b&gt;&lt;/font&gt;&lt;div&gt;&lt;font size=&quot;1&quot; style=&quot;&quot;&gt;&lt;b style=&quot;font-size: 15px;&quot;&gt;Col&lt;/b&gt;&lt;/font&gt;&lt;/div&gt;&lt;div&gt;&lt;font size=&quot;1&quot; style=&quot;&quot;&gt;&lt;b style=&quot;font-size: 15px;&quot;&gt;Glu&lt;/b&gt;&lt;/font&gt;&lt;/div&gt;" style="text;html=1;align=center;verticalAlign=middle;resizable=0;points=[];autosize=1;strokeColor=none;fillColor=none;fontSize=16;" parent="E8iTvAODnzBoqDHblbVi-1" vertex="1">
          <mxGeometry x="388" y="1000.63" width="50" height="70" as="geometry" />
        </mxCell>
        <mxCell id="CpYu3_9B26Lu3pMzHaW0-186" value="&lt;font style=&quot;font-size: 12px;&quot;&gt;&lt;i&gt;1° año&lt;/i&gt;&lt;/font&gt;" style="text;html=1;align=center;verticalAlign=middle;resizable=0;points=[];autosize=1;strokeColor=none;fillColor=none;fontSize=16;" parent="E8iTvAODnzBoqDHblbVi-1" vertex="1">
          <mxGeometry x="333" y="1056.63" width="60" height="30" as="geometry" />
        </mxCell>
        <mxCell id="CpYu3_9B26Lu3pMzHaW0-189" value="" style="html=1;shadow=0;dashed=0;align=center;verticalAlign=middle;shape=mxgraph.arrows2.arrow;dy=0;dx=10.65;notch=10.6;rotation=-90;strokeColor=none;fillColor=#006600;" parent="E8iTvAODnzBoqDHblbVi-1" vertex="1">
          <mxGeometry x="455.87000000000006" y="987.4999999999999" width="14.25" height="23.13" as="geometry" />
        </mxCell>
        <mxCell id="CpYu3_9B26Lu3pMzHaW0-190" value="" style="endArrow=none;dashed=1;html=1;strokeWidth=1;rounded=0;fontSize=12;startSize=8;endSize=8;curved=1;exitX=0.394;exitY=-0.021;exitDx=0;exitDy=0;exitPerimeter=0;fillColor=#f8cecc;strokeColor=#b85450;" parent="E8iTvAODnzBoqDHblbVi-1" source="CpYu3_9B26Lu3pMzHaW0-194" edge="1">
          <mxGeometry width="50" height="50" relative="1" as="geometry">
            <mxPoint x="128.8849999999999" y="1112.63" as="sourcePoint" />
            <mxPoint x="387.5" y="987.63" as="targetPoint" />
          </mxGeometry>
        </mxCell>
        <mxCell id="CpYu3_9B26Lu3pMzHaW0-191" value="" style="endArrow=none;dashed=1;html=1;strokeWidth=1;rounded=0;fontSize=12;startSize=8;endSize=8;curved=1;entryX=0.672;entryY=0.004;entryDx=0;entryDy=0;entryPerimeter=0;fillColor=#f8cecc;strokeColor=#b85450;exitX=0.836;exitY=-0.001;exitDx=0;exitDy=0;exitPerimeter=0;" parent="E8iTvAODnzBoqDHblbVi-1" edge="1">
          <mxGeometry width="50" height="50" relative="1" as="geometry">
            <mxPoint x="440.82000000000016" y="1081.6000000000004" as="sourcePoint" />
            <mxPoint x="441.29999999999995" y="987.0005199999999" as="targetPoint" />
          </mxGeometry>
        </mxCell>
        <mxCell id="CpYu3_9B26Lu3pMzHaW0-192" value="&lt;font style=&quot;font-size: 12px;&quot;&gt;&lt;i&gt;2° año&lt;/i&gt;&lt;/font&gt;" style="text;html=1;align=center;verticalAlign=middle;resizable=0;points=[];autosize=1;strokeColor=none;fillColor=none;fontSize=16;" parent="E8iTvAODnzBoqDHblbVi-1" vertex="1">
          <mxGeometry x="382.99" y="1056.63" width="60" height="30" as="geometry" />
        </mxCell>
        <mxCell id="CpYu3_9B26Lu3pMzHaW0-193" value="&lt;font style=&quot;font-size: 12px;&quot;&gt;&lt;i&gt;3° año&lt;/i&gt;&lt;/font&gt;" style="text;html=1;align=center;verticalAlign=middle;resizable=0;points=[];autosize=1;strokeColor=none;fillColor=none;fontSize=16;" parent="E8iTvAODnzBoqDHblbVi-1" vertex="1">
          <mxGeometry x="433.06" y="1057.63" width="60" height="30" as="geometry" />
        </mxCell>
        <mxCell id="CpYu3_9B26Lu3pMzHaW0-194" value="&lt;span style=&quot;font-size: 15px;&quot;&gt;&lt;b&gt;hemoglobina&lt;/b&gt;&lt;/span&gt;" style="text;html=1;align=center;verticalAlign=middle;resizable=0;points=[];autosize=1;strokeColor=none;fillColor=none;fontSize=16;" parent="E8iTvAODnzBoqDHblbVi-1" vertex="1">
          <mxGeometry x="340.5" y="1082.63" width="120" height="30" as="geometry" />
        </mxCell>
        <mxCell id="CpYu3_9B26Lu3pMzHaW0-196" value="" style="rounded=0;whiteSpace=wrap;html=1;fillColor=#f8cecc;strokeColor=#b85450;opacity=70;" parent="E8iTvAODnzBoqDHblbVi-1" vertex="1">
          <mxGeometry x="507.5" y="1081.87" width="150" height="125.13" as="geometry" />
        </mxCell>
        <mxCell id="CpYu3_9B26Lu3pMzHaW0-197" value="&lt;font size=&quot;1&quot; style=&quot;&quot;&gt;&lt;b style=&quot;font-size: 15px;&quot;&gt;Cre&lt;/b&gt;&lt;/font&gt;&lt;div&gt;&lt;font size=&quot;1&quot; style=&quot;&quot;&gt;&lt;b style=&quot;font-size: 15px;&quot;&gt;Col&lt;/b&gt;&lt;/font&gt;&lt;/div&gt;&lt;div&gt;&lt;font size=&quot;1&quot; style=&quot;&quot;&gt;&lt;b style=&quot;font-size: 15px;&quot;&gt;Glu&lt;/b&gt;&lt;/font&gt;&lt;/div&gt;" style="text;html=1;align=center;verticalAlign=middle;resizable=0;points=[];autosize=1;strokeColor=none;fillColor=none;fontSize=16;" parent="E8iTvAODnzBoqDHblbVi-1" vertex="1">
          <mxGeometry x="505" y="1095" width="50" height="70" as="geometry" />
        </mxCell>
        <mxCell id="CpYu3_9B26Lu3pMzHaW0-198" value="&lt;font size=&quot;1&quot; style=&quot;&quot;&gt;&lt;b style=&quot;font-size: 15px;&quot;&gt;Cre&lt;/b&gt;&lt;/font&gt;&lt;div&gt;&lt;font size=&quot;1&quot; style=&quot;&quot;&gt;&lt;b style=&quot;font-size: 15px;&quot;&gt;Col&lt;/b&gt;&lt;/font&gt;&lt;/div&gt;&lt;div&gt;&lt;font size=&quot;1&quot; style=&quot;&quot;&gt;&lt;b style=&quot;font-size: 15px;&quot;&gt;Glu&lt;/b&gt;&lt;/font&gt;&lt;/div&gt;" style="text;html=1;align=center;verticalAlign=middle;resizable=0;points=[];autosize=1;strokeColor=none;fillColor=none;fontSize=16;" parent="E8iTvAODnzBoqDHblbVi-1" vertex="1">
          <mxGeometry x="605" y="1095" width="50" height="70" as="geometry" />
        </mxCell>
        <mxCell id="CpYu3_9B26Lu3pMzHaW0-199" value="&lt;font size=&quot;1&quot; style=&quot;&quot;&gt;&lt;b style=&quot;font-size: 15px;&quot;&gt;Cre&lt;/b&gt;&lt;/font&gt;&lt;div&gt;&lt;font size=&quot;1&quot; style=&quot;&quot;&gt;&lt;b style=&quot;font-size: 15px;&quot;&gt;Col&lt;/b&gt;&lt;/font&gt;&lt;/div&gt;&lt;div&gt;&lt;font size=&quot;1&quot; style=&quot;&quot;&gt;&lt;b style=&quot;font-size: 15px;&quot;&gt;Glu&lt;/b&gt;&lt;/font&gt;&lt;/div&gt;" style="text;html=1;align=center;verticalAlign=middle;resizable=0;points=[];autosize=1;strokeColor=none;fillColor=none;fontSize=16;" parent="E8iTvAODnzBoqDHblbVi-1" vertex="1">
          <mxGeometry x="555" y="1095" width="50" height="70" as="geometry" />
        </mxCell>
        <mxCell id="CpYu3_9B26Lu3pMzHaW0-200" value="&lt;font style=&quot;font-size: 12px;&quot;&gt;&lt;i&gt;1° año&lt;/i&gt;&lt;/font&gt;" style="text;html=1;align=center;verticalAlign=middle;resizable=0;points=[];autosize=1;strokeColor=none;fillColor=none;fontSize=16;" parent="E8iTvAODnzBoqDHblbVi-1" vertex="1">
          <mxGeometry x="500" y="1151.0000000000002" width="60" height="30" as="geometry" />
        </mxCell>
        <mxCell id="CpYu3_9B26Lu3pMzHaW0-204" value="" style="endArrow=none;dashed=1;html=1;strokeWidth=1;rounded=0;fontSize=12;startSize=8;endSize=8;curved=1;exitX=0.394;exitY=-0.021;exitDx=0;exitDy=0;exitPerimeter=0;fillColor=#f8cecc;strokeColor=#b85450;" parent="E8iTvAODnzBoqDHblbVi-1" source="CpYu3_9B26Lu3pMzHaW0-208" edge="1">
          <mxGeometry width="50" height="50" relative="1" as="geometry">
            <mxPoint x="295.8849999999999" y="1207.0000000000002" as="sourcePoint" />
            <mxPoint x="554.5" y="1082" as="targetPoint" />
          </mxGeometry>
        </mxCell>
        <mxCell id="CpYu3_9B26Lu3pMzHaW0-205" value="" style="endArrow=none;dashed=1;html=1;strokeWidth=1;rounded=0;fontSize=12;startSize=8;endSize=8;curved=1;entryX=0.672;entryY=0.004;entryDx=0;entryDy=0;entryPerimeter=0;fillColor=#f8cecc;strokeColor=#b85450;exitX=0.836;exitY=-0.001;exitDx=0;exitDy=0;exitPerimeter=0;" parent="E8iTvAODnzBoqDHblbVi-1" edge="1">
          <mxGeometry width="50" height="50" relative="1" as="geometry">
            <mxPoint x="607.8200000000002" y="1175.9700000000005" as="sourcePoint" />
            <mxPoint x="608.3" y="1081.37052" as="targetPoint" />
          </mxGeometry>
        </mxCell>
        <mxCell id="CpYu3_9B26Lu3pMzHaW0-206" value="&lt;font style=&quot;font-size: 12px;&quot;&gt;&lt;i&gt;2° año&lt;/i&gt;&lt;/font&gt;" style="text;html=1;align=center;verticalAlign=middle;resizable=0;points=[];autosize=1;strokeColor=none;fillColor=none;fontSize=16;" parent="E8iTvAODnzBoqDHblbVi-1" vertex="1">
          <mxGeometry x="549.99" y="1151.0000000000002" width="60" height="30" as="geometry" />
        </mxCell>
        <mxCell id="CpYu3_9B26Lu3pMzHaW0-207" value="&lt;font style=&quot;font-size: 12px;&quot;&gt;&lt;i&gt;3° año&lt;/i&gt;&lt;/font&gt;" style="text;html=1;align=center;verticalAlign=middle;resizable=0;points=[];autosize=1;strokeColor=none;fillColor=none;fontSize=16;" parent="E8iTvAODnzBoqDHblbVi-1" vertex="1">
          <mxGeometry x="600.06" y="1152.0000000000002" width="60" height="30" as="geometry" />
        </mxCell>
        <mxCell id="CpYu3_9B26Lu3pMzHaW0-208" value="&lt;span style=&quot;font-size: 15px;&quot;&gt;&lt;b&gt;hemoglobina&lt;/b&gt;&lt;/span&gt;" style="text;html=1;align=center;verticalAlign=middle;resizable=0;points=[];autosize=1;strokeColor=none;fillColor=none;fontSize=16;" parent="E8iTvAODnzBoqDHblbVi-1" vertex="1">
          <mxGeometry x="507.5" y="1177.0000000000002" width="120" height="30" as="geometry" />
        </mxCell>
        <mxCell id="CpYu3_9B26Lu3pMzHaW0-209" value="" style="html=1;shadow=0;dashed=0;align=center;verticalAlign=middle;shape=mxgraph.arrows2.arrow;dy=0;dx=10.65;notch=10.6;rotation=-90;strokeColor=none;fillColor=#006600;" parent="E8iTvAODnzBoqDHblbVi-1" vertex="1">
          <mxGeometry x="522.8700000000001" y="1081.87" width="14.25" height="23.13" as="geometry" />
        </mxCell>
        <mxCell id="CpYu3_9B26Lu3pMzHaW0-212" value="" style="rounded=0;whiteSpace=wrap;html=1;fillColor=#f8cecc;strokeColor=#b85450;opacity=70;" parent="E8iTvAODnzBoqDHblbVi-1" vertex="1">
          <mxGeometry x="342.97" y="1207.5" width="150" height="125.13" as="geometry" />
        </mxCell>
        <mxCell id="CpYu3_9B26Lu3pMzHaW0-213" value="&lt;font size=&quot;1&quot; style=&quot;&quot;&gt;&lt;b style=&quot;font-size: 15px;&quot;&gt;Cre&lt;/b&gt;&lt;/font&gt;&lt;div&gt;&lt;font size=&quot;1&quot; style=&quot;&quot;&gt;&lt;b style=&quot;font-size: 15px;&quot;&gt;Col&lt;/b&gt;&lt;/font&gt;&lt;/div&gt;&lt;div&gt;&lt;font size=&quot;1&quot; style=&quot;&quot;&gt;&lt;b style=&quot;font-size: 15px;&quot;&gt;Glu&lt;/b&gt;&lt;/font&gt;&lt;/div&gt;" style="text;html=1;align=center;verticalAlign=middle;resizable=0;points=[];autosize=1;strokeColor=none;fillColor=none;fontSize=16;" parent="E8iTvAODnzBoqDHblbVi-1" vertex="1">
          <mxGeometry x="340.47" y="1220.63" width="50" height="70" as="geometry" />
        </mxCell>
        <mxCell id="CpYu3_9B26Lu3pMzHaW0-214" value="&lt;font size=&quot;1&quot; style=&quot;&quot;&gt;&lt;b style=&quot;font-size: 15px;&quot;&gt;Cre&lt;/b&gt;&lt;/font&gt;&lt;div&gt;&lt;font size=&quot;1&quot; style=&quot;&quot;&gt;&lt;b style=&quot;font-size: 15px;&quot;&gt;Col&lt;/b&gt;&lt;/font&gt;&lt;/div&gt;&lt;div&gt;&lt;font size=&quot;1&quot; style=&quot;&quot;&gt;&lt;b style=&quot;font-size: 15px;&quot;&gt;Glu&lt;/b&gt;&lt;/font&gt;&lt;/div&gt;" style="text;html=1;align=center;verticalAlign=middle;resizable=0;points=[];autosize=1;strokeColor=none;fillColor=none;fontSize=16;" parent="E8iTvAODnzBoqDHblbVi-1" vertex="1">
          <mxGeometry x="440.47" y="1220.63" width="50" height="70" as="geometry" />
        </mxCell>
        <mxCell id="CpYu3_9B26Lu3pMzHaW0-215" value="&lt;font size=&quot;1&quot; style=&quot;&quot;&gt;&lt;b style=&quot;font-size: 15px;&quot;&gt;Cre&lt;/b&gt;&lt;/font&gt;&lt;div&gt;&lt;font size=&quot;1&quot; style=&quot;&quot;&gt;&lt;b style=&quot;font-size: 15px;&quot;&gt;Col&lt;/b&gt;&lt;/font&gt;&lt;/div&gt;&lt;div&gt;&lt;font size=&quot;1&quot; style=&quot;&quot;&gt;&lt;b style=&quot;font-size: 15px;&quot;&gt;Glu&lt;/b&gt;&lt;/font&gt;&lt;/div&gt;" style="text;html=1;align=center;verticalAlign=middle;resizable=0;points=[];autosize=1;strokeColor=none;fillColor=none;fontSize=16;" parent="E8iTvAODnzBoqDHblbVi-1" vertex="1">
          <mxGeometry x="390.47" y="1220.63" width="50" height="70" as="geometry" />
        </mxCell>
        <mxCell id="CpYu3_9B26Lu3pMzHaW0-216" value="&lt;font style=&quot;font-size: 12px;&quot;&gt;&lt;i&gt;1° año&lt;/i&gt;&lt;/font&gt;" style="text;html=1;align=center;verticalAlign=middle;resizable=0;points=[];autosize=1;strokeColor=none;fillColor=none;fontSize=16;" parent="E8iTvAODnzBoqDHblbVi-1" vertex="1">
          <mxGeometry x="335.47" y="1276.63" width="60" height="30" as="geometry" />
        </mxCell>
        <mxCell id="CpYu3_9B26Lu3pMzHaW0-218" value="" style="html=1;shadow=0;dashed=0;align=center;verticalAlign=middle;shape=mxgraph.arrows2.arrow;dy=0;dx=10.65;notch=10.6;rotation=-90;strokeColor=none;fillColor=#006600;" parent="E8iTvAODnzBoqDHblbVi-1" vertex="1">
          <mxGeometry x="408.3400000000001" y="1207.5" width="14.25" height="23.13" as="geometry" />
        </mxCell>
        <mxCell id="CpYu3_9B26Lu3pMzHaW0-220" value="" style="endArrow=none;dashed=1;html=1;strokeWidth=1;rounded=0;fontSize=12;startSize=8;endSize=8;curved=1;exitX=0.394;exitY=-0.021;exitDx=0;exitDy=0;exitPerimeter=0;fillColor=#f8cecc;strokeColor=#b85450;" parent="E8iTvAODnzBoqDHblbVi-1" source="CpYu3_9B26Lu3pMzHaW0-224" edge="1">
          <mxGeometry width="50" height="50" relative="1" as="geometry">
            <mxPoint x="131.3549999999999" y="1332.63" as="sourcePoint" />
            <mxPoint x="389.97" y="1207.63" as="targetPoint" />
          </mxGeometry>
        </mxCell>
        <mxCell id="CpYu3_9B26Lu3pMzHaW0-221" value="" style="endArrow=none;dashed=1;html=1;strokeWidth=1;rounded=0;fontSize=12;startSize=8;endSize=8;curved=1;entryX=0.672;entryY=0.004;entryDx=0;entryDy=0;entryPerimeter=0;fillColor=#f8cecc;strokeColor=#b85450;exitX=0.836;exitY=-0.001;exitDx=0;exitDy=0;exitPerimeter=0;" parent="E8iTvAODnzBoqDHblbVi-1" edge="1">
          <mxGeometry width="50" height="50" relative="1" as="geometry">
            <mxPoint x="443.2900000000002" y="1301.6000000000004" as="sourcePoint" />
            <mxPoint x="443.77" y="1207.00052" as="targetPoint" />
          </mxGeometry>
        </mxCell>
        <mxCell id="CpYu3_9B26Lu3pMzHaW0-222" value="&lt;font style=&quot;font-size: 12px;&quot;&gt;&lt;i&gt;2° año&lt;/i&gt;&lt;/font&gt;" style="text;html=1;align=center;verticalAlign=middle;resizable=0;points=[];autosize=1;strokeColor=none;fillColor=none;fontSize=16;" parent="E8iTvAODnzBoqDHblbVi-1" vertex="1">
          <mxGeometry x="385.46000000000004" y="1276.63" width="60" height="30" as="geometry" />
        </mxCell>
        <mxCell id="CpYu3_9B26Lu3pMzHaW0-223" value="&lt;font style=&quot;font-size: 12px;&quot;&gt;&lt;i&gt;3° año&lt;/i&gt;&lt;/font&gt;" style="text;html=1;align=center;verticalAlign=middle;resizable=0;points=[];autosize=1;strokeColor=none;fillColor=none;fontSize=16;" parent="E8iTvAODnzBoqDHblbVi-1" vertex="1">
          <mxGeometry x="435.53000000000003" y="1277.63" width="60" height="30" as="geometry" />
        </mxCell>
        <mxCell id="CpYu3_9B26Lu3pMzHaW0-224" value="&lt;span style=&quot;font-size: 15px;&quot;&gt;&lt;b&gt;hemoglobina&lt;/b&gt;&lt;/span&gt;" style="text;html=1;align=center;verticalAlign=middle;resizable=0;points=[];autosize=1;strokeColor=none;fillColor=none;fontSize=16;" parent="E8iTvAODnzBoqDHblbVi-1" vertex="1">
          <mxGeometry x="342.97" y="1302.63" width="120" height="30" as="geometry" />
        </mxCell>
        <mxCell id="CpYu3_9B26Lu3pMzHaW0-226" value="&lt;span style=&quot;font-size: 15px;&quot;&gt;&lt;b&gt;grupo 2&lt;/b&gt;&lt;/span&gt;" style="text;html=1;align=center;verticalAlign=middle;resizable=0;points=[];autosize=1;strokeColor=none;fillColor=none;fontSize=16;" parent="E8iTvAODnzBoqDHblbVi-1" vertex="1">
          <mxGeometry x="205.37" y="1051.87" width="80" height="30" as="geometry" />
        </mxCell>
        <mxCell id="CpYu3_9B26Lu3pMzHaW0-227" value="" style="html=1;shadow=0;dashed=0;align=center;verticalAlign=middle;shape=mxgraph.arrows2.arrow;dy=0;dx=10.65;notch=10.6;rotation=-270;strokeColor=none;fillColor=#FF0000;" parent="E8iTvAODnzBoqDHblbVi-1" vertex="1">
          <mxGeometry x="406" y="987.5" width="14.25" height="23.13" as="geometry" />
        </mxCell>
        <mxCell id="CpYu3_9B26Lu3pMzHaW0-228" value="" style="html=1;shadow=0;dashed=0;align=center;verticalAlign=middle;shape=mxgraph.arrows2.arrow;dy=0;dx=10.65;notch=10.6;rotation=-270;strokeColor=none;fillColor=#FF0000;" parent="E8iTvAODnzBoqDHblbVi-1" vertex="1">
          <mxGeometry x="358.35" y="987.5" width="14.25" height="23.13" as="geometry" />
        </mxCell>
        <mxCell id="CpYu3_9B26Lu3pMzHaW0-229" value="&lt;span style=&quot;font-size: 15px;&quot;&gt;&lt;b&gt;grupo 3&lt;/b&gt;&lt;/span&gt;" style="text;html=1;align=center;verticalAlign=middle;resizable=0;points=[];autosize=1;strokeColor=none;fillColor=none;fontSize=16;" parent="E8iTvAODnzBoqDHblbVi-1" vertex="1">
          <mxGeometry x="373.12" y="957.5000000000001" width="80" height="30" as="geometry" />
        </mxCell>
        <mxCell id="CpYu3_9B26Lu3pMzHaW0-230" value="" style="html=1;shadow=0;dashed=0;align=center;verticalAlign=middle;shape=mxgraph.arrows2.arrow;dy=0;dx=10.65;notch=10.6;rotation=-270;strokeColor=none;fillColor=#FF0000;" parent="E8iTvAODnzBoqDHblbVi-1" vertex="1">
          <mxGeometry x="624.44" y="1081.87" width="14.25" height="23.13" as="geometry" />
        </mxCell>
        <mxCell id="CpYu3_9B26Lu3pMzHaW0-231" value="" style="html=1;shadow=0;dashed=0;align=center;verticalAlign=middle;shape=mxgraph.arrows2.arrow;dy=0;dx=10.65;notch=10.6;rotation=-270;strokeColor=none;fillColor=#FF0000;" parent="E8iTvAODnzBoqDHblbVi-1" vertex="1">
          <mxGeometry x="572.87" y="1081.87" width="14.25" height="23.13" as="geometry" />
        </mxCell>
        <mxCell id="CpYu3_9B26Lu3pMzHaW0-232" value="&lt;span style=&quot;font-size: 15px;&quot;&gt;&lt;b&gt;grupo 9&lt;/b&gt;&lt;/span&gt;" style="text;html=1;align=center;verticalAlign=middle;resizable=0;points=[];autosize=1;strokeColor=none;fillColor=none;fontSize=16;" parent="E8iTvAODnzBoqDHblbVi-1" vertex="1">
          <mxGeometry x="542.5" y="1052.63" width="80" height="30" as="geometry" />
        </mxCell>
        <mxCell id="CpYu3_9B26Lu3pMzHaW0-233" value="&lt;span style=&quot;font-size: 15px;&quot;&gt;&lt;b&gt;grupo 7&lt;/b&gt;&lt;/span&gt;" style="text;html=1;align=center;verticalAlign=middle;resizable=0;points=[];autosize=1;strokeColor=none;fillColor=none;fontSize=16;" parent="E8iTvAODnzBoqDHblbVi-1" vertex="1">
          <mxGeometry x="373.12" y="1329.63" width="80" height="30" as="geometry" />
        </mxCell>
        <mxCell id="CpYu3_9B26Lu3pMzHaW0-234" value="" style="html=1;shadow=0;dashed=0;align=center;verticalAlign=middle;shape=mxgraph.arrows2.arrow;dy=0;dx=10.65;notch=10.6;rotation=-270;strokeColor=none;fillColor=#FF0000;" parent="E8iTvAODnzBoqDHblbVi-1" vertex="1">
          <mxGeometry x="458.35" y="1207" width="14.25" height="23.13" as="geometry" />
        </mxCell>
        <mxCell id="CpYu3_9B26Lu3pMzHaW0-235" value="" style="html=1;shadow=0;dashed=0;align=center;verticalAlign=middle;shape=mxgraph.arrows2.arrow;dy=0;dx=10.65;notch=10.6;rotation=-270;strokeColor=none;fillColor=#FF0000;" parent="E8iTvAODnzBoqDHblbVi-1" vertex="1">
          <mxGeometry x="359.75" y="1207" width="14.25" height="23.13" as="geometry" />
        </mxCell>
        <mxCell id="CpYu3_9B26Lu3pMzHaW0-237" value="" style="ellipse;whiteSpace=wrap;html=1;fillColor=#e1d5e7;strokeColor=#9673a6;opacity=70;movable=1;resizable=1;rotatable=1;deletable=1;editable=1;locked=0;connectable=1;" parent="E8iTvAODnzBoqDHblbVi-1" vertex="1">
          <mxGeometry x="680" y="805.63" width="200" height="195" as="geometry" />
        </mxCell>
        <mxCell id="CpYu3_9B26Lu3pMzHaW0-239" value="&lt;span style=&quot;font-size: 15px;&quot;&gt;&lt;b&gt;Creatinina&lt;/b&gt;&lt;/span&gt;" style="text;html=1;align=center;verticalAlign=middle;resizable=0;points=[];autosize=1;strokeColor=none;fillColor=none;fontSize=16;" parent="E8iTvAODnzBoqDHblbVi-1" vertex="1">
          <mxGeometry x="718.32" y="860" width="100" height="30" as="geometry" />
        </mxCell>
        <mxCell id="CpYu3_9B26Lu3pMzHaW0-240" value="&lt;span style=&quot;font-size: 15px;&quot;&gt;&lt;b&gt;Glucemia&lt;/b&gt;&lt;/span&gt;" style="text;html=1;align=center;verticalAlign=middle;resizable=0;points=[];autosize=1;strokeColor=none;fillColor=none;fontSize=16;" parent="E8iTvAODnzBoqDHblbVi-1" vertex="1">
          <mxGeometry x="725.32" y="880" width="90" height="30" as="geometry" />
        </mxCell>
        <mxCell id="CpYu3_9B26Lu3pMzHaW0-242" value="" style="html=1;shadow=0;dashed=0;align=center;verticalAlign=middle;shape=mxgraph.arrows2.arrow;dy=0;dx=10.65;notch=10.6;rotation=-90;strokeColor=none;fillColor=#006600;" parent="E8iTvAODnzBoqDHblbVi-1" vertex="1">
          <mxGeometry x="816.32" y="869.9999999999999" width="14.25" height="23.13" as="geometry" />
        </mxCell>
        <mxCell id="CpYu3_9B26Lu3pMzHaW0-243" value="&lt;span style=&quot;font-size: 15px;&quot;&gt;&lt;b&gt;Colesterol&lt;/b&gt;&lt;/span&gt;" style="text;html=1;align=center;verticalAlign=middle;resizable=0;points=[];autosize=1;strokeColor=none;fillColor=none;fontSize=16;" parent="E8iTvAODnzBoqDHblbVi-1" vertex="1">
          <mxGeometry x="718.32" y="916.56" width="100" height="30" as="geometry" />
        </mxCell>
        <mxCell id="CpYu3_9B26Lu3pMzHaW0-244" value="" style="html=1;shadow=0;dashed=0;align=center;verticalAlign=middle;shape=mxgraph.arrows2.arrow;dy=0;dx=10.65;notch=10.6;rotation=-270;strokeColor=none;fillColor=#FF0000;" parent="E8iTvAODnzBoqDHblbVi-1" vertex="1">
          <mxGeometry x="818.32" y="919.9999999999999" width="14.25" height="23.13" as="geometry" />
        </mxCell>
        <mxCell id="TaWxWVBgtxs1yE3OTX_x-1" value="" style="ellipse;whiteSpace=wrap;html=1;fillColor=#d5e8d4;strokeColor=#499E7C;" vertex="1" parent="E8iTvAODnzBoqDHblbVi-1">
          <mxGeometry x="250" y="860" width="336.12" height="100" as="geometry" />
        </mxCell>
        <mxCell id="TaWxWVBgtxs1yE3OTX_x-2" value="&lt;span style=&quot;font-size: 15px;&quot;&gt;&lt;b&gt;hemoglobina&lt;/b&gt;&lt;/span&gt;" style="text;html=1;align=center;verticalAlign=middle;resizable=0;points=[];autosize=1;strokeColor=none;fillColor=none;fontSize=16;" vertex="1" parent="E8iTvAODnzBoqDHblbVi-1">
          <mxGeometry x="357.6" y="876" width="120" height="30" as="geometry" />
        </mxCell>
        <mxCell id="TaWxWVBgtxs1yE3OTX_x-3" value="" style="html=1;shadow=0;dashed=0;align=center;verticalAlign=middle;shape=mxgraph.arrows2.arrow;dy=0;dx=10.65;notch=10.6;rotation=-270;strokeColor=none;fillColor=#FF0000;" vertex="1" parent="E8iTvAODnzBoqDHblbVi-1">
          <mxGeometry x="285.44" y="1180.87" width="14.25" height="23.13" as="geometry" />
        </mxCell>
        <mxCell id="TaWxWVBgtxs1yE3OTX_x-4" value="" style="html=1;shadow=0;dashed=0;align=center;verticalAlign=middle;shape=mxgraph.arrows2.arrow;dy=0;dx=10.65;notch=10.6;rotation=-270;strokeColor=none;fillColor=#FF0000;" vertex="1" parent="E8iTvAODnzBoqDHblbVi-1">
          <mxGeometry x="458.35" y="1087.6299999999999" width="14.25" height="23.13" as="geometry" />
        </mxCell>
        <mxCell id="TaWxWVBgtxs1yE3OTX_x-5" value="" style="html=1;shadow=0;dashed=0;align=center;verticalAlign=middle;shape=mxgraph.arrows2.arrow;dy=0;dx=10.65;notch=10.6;rotation=-270;strokeColor=none;fillColor=#FF0000;" vertex="1" parent="E8iTvAODnzBoqDHblbVi-1">
          <mxGeometry x="458.40999999999997" y="1309.5" width="14.25" height="23.13" as="geometry" />
        </mxCell>
        <mxCell id="TaWxWVBgtxs1yE3OTX_x-6" value="" style="html=1;shadow=0;dashed=0;align=center;verticalAlign=middle;shape=mxgraph.arrows2.arrow;dy=0;dx=10.65;notch=10.6;rotation=-90;strokeColor=none;fillColor=#006600;" vertex="1" parent="E8iTvAODnzBoqDHblbVi-1">
          <mxGeometry x="475.75000000000006" y="879.4399999999998" width="14.25" height="23.13" as="geometry" />
        </mxCell>
        <mxCell id="TaWxWVBgtxs1yE3OTX_x-7" value="" style="html=1;shadow=0;dashed=0;align=center;verticalAlign=middle;shape=mxgraph.arrows2.arrow;dy=0;dx=10.65;notch=10.6;rotation=-270;strokeColor=none;fillColor=#FF0000;" vertex="1" parent="E8iTvAODnzBoqDHblbVi-1">
          <mxGeometry x="625" y="1181" width="14.25" height="23.13" as="geometry" />
        </mxCell>
        <mxCell id="TaWxWVBgtxs1yE3OTX_x-8" value="&lt;span style=&quot;font-size: 15px;&quot;&gt;&lt;b&gt;CreColGlu&lt;/b&gt;&lt;/span&gt;" style="text;html=1;align=center;verticalAlign=middle;resizable=0;points=[];autosize=1;strokeColor=none;fillColor=none;fontSize=16;" vertex="1" parent="E8iTvAODnzBoqDHblbVi-1">
          <mxGeometry x="370" y="912.56" width="100" height="30" as="geometry" />
        </mxCell>
        <mxCell id="TaWxWVBgtxs1yE3OTX_x-9" value="" style="html=1;shadow=0;dashed=0;align=center;verticalAlign=middle;shape=mxgraph.arrows2.arrow;dy=0;dx=10.65;notch=10.6;rotation=-90;strokeColor=none;fillColor=#006600;" vertex="1" parent="E8iTvAODnzBoqDHblbVi-1">
          <mxGeometry x="475.00000000000006" y="915.9999999999998" width="14.25" height="23.13" as="geometry" />
        </mxCell>
        <mxCell id="TaWxWVBgtxs1yE3OTX_x-16" value="&lt;span style=&quot;font-size: 15px;&quot;&gt;&lt;b&gt;CreColGlu&lt;/b&gt;&lt;/span&gt;" style="text;html=1;align=center;verticalAlign=middle;resizable=0;points=[];autosize=1;strokeColor=none;fillColor=none;fontSize=16;" vertex="1" parent="E8iTvAODnzBoqDHblbVi-1">
          <mxGeometry x="358.90000000000003" y="591.5" width="100" height="30" as="geometry" />
        </mxCell>
        <mxCell id="TaWxWVBgtxs1yE3OTX_x-17" value="" style="html=1;shadow=0;dashed=0;align=center;verticalAlign=middle;shape=mxgraph.arrows2.arrow;dy=0;dx=10.65;notch=10.6;rotation=-270;strokeColor=none;fillColor=#FF0000;" vertex="1" parent="E8iTvAODnzBoqDHblbVi-1">
          <mxGeometry x="454.65000000000003" y="596.3700000000001" width="14.25" height="23.13" as="geometry" />
        </mxCell>
        <mxCell id="TaWxWVBgtxs1yE3OTX_x-20" value="&lt;span style=&quot;font-size: 15px;&quot;&gt;&lt;b&gt;consulta&lt;/b&gt;&lt;/span&gt;&lt;div&gt;&lt;span style=&quot;font-size: 15px;&quot;&gt;&lt;b&gt;oftalmológica&lt;/b&gt;&lt;/span&gt;&lt;/div&gt;" style="text;html=1;align=left;verticalAlign=middle;resizable=0;points=[];autosize=1;strokeColor=none;fillColor=none;fontSize=16;" vertex="1" parent="E8iTvAODnzBoqDHblbVi-1">
          <mxGeometry x="255.87" y="520" width="120" height="50" as="geometry" />
        </mxCell>
        <mxCell id="TaWxWVBgtxs1yE3OTX_x-23" value="&lt;font style=&quot;font-size: 12px;&quot;&gt;&lt;i&gt;1° año&lt;/i&gt;&lt;/font&gt;" style="text;html=1;align=center;verticalAlign=middle;resizable=0;points=[];autosize=1;strokeColor=none;fillColor=none;fontSize=16;" vertex="1" parent="E8iTvAODnzBoqDHblbVi-1">
          <mxGeometry x="277.87" y="564.63" width="60" height="30" as="geometry" />
        </mxCell>
        <mxCell id="TaWxWVBgtxs1yE3OTX_x-25" value="" style="html=1;shadow=0;dashed=0;align=center;verticalAlign=middle;shape=mxgraph.arrows2.arrow;dy=0;dx=10.65;notch=10.6;rotation=-90;strokeColor=none;fillColor=#006600;" vertex="1" parent="E8iTvAODnzBoqDHblbVi-1">
          <mxGeometry x="335.8700000000001" y="527.4999999999999" width="14.25" height="23.13" as="geometry" />
        </mxCell>
        <mxCell id="TaWxWVBgtxs1yE3OTX_x-26" value="" style="endArrow=none;dashed=1;html=1;strokeWidth=1;rounded=0;fontSize=12;startSize=8;endSize=8;curved=1;fillColor=#f8cecc;strokeColor=#9999FF;" edge="1" parent="E8iTvAODnzBoqDHblbVi-1">
          <mxGeometry width="50" height="50" relative="1" as="geometry">
            <mxPoint x="365.87" y="589.5" as="sourcePoint" />
            <mxPoint x="365.87" y="520" as="targetPoint" />
          </mxGeometry>
        </mxCell>
        <mxCell id="TaWxWVBgtxs1yE3OTX_x-28" value="&lt;font style=&quot;font-size: 12px;&quot;&gt;&lt;i&gt;2° año&lt;/i&gt;&lt;/font&gt;" style="text;html=1;align=center;verticalAlign=middle;resizable=0;points=[];autosize=1;strokeColor=none;fillColor=none;fontSize=16;" vertex="1" parent="E8iTvAODnzBoqDHblbVi-1">
          <mxGeometry x="386.87" y="564.63" width="60" height="30" as="geometry" />
        </mxCell>
        <mxCell id="TaWxWVBgtxs1yE3OTX_x-29" value="&lt;font style=&quot;font-size: 12px;&quot;&gt;&lt;i&gt;3° año&lt;/i&gt;&lt;/font&gt;" style="text;html=1;align=center;verticalAlign=middle;resizable=0;points=[];autosize=1;strokeColor=none;fillColor=none;fontSize=16;" vertex="1" parent="E8iTvAODnzBoqDHblbVi-1">
          <mxGeometry x="486.90000000000003" y="564.63" width="60" height="30" as="geometry" />
        </mxCell>
        <mxCell id="TaWxWVBgtxs1yE3OTX_x-32" value="&lt;span style=&quot;font-size: 15px;&quot;&gt;&lt;b&gt;grupo 6&lt;/b&gt;&lt;/span&gt;" style="text;html=1;align=center;verticalAlign=middle;resizable=0;points=[];autosize=1;strokeColor=none;fillColor=none;fontSize=16;" vertex="1" parent="E8iTvAODnzBoqDHblbVi-1">
          <mxGeometry x="170" y="554.7499999999999" width="80" height="30" as="geometry" />
        </mxCell>
        <mxCell id="TaWxWVBgtxs1yE3OTX_x-35" value="&lt;span style=&quot;font-size: 15px;&quot;&gt;&lt;b&gt;consulta&lt;/b&gt;&lt;/span&gt;&lt;div&gt;&lt;span style=&quot;font-size: 15px;&quot;&gt;&lt;b&gt;oftalmológica&lt;/b&gt;&lt;/span&gt;&lt;/div&gt;" style="text;html=1;align=left;verticalAlign=middle;resizable=0;points=[];autosize=1;strokeColor=none;fillColor=none;fontSize=16;" vertex="1" parent="E8iTvAODnzBoqDHblbVi-1">
          <mxGeometry x="476.87" y="520" width="120" height="50" as="geometry" />
        </mxCell>
        <mxCell id="TaWxWVBgtxs1yE3OTX_x-36" value="" style="endArrow=none;dashed=1;html=1;strokeWidth=1;rounded=0;fontSize=12;startSize=8;endSize=8;curved=1;fillColor=#f8cecc;strokeColor=#9999FF;" edge="1" parent="E8iTvAODnzBoqDHblbVi-1">
          <mxGeometry width="50" height="50" relative="1" as="geometry">
            <mxPoint x="471.87" y="589.5" as="sourcePoint" />
            <mxPoint x="471.87" y="520" as="targetPoint" />
          </mxGeometry>
        </mxCell>
        <mxCell id="TaWxWVBgtxs1yE3OTX_x-37" value="" style="html=1;shadow=0;dashed=0;align=center;verticalAlign=middle;shape=mxgraph.arrows2.arrow;dy=0;dx=10.65;notch=10.6;rotation=-270;strokeColor=none;fillColor=#FF0000;" vertex="1" parent="E8iTvAODnzBoqDHblbVi-1">
          <mxGeometry x="549.8699999999999" y="526.4999999999999" width="14.25" height="23.13" as="geometry" />
        </mxCell>
        <mxCell id="TaWxWVBgtxs1yE3OTX_x-38" value="" style="rounded=0;whiteSpace=wrap;html=1;fillColor=#f5f5f5;strokeColor=#666666;opacity=70;fontColor=#333333;" vertex="1" parent="E8iTvAODnzBoqDHblbVi-1">
          <mxGeometry x="251.87" y="632.15" width="330" height="99.5" as="geometry" />
        </mxCell>
        <mxCell id="TaWxWVBgtxs1yE3OTX_x-39" value="&lt;span style=&quot;font-size: 15px;&quot;&gt;&lt;b&gt;consulta&lt;/b&gt;&lt;/span&gt;&lt;div&gt;&lt;span style=&quot;font-size: 15px;&quot;&gt;&lt;b&gt;oftalmológica&lt;/b&gt;&lt;/span&gt;&lt;/div&gt;" style="text;html=1;align=left;verticalAlign=middle;resizable=0;points=[];autosize=1;strokeColor=none;fillColor=none;fontSize=16;" vertex="1" parent="E8iTvAODnzBoqDHblbVi-1">
          <mxGeometry x="368.9" y="632.15" width="120" height="50" as="geometry" />
        </mxCell>
        <mxCell id="TaWxWVBgtxs1yE3OTX_x-40" value="&lt;span style=&quot;font-size: 15px;&quot;&gt;&lt;b&gt;CreColGlu&lt;/b&gt;&lt;/span&gt;" style="text;html=1;align=center;verticalAlign=middle;resizable=0;points=[];autosize=1;strokeColor=none;fillColor=none;fontSize=16;" vertex="1" parent="E8iTvAODnzBoqDHblbVi-1">
          <mxGeometry x="358.90000000000003" y="703.65" width="100" height="30" as="geometry" />
        </mxCell>
        <mxCell id="TaWxWVBgtxs1yE3OTX_x-41" value="" style="html=1;shadow=0;dashed=0;align=center;verticalAlign=middle;shape=mxgraph.arrows2.arrow;dy=0;dx=10.65;notch=10.6;rotation=-270;strokeColor=none;fillColor=#FF0000;" vertex="1" parent="E8iTvAODnzBoqDHblbVi-1">
          <mxGeometry x="454.65000000000003" y="708.5200000000001" width="14.25" height="23.13" as="geometry" />
        </mxCell>
        <mxCell id="TaWxWVBgtxs1yE3OTX_x-42" value="&lt;span style=&quot;font-size: 15px;&quot;&gt;&lt;b&gt;consulta&lt;/b&gt;&lt;/span&gt;&lt;div&gt;&lt;span style=&quot;font-size: 15px;&quot;&gt;&lt;b&gt;oftalmológica&lt;/b&gt;&lt;/span&gt;&lt;/div&gt;" style="text;html=1;align=left;verticalAlign=middle;resizable=0;points=[];autosize=1;strokeColor=none;fillColor=none;fontSize=16;" vertex="1" parent="E8iTvAODnzBoqDHblbVi-1">
          <mxGeometry x="255.87" y="632.15" width="120" height="50" as="geometry" />
        </mxCell>
        <mxCell id="TaWxWVBgtxs1yE3OTX_x-43" value="&lt;font style=&quot;font-size: 12px;&quot;&gt;&lt;i&gt;1° año&lt;/i&gt;&lt;/font&gt;" style="text;html=1;align=center;verticalAlign=middle;resizable=0;points=[];autosize=1;strokeColor=none;fillColor=none;fontSize=16;" vertex="1" parent="E8iTvAODnzBoqDHblbVi-1">
          <mxGeometry x="277.87" y="676.78" width="60" height="30" as="geometry" />
        </mxCell>
        <mxCell id="TaWxWVBgtxs1yE3OTX_x-44" value="" style="html=1;shadow=0;dashed=0;align=center;verticalAlign=middle;shape=mxgraph.arrows2.arrow;dy=0;dx=10.65;notch=10.6;rotation=-90;strokeColor=none;fillColor=#006600;" vertex="1" parent="E8iTvAODnzBoqDHblbVi-1">
          <mxGeometry x="549.8700000000001" y="635.7199999999999" width="14.25" height="23.13" as="geometry" />
        </mxCell>
        <mxCell id="TaWxWVBgtxs1yE3OTX_x-45" value="" style="endArrow=none;dashed=1;html=1;strokeWidth=1;rounded=0;fontSize=12;startSize=8;endSize=8;curved=1;fillColor=#f8cecc;strokeColor=#9999FF;" edge="1" parent="E8iTvAODnzBoqDHblbVi-1">
          <mxGeometry width="50" height="50" relative="1" as="geometry">
            <mxPoint x="365.87" y="701.65" as="sourcePoint" />
            <mxPoint x="365.87" y="632.15" as="targetPoint" />
          </mxGeometry>
        </mxCell>
        <mxCell id="TaWxWVBgtxs1yE3OTX_x-46" value="&lt;font style=&quot;font-size: 12px;&quot;&gt;&lt;i&gt;2° año&lt;/i&gt;&lt;/font&gt;" style="text;html=1;align=center;verticalAlign=middle;resizable=0;points=[];autosize=1;strokeColor=none;fillColor=none;fontSize=16;" vertex="1" parent="E8iTvAODnzBoqDHblbVi-1">
          <mxGeometry x="386.87" y="676.78" width="60" height="30" as="geometry" />
        </mxCell>
        <mxCell id="TaWxWVBgtxs1yE3OTX_x-47" value="&lt;font style=&quot;font-size: 12px;&quot;&gt;&lt;i&gt;3° año&lt;/i&gt;&lt;/font&gt;" style="text;html=1;align=center;verticalAlign=middle;resizable=0;points=[];autosize=1;strokeColor=none;fillColor=none;fontSize=16;" vertex="1" parent="E8iTvAODnzBoqDHblbVi-1">
          <mxGeometry x="486.90000000000003" y="676.78" width="60" height="30" as="geometry" />
        </mxCell>
        <mxCell id="TaWxWVBgtxs1yE3OTX_x-49" value="" style="html=1;shadow=0;dashed=0;align=center;verticalAlign=middle;shape=mxgraph.arrows2.arrow;dy=0;dx=10.65;notch=10.6;rotation=-270;strokeColor=none;fillColor=#FF0000;" vertex="1" parent="E8iTvAODnzBoqDHblbVi-1">
          <mxGeometry x="442.40000000000003" y="638.6499999999999" width="14.25" height="23.13" as="geometry" />
        </mxCell>
        <mxCell id="TaWxWVBgtxs1yE3OTX_x-50" value="&lt;span style=&quot;font-size: 15px;&quot;&gt;&lt;b&gt;consulta&lt;/b&gt;&lt;/span&gt;&lt;div&gt;&lt;span style=&quot;font-size: 15px;&quot;&gt;&lt;b&gt;oftalmológica&lt;/b&gt;&lt;/span&gt;&lt;/div&gt;" style="text;html=1;align=left;verticalAlign=middle;resizable=0;points=[];autosize=1;strokeColor=none;fillColor=none;fontSize=16;" vertex="1" parent="E8iTvAODnzBoqDHblbVi-1">
          <mxGeometry x="476.87" y="632.15" width="120" height="50" as="geometry" />
        </mxCell>
        <mxCell id="TaWxWVBgtxs1yE3OTX_x-51" value="" style="endArrow=none;dashed=1;html=1;strokeWidth=1;rounded=0;fontSize=12;startSize=8;endSize=8;curved=1;fillColor=#f8cecc;strokeColor=#9999FF;" edge="1" parent="E8iTvAODnzBoqDHblbVi-1">
          <mxGeometry width="50" height="50" relative="1" as="geometry">
            <mxPoint x="471.87" y="701.65" as="sourcePoint" />
            <mxPoint x="471.87" y="632.15" as="targetPoint" />
          </mxGeometry>
        </mxCell>
        <mxCell id="TaWxWVBgtxs1yE3OTX_x-52" value="" style="html=1;shadow=0;dashed=0;align=center;verticalAlign=middle;shape=mxgraph.arrows2.arrow;dy=0;dx=10.65;notch=10.6;rotation=-270;strokeColor=none;fillColor=#FF0000;" vertex="1" parent="E8iTvAODnzBoqDHblbVi-1">
          <mxGeometry x="332.9999999999999" y="635.7199999999999" width="14.25" height="23.13" as="geometry" />
        </mxCell>
        <mxCell id="TaWxWVBgtxs1yE3OTX_x-53" value="" style="rounded=0;whiteSpace=wrap;html=1;fillColor=#f5f5f5;strokeColor=#666666;opacity=70;fontColor=#333333;" vertex="1" parent="E8iTvAODnzBoqDHblbVi-1">
          <mxGeometry x="430" y="744.28" width="150" height="99.5" as="geometry" />
        </mxCell>
        <mxCell id="TaWxWVBgtxs1yE3OTX_x-81" value="" style="rounded=0;whiteSpace=wrap;html=1;fillColor=#f5f5f5;strokeColor=#666666;opacity=70;fontColor=#333333;" vertex="1" parent="E8iTvAODnzBoqDHblbVi-1">
          <mxGeometry x="251.87" y="744.28" width="148.13" height="99.5" as="geometry" />
        </mxCell>
        <mxCell id="TaWxWVBgtxs1yE3OTX_x-82" value="" style="html=1;shadow=0;dashed=0;align=center;verticalAlign=middle;shape=mxgraph.arrows2.arrow;dy=0;dx=10.65;notch=10.6;rotation=-90;strokeColor=none;fillColor=#006600;" vertex="1" parent="E8iTvAODnzBoqDHblbVi-1">
          <mxGeometry x="443.4000000000001" y="523.9399999999999" width="14.25" height="23.13" as="geometry" />
        </mxCell>
        <mxCell id="TaWxWVBgtxs1yE3OTX_x-84" value="&lt;span style=&quot;font-size: 15px;&quot;&gt;&lt;b&gt;grupo 8&lt;/b&gt;&lt;/span&gt;" style="text;html=1;align=center;verticalAlign=middle;resizable=0;points=[];autosize=1;strokeColor=none;fillColor=none;fontSize=16;" vertex="1" parent="E8iTvAODnzBoqDHblbVi-1">
          <mxGeometry x="167.5" y="666.8999999999999" width="80" height="30" as="geometry" />
        </mxCell>
        <mxCell id="TaWxWVBgtxs1yE3OTX_x-85" value="&lt;span style=&quot;font-size: 15px;&quot;&gt;&lt;b&gt;grupo 4&lt;/b&gt;&lt;/span&gt;" style="text;html=1;align=center;verticalAlign=middle;resizable=0;points=[];autosize=1;strokeColor=none;fillColor=none;fontSize=16;" vertex="1" parent="E8iTvAODnzBoqDHblbVi-1">
          <mxGeometry x="165" y="779.0299999999999" width="80" height="30" as="geometry" />
        </mxCell>
        <mxCell id="TaWxWVBgtxs1yE3OTX_x-90" value="&lt;span style=&quot;font-size: 15px;&quot;&gt;&lt;b&gt;CreColGlu&lt;/b&gt;&lt;/span&gt;" style="text;html=1;align=center;verticalAlign=middle;resizable=0;points=[];autosize=1;strokeColor=none;fillColor=none;fontSize=16;" vertex="1" parent="E8iTvAODnzBoqDHblbVi-1">
          <mxGeometry x="270.94000000000005" y="775.63" width="100" height="30" as="geometry" />
        </mxCell>
        <mxCell id="TaWxWVBgtxs1yE3OTX_x-91" value="" style="html=1;shadow=0;dashed=0;align=center;verticalAlign=middle;shape=mxgraph.arrows2.arrow;dy=0;dx=10.65;notch=10.6;rotation=-270;strokeColor=none;fillColor=#FF0000;" vertex="1" parent="E8iTvAODnzBoqDHblbVi-1">
          <mxGeometry x="366.69000000000005" y="780.5000000000001" width="14.25" height="23.13" as="geometry" />
        </mxCell>
        <mxCell id="TaWxWVBgtxs1yE3OTX_x-92" value="&lt;span style=&quot;font-size: 15px;&quot;&gt;&lt;b&gt;CreColGlu&lt;/b&gt;&lt;/span&gt;" style="text;html=1;align=center;verticalAlign=middle;resizable=0;points=[];autosize=1;strokeColor=none;fillColor=none;fontSize=16;" vertex="1" parent="E8iTvAODnzBoqDHblbVi-1">
          <mxGeometry x="446.87" y="803.63" width="100" height="30" as="geometry" />
        </mxCell>
        <mxCell id="TaWxWVBgtxs1yE3OTX_x-93" value="" style="html=1;shadow=0;dashed=0;align=center;verticalAlign=middle;shape=mxgraph.arrows2.arrow;dy=0;dx=10.65;notch=10.6;rotation=-270;strokeColor=none;fillColor=#FF0000;" vertex="1" parent="E8iTvAODnzBoqDHblbVi-1">
          <mxGeometry x="542.62" y="808.5000000000001" width="14.25" height="23.13" as="geometry" />
        </mxCell>
        <mxCell id="TaWxWVBgtxs1yE3OTX_x-94" value="&lt;span style=&quot;font-size: 15px;&quot;&gt;&lt;b&gt;metformina&lt;/b&gt;&lt;/span&gt;" style="text;html=1;align=center;verticalAlign=middle;resizable=0;points=[];autosize=1;strokeColor=none;fillColor=none;fontSize=16;" vertex="1" parent="E8iTvAODnzBoqDHblbVi-1">
          <mxGeometry x="440.47" y="760" width="110" height="30" as="geometry" />
        </mxCell>
        <mxCell id="TaWxWVBgtxs1yE3OTX_x-95" value="" style="html=1;shadow=0;dashed=0;align=center;verticalAlign=middle;shape=mxgraph.arrows2.arrow;dy=0;dx=10.65;notch=10.6;rotation=-90;strokeColor=none;fillColor=#006600;" vertex="1" parent="E8iTvAODnzBoqDHblbVi-1">
          <mxGeometry x="542.62" y="763.4399999999998" width="14.25" height="23.13" as="geometry" />
        </mxCell>
        <mxCell id="TaWxWVBgtxs1yE3OTX_x-96" value="&lt;span style=&quot;font-size: 15px;&quot;&gt;&lt;b&gt;grupo 10&lt;/b&gt;&lt;/span&gt;" style="text;html=1;align=center;verticalAlign=middle;resizable=0;points=[];autosize=1;strokeColor=none;fillColor=none;fontSize=16;" vertex="1" parent="E8iTvAODnzBoqDHblbVi-1">
          <mxGeometry x="571" y="777.0699999999998" width="90" height="30" as="geometry" />
        </mxCell>
        <mxCell id="TaWxWVBgtxs1yE3OTX_x-97" value="&lt;span style=&quot;font-size: 15px;&quot;&gt;&lt;b&gt;grupo 1&lt;/b&gt;&lt;/span&gt;" style="text;html=1;align=center;verticalAlign=middle;resizable=0;points=[];autosize=1;strokeColor=none;fillColor=none;fontSize=16;" vertex="1" parent="E8iTvAODnzBoqDHblbVi-1">
          <mxGeometry x="747.5699999999999" y="763.4399999999998" width="80" height="30" as="geometry" />
        </mxCell>
      </root>
    </mxGraphModel>
  </diagram>
</mxfile>
